<svg xmlns="http://www.w3.org/2000/svg" viewBox="0 0 100.198 25.219"><defs><style>.a,.b{fill:#fff}.a{fill-rule:evenodd}</style></defs><path d="M14.898 11.871a5.014 5.014 0 0 1 2.373-4.2 5.094 5.094 0 0 0-4.019-2.184c-1.691-.178-3.33 1.017-4.191 1.017-.878 0-2.2-1-3.633-.97A5.348 5.348 0 0 0 .925 8.292c-1.947 3.39-.495 8.37 1.373 11.109.933 1.341 2.024 2.84 3.451 2.786 1.4-.058 1.918-.9 3.6-.9 1.67 0 2.159.9 3.616.861 1.5-.024 2.443-1.347 3.343-2.7a11.117 11.117 0 0 0 1.529-3.13 4.84 4.84 0 0 1-2.939-4.447zM12.148 3.679A4.948 4.948 0 0 0 13.27.151a4.983 4.983 0 0 0-3.23 1.68 4.707 4.707 0 0 0-1.152 3.402 4.119 4.119 0 0 0 3.26-1.554z" class="a"/><path d="M32.553 18.793h-4.766l-1.145 3.4h-2.015l4.511-12.571h2.1l4.514 12.567h-2.056zm-4.273-1.568h3.778l-1.862-5.509h-.052zM45.498 17.608c0 2.847-1.516 4.677-3.8 4.677a3.087 3.087 0 0 1-2.868-1.6h-.048v4.538h-1.871V13.026h1.811v1.524h.034a3.23 3.23 0 0 1 2.9-1.62c2.317 0 3.842 1.842 3.842 4.678zm-1.923 0c0-1.855-.954-3.075-2.409-3.075-1.43 0-2.391 1.245-2.391 3.075 0 1.846.962 3.083 2.391 3.083 1.455-.001 2.409-1.212 2.409-3.083zM55.531 17.608c0 2.847-1.516 4.677-3.8 4.677a3.087 3.087 0 0 1-2.868-1.6h-.043v4.538h-1.876V13.026h1.811v1.524h.034a3.23 3.23 0 0 1 2.9-1.62c2.317 0 3.842 1.842 3.842 4.678zm-1.923 0c0-1.855-.954-3.075-2.409-3.075-1.43 0-2.391 1.245-2.391 3.075 0 1.846.962 3.083 2.391 3.083 1.455 0 2.409-1.211 2.409-3.083z" class="b"/><path d="M62.162 18.687c.139 1.246 1.343 2.065 2.989 2.065 1.577 0 2.712-.818 2.712-1.942 0-.975-.684-1.56-2.3-1.96l-1.62-.392c-2.3-.557-3.362-1.637-3.362-3.388 0-2.168 1.88-3.658 4.55-3.658 2.642 0 4.453 1.489 4.514 3.658h-1.894c-.113-1.254-1.145-2.012-2.655-2.012s-2.539.766-2.539 1.881c0 .888.659 1.411 2.27 1.812l1.378.34c2.565.61 3.631 1.646 3.631 3.484 0 2.351-1.863 3.824-4.827 3.824-2.773 0-4.645-1.438-4.766-3.711zM73.878 10.858v2.169h1.729v1.485h-1.729v5.051c0 .785.347 1.15 1.109 1.15a5.818 5.818 0 0 0 .616-.044v1.48a5.113 5.113 0 0 1-1.039.087c-1.846 0-2.565-.7-2.565-2.474v-5.25h-1.327v-1.485h1.325v-2.169z" class="a"/><path d="M76.615 17.609c0-2.883 1.689-4.694 4.323-4.694s4.324 1.812 4.324 4.694-1.673 4.694-4.324 4.694-4.323-1.804-4.323-4.694zm6.741 0c0-1.978-.9-3.145-2.418-3.145s-2.417 1.176-2.417 3.145c0 1.985.9 3.144 2.417 3.144s2.418-1.158 2.418-3.144z" class="b"/><path d="M86.805 13.026h1.785v1.56h.043a2.176 2.176 0 0 1 2.193-1.655 2.872 2.872 0 0 1 .641.07v1.758a2.6 2.6 0 0 0-.841-.114 1.881 1.881 0 0 0-1.457.6 1.9 1.9 0 0 0-.492 1.5v5.435h-1.872z" class="a"/><path d="M100.094 19.498c-.252 1.663-1.863 2.8-3.925 2.8-2.652 0-4.3-1.786-4.3-4.651s1.655-4.738 4.219-4.738c2.522 0 4.108 1.741 4.108 4.519v.644h-6.441v.12a2.394 2.394 0 0 0 .643 1.854 2.368 2.368 0 0 0 1.809.741 2.061 2.061 0 0 0 2.105-1.289zm-6.325-2.734h4.557a2.21 2.21 0 0 0-.612-1.654 2.187 2.187 0 0 0-1.623-.672 2.3 2.3 0 0 0-1.643.677 2.326 2.326 0 0 0-.679 1.649z" class="b"/><path d="M27.042 2.716h.8a1 1 0 0 0 .777-.232 1.016 1.016 0 0 0 .357-.731c0-.557-.417-.917-1.124-.917a1.067 1.067 0 0 0-.8.216 1.078 1.078 0 0 0-.408.73h-.884a1.9 1.9 0 0 1 .679-1.347 1.877 1.877 0 0 1 1.444-.419c1.183 0 2.016.666 2.016 1.624a1.4 1.4 0 0 1-1.092 1.381v.071a1.4 1.4 0 0 1 1.336 1.46 2.02 2.02 0 0 1-.746 1.372 2 2 0 0 1-1.5.424 1.99 1.99 0 0 1-1.506-.412 2.01 2.01 0 0 1-.748-1.375h.9c.054.578.582.95 1.361.95s1.287-.419 1.287-1.009-.479-.967-1.316-.967h-.833z" class="a"/><path d="M31.162 4.913c0-.82.609-1.293 1.686-1.36l1.228-.071v-.393c0-.481-.316-.753-.928-.753-.5 0-.845.184-.945.507h-.866c.091-.783.825-1.285 1.853-1.285 1.137 0 1.778.569 1.778 1.531v3.112h-.862v-.64h-.071a1.523 1.523 0 0 1-1.362.715 1.365 1.365 0 0 1-1.057-.345 1.38 1.38 0 0 1-.454-1.018zm2.914-.389v-.382l-1.107.071c-.624.042-.908.255-.908.657s.354.649.841.649a1.065 1.065 0 0 0 .8-.248 1.076 1.076 0 0 0 .374-.748z" class="b"/><path d="M37.342 2.401v3.8h-.895V1.643h2.985V2.4z" class="a"/><path d="M44.855 3.92c0 1.448-.729 2.356-1.873 2.356a1.476 1.476 0 0 1-1.4-.765h-.071v2.205h-.895V1.643h.868v.753h.067a1.574 1.574 0 0 1 1.424-.829c1.151.001 1.88.905 1.88 2.353zm-.92 0c0-.963-.453-1.544-1.211-1.544S41.5 2.97 41.5 3.924s.471 1.544 1.22 1.544 1.215-.579 1.215-1.548z" class="b"/><path d="M46.047 7.833v-.775a2.1 2.1 0 0 0 .292.017.776.776 0 0 0 .82-.636l.067-.222-1.641-4.574h.974l1.137 3.62h.074l1.133-3.62h.949l-1.69 4.745c-.387 1.109-.816 1.465-1.74 1.465-.079 0-.292-.008-.375-.02zM50.546 4.907h.891c.088.4.462.611.986.611.6 0 .962-.264.962-.674 0-.439-.328-.649-.962-.649h-.678v-.7h.667c.541 0 .816-.209.816-.59 0-.335-.266-.59-.816-.59-.5 0-.866.213-.924.573h-.862a1.59 1.59 0 0 1 1.787-1.335c1.078 0 1.694.49 1.694 1.26a.935.935 0 0 1-.716.933v.071a1.021 1.021 0 0 1 .887 1.025c0 .866-.734 1.439-1.853 1.439-.993.006-1.797-.453-1.879-1.374zM55.564 6.201V1.643h.887v3.135h.071l2.089-3.134h.887v4.557h-.887V3.049h-.065l-2.095 3.152zM64.384 2.401h-1.428v3.8h-.9v-3.8h-1.423v-.757h3.751z" class="a"/><path d="M69.205 4.971a1.843 1.843 0 0 1-1.966 1.318A2.054 2.054 0 0 1 65.65 5.6a2.077 2.077 0 0 1-.505-1.663 2.109 2.109 0 0 1 .5-1.67 2.086 2.086 0 0 1 1.586-.711c1.262 0 2.024.866 2.024 2.3v.314h-3.2v.05a1.207 1.207 0 0 0 .316.922 1.194 1.194 0 0 0 .891.384 1.085 1.085 0 0 0 1.078-.552zm-3.148-1.469h2.289a1.1 1.1 0 0 0-.3-.838 1.091 1.091 0 0 0-.818-.342 1.155 1.155 0 0 0-.835.341 1.167 1.167 0 0 0-.339.839zM73.001 1.643h2.04c.887 0 1.407.452 1.407 1.159a.978.978 0 0 1-.766.963v.071a1.038 1.038 0 0 1 .969 1.051c0 .8-.595 1.314-1.59 1.314h-2.06zm.887.69v1.18h.887c.541 0 .8-.209.8-.594 0-.355-.225-.586-.7-.586zm0 1.841V5.51h1.061c.529 0 .812-.235.812-.666 0-.456-.321-.67-.924-.67z" class="b"/></svg>