<svg width="82" height="34" viewBox="0 0 82 34" fill="none" xmlns="http://www.w3.org/2000/svg">
<path d="M81.4305 29.8037C81.5709 29.5659 81.4921 29.2593 81.2543 29.1189L77.3799 26.83C77.1422 26.6895 76.8356 26.7684 76.6951 27.0061C76.5547 27.2439 76.6335 27.5505 76.8713 27.6909L80.3152 29.7255L78.2806 33.1694C78.1402 33.4072 78.219 33.7138 78.4568 33.8542C78.6945 33.9947 79.0011 33.9158 79.1416 33.6781L81.4305 29.8037ZM0.566896 1.24984C15.4899 27.1189 51.112 37.7543 81.1246 30.0336L80.8754 29.0651C51.1779 36.7048 16.0754 26.1326 1.4331 0.750158L0.566896 1.24984Z" fill="white"/>
</svg>
