<svg width="482" height="346" viewBox="0 0 482 346" fill="none" xmlns="http://www.w3.org/2000/svg">
<g clip-path="url(#clip0)">
<path opacity="0.1" d="M241 346C374.101 346 482 332.889 482 316.717C482 300.544 374.101 287.433 241 287.433C107.899 287.433 0 300.544 0 316.717C0 332.889 107.899 346 241 346Z" fill="#E30613"/>
<path d="M412.367 331.07C412.367 331.07 424.936 315.081 423.92 299.218C423.451 292.567 425.153 285.943 428.771 280.342C430.509 277.696 432.485 275.215 434.676 272.929" stroke="#535461" stroke-width="2" stroke-miterlimit="10"/>
<path d="M434.095 262.928C433.209 265.149 434.661 273.192 434.661 273.192C434.661 273.192 441.253 268.357 442.139 266.137C442.564 265.071 442.547 263.88 442.094 262.825C441.64 261.771 440.787 260.94 439.721 260.515C438.654 260.09 437.463 260.105 436.408 260.558C435.353 261.01 434.521 261.863 434.095 262.928Z" fill="#E30613"/>
<path d="M422.539 272.576C423.002 274.922 428.594 280.884 428.594 280.884C428.594 280.884 431.499 273.245 431.035 270.899C430.925 270.342 430.706 269.811 430.391 269.338C430.076 268.865 429.67 268.459 429.198 268.142C428.725 267.826 428.195 267.605 427.638 267.494C427.08 267.382 426.506 267.381 425.948 267.491C425.39 267.601 424.86 267.82 424.386 268.135C423.913 268.45 423.507 268.856 423.19 269.328C422.874 269.8 422.653 270.33 422.541 270.887C422.43 271.445 422.429 272.019 422.539 272.576Z" fill="#E30613"/>
<path d="M414.439 293.71C416.023 295.501 423.861 297.827 423.861 297.827C423.861 297.827 422.51 289.766 420.926 287.975C420.549 287.549 420.092 287.201 419.581 286.952C419.07 286.703 418.515 286.556 417.947 286.521C417.38 286.486 416.811 286.564 416.273 286.749C415.735 286.934 415.239 287.223 414.813 287.599C414.387 287.976 414.039 288.433 413.79 288.944C413.541 289.455 413.394 290.01 413.36 290.577C413.325 291.145 413.402 291.714 413.587 292.251C413.773 292.789 414.062 293.284 414.439 293.71Z" fill="#E30613"/>
<path d="M411.915 311.08C413.174 313.112 420.506 316.729 420.506 316.729C420.506 316.729 420.538 308.556 419.279 306.523C418.98 306.039 418.588 305.619 418.127 305.287C417.665 304.955 417.142 304.716 416.589 304.586C416.035 304.456 415.461 304.436 414.9 304.527C414.338 304.618 413.8 304.82 413.317 305.119C412.833 305.418 412.413 305.81 412.081 306.271C411.749 306.733 411.511 307.256 411.38 307.809C411.25 308.363 411.231 308.936 411.322 309.498C411.414 310.059 411.616 310.596 411.915 311.08Z" fill="#E30613"/>
<path d="M436.867 284.683C434.656 285.594 426.594 284.237 426.594 284.237C426.594 284.237 431.353 277.591 433.564 276.68C434.626 276.242 435.818 276.244 436.878 276.684C437.938 277.125 438.78 277.969 439.218 279.03C439.656 280.092 439.654 281.283 439.213 282.343C438.772 283.403 437.928 284.245 436.867 284.683Z" fill="#E30613"/>
<path d="M433.653 304.959C431.271 305.168 423.984 301.461 423.984 301.461C423.984 301.461 430.515 296.544 432.897 296.335C433.464 296.285 434.035 296.347 434.578 296.517C435.121 296.688 435.625 296.964 436.061 297.329C436.497 297.694 436.857 298.142 437.12 298.647C437.382 299.151 437.543 299.702 437.593 300.269C437.643 300.836 437.58 301.406 437.409 301.949C437.238 302.491 436.961 302.995 436.595 303.43C436.23 303.866 435.781 304.225 435.277 304.487C434.772 304.75 434.22 304.91 433.653 304.959Z" fill="#E30613"/>
<path d="M427.828 324.239C425.515 324.847 417.707 322.424 417.707 322.424C417.707 322.424 423.312 316.474 425.625 315.866C426.736 315.574 427.917 315.735 428.909 316.314C429.901 316.892 430.622 317.841 430.914 318.951C431.206 320.062 431.045 321.242 430.467 322.234C429.888 323.226 428.939 323.947 427.828 324.239Z" fill="#E30613"/>
<path opacity="0.25" d="M434.095 262.928C433.209 265.149 434.661 273.192 434.661 273.192C434.661 273.192 441.253 268.357 442.139 266.137C442.564 265.071 442.547 263.88 442.094 262.825C441.64 261.771 440.787 260.94 439.721 260.515C438.654 260.09 437.463 260.105 436.408 260.558C435.353 261.01 434.521 261.863 434.095 262.928Z" fill="black"/>
<path opacity="0.25" d="M422.539 272.576C423.002 274.922 428.594 280.884 428.594 280.884C428.594 280.884 431.499 273.245 431.035 270.899C430.925 270.342 430.706 269.811 430.391 269.338C430.076 268.865 429.67 268.459 429.198 268.142C428.725 267.826 428.195 267.605 427.638 267.494C427.08 267.382 426.506 267.381 425.948 267.491C425.39 267.601 424.86 267.82 424.386 268.135C423.913 268.45 423.507 268.856 423.19 269.328C422.874 269.8 422.653 270.33 422.541 270.887C422.43 271.445 422.429 272.019 422.539 272.576Z" fill="black"/>
<path opacity="0.25" d="M414.439 293.71C416.023 295.501 423.861 297.827 423.861 297.827C423.861 297.827 422.51 289.766 420.926 287.975C420.549 287.549 420.092 287.201 419.581 286.952C419.07 286.703 418.515 286.556 417.947 286.521C417.38 286.486 416.811 286.564 416.273 286.749C415.735 286.934 415.239 287.223 414.813 287.599C414.387 287.976 414.039 288.433 413.79 288.944C413.541 289.455 413.394 290.01 413.36 290.577C413.325 291.145 413.402 291.714 413.587 292.251C413.773 292.789 414.062 293.284 414.439 293.71Z" fill="black"/>
<path opacity="0.25" d="M411.915 311.08C413.174 313.112 420.506 316.729 420.506 316.729C420.506 316.729 420.538 308.556 419.279 306.523C418.98 306.039 418.588 305.619 418.127 305.287C417.665 304.955 417.142 304.716 416.589 304.586C416.035 304.456 415.461 304.436 414.9 304.527C414.338 304.618 413.8 304.82 413.317 305.119C412.833 305.418 412.413 305.81 412.081 306.271C411.749 306.733 411.511 307.256 411.38 307.809C411.25 308.363 411.231 308.936 411.322 309.498C411.414 310.059 411.616 310.596 411.915 311.08Z" fill="black"/>
<path opacity="0.25" d="M436.867 284.683C434.656 285.594 426.594 284.237 426.594 284.237C426.594 284.237 431.353 277.591 433.564 276.68C434.626 276.242 435.818 276.244 436.878 276.684C437.938 277.125 438.78 277.969 439.218 279.03C439.656 280.092 439.654 281.283 439.213 282.343C438.772 283.403 437.928 284.245 436.867 284.683Z" fill="black"/>
<path opacity="0.25" d="M433.653 304.959C431.271 305.168 423.984 301.461 423.984 301.461C423.984 301.461 430.515 296.544 432.897 296.335C433.464 296.285 434.035 296.347 434.578 296.517C435.121 296.688 435.625 296.964 436.061 297.329C436.497 297.694 436.857 298.142 437.12 298.647C437.382 299.151 437.543 299.702 437.593 300.269C437.643 300.836 437.58 301.406 437.409 301.949C437.238 302.491 436.961 302.995 436.595 303.43C436.23 303.866 435.781 304.225 435.277 304.487C434.772 304.75 434.22 304.91 433.653 304.959Z" fill="black"/>
<path opacity="0.25" d="M427.828 324.239C425.515 324.847 417.707 322.424 417.707 322.424C417.707 322.424 423.312 316.474 425.625 315.866C426.736 315.574 427.917 315.735 428.909 316.314C429.901 316.892 430.622 317.841 430.914 318.951C431.206 320.062 431.045 321.242 430.467 322.234C429.888 323.226 428.939 323.947 427.828 324.239Z" fill="black"/>
<path d="M412.473 330.405C412.473 330.405 430.445 320.879 435.946 305.965C438.214 299.694 442.454 294.328 448.032 290.673C450.694 288.958 453.507 287.49 456.436 286.288" stroke="#535461" stroke-width="2" stroke-miterlimit="10"/>
<path d="M459.96 276.91C458.249 278.581 456.316 286.522 456.316 286.522C456.316 286.522 464.303 284.772 466.013 283.101C466.834 282.299 467.303 281.203 467.316 280.055C467.329 278.907 466.886 277.801 466.083 276.98C465.28 276.159 464.184 275.69 463.036 275.677C461.888 275.664 460.781 276.108 459.96 276.91Z" fill="#E30613"/>
<path d="M445.482 281.049C444.955 283.381 447.65 291.097 447.65 291.097C447.65 291.097 453.402 285.289 453.93 282.957C454.055 282.403 454.07 281.829 453.973 281.269C453.877 280.709 453.671 280.173 453.367 279.692C453.064 279.212 452.669 278.795 452.204 278.467C451.74 278.139 451.215 277.906 450.661 277.781C450.106 277.655 449.532 277.641 448.972 277.737C448.411 277.833 447.875 278.039 447.394 278.343C446.914 278.646 446.497 279.041 446.169 279.506C445.841 279.97 445.608 280.494 445.482 281.049Z" fill="#E30613"/>
<path d="M429.515 297.089C430.237 299.368 436.46 304.669 436.46 304.669C436.46 304.669 438.493 296.753 437.77 294.474C437.599 293.932 437.322 293.429 436.956 292.994C436.589 292.559 436.141 292.201 435.636 291.939C435.132 291.677 434.58 291.517 434.014 291.469C433.447 291.42 432.877 291.483 432.334 291.655C431.792 291.827 431.29 292.103 430.854 292.469C430.419 292.835 430.061 293.284 429.799 293.788C429.537 294.293 429.377 294.844 429.328 295.41C429.28 295.977 429.343 296.547 429.515 297.089Z" fill="#E30613"/>
<path d="M420.162 311.946C420.489 314.314 425.726 320.59 425.726 320.59C425.726 320.59 429.067 313.131 428.741 310.763C428.663 310.199 428.475 309.657 428.188 309.167C427.9 308.676 427.519 308.247 427.066 307.904C426.613 307.56 426.096 307.31 425.546 307.166C424.996 307.022 424.423 306.988 423.859 307.066C423.296 307.144 422.754 307.332 422.263 307.619C421.772 307.906 421.343 308.287 421 308.74C420.656 309.193 420.406 309.71 420.262 310.26C420.118 310.81 420.084 311.382 420.162 311.946Z" fill="#E30613"/>
<path d="M453.676 297.921C451.285 297.859 444.465 293.352 444.465 293.352C444.465 293.352 451.51 289.204 453.9 289.266C455.049 289.296 456.138 289.781 456.928 290.613C457.719 291.446 458.147 292.558 458.117 293.706C458.087 294.853 457.602 295.942 456.769 296.733C455.937 297.523 454.824 297.95 453.676 297.921H453.676Z" fill="#E30613"/>
<path d="M442.519 315.157C440.256 314.383 435.098 308.042 435.098 308.042C435.098 308.042 443.061 306.192 445.324 306.966C446.41 307.338 447.305 308.126 447.81 309.157C448.315 310.188 448.39 311.377 448.018 312.464C447.646 313.55 446.858 314.444 445.827 314.949C444.795 315.454 443.606 315.529 442.519 315.157V315.157Z" fill="#E30613"/>
<path d="M429.377 330.422C427.016 330.041 420.859 324.663 420.859 324.663C420.859 324.663 428.396 321.495 430.757 321.876C431.89 322.058 432.905 322.684 433.577 323.615C434.25 324.546 434.524 325.705 434.341 326.839C434.158 327.972 433.533 328.986 432.602 329.658C431.67 330.33 430.51 330.605 429.377 330.422Z" fill="#E30613"/>
<path opacity="0.1" d="M274.686 40.9766C250.872 40.1501 228.19 32.4648 206.532 24.0565C184.874 15.6482 163.421 6.33247 140.177 1.87705C125.227 -0.988599 108.13 -1.39405 96.0841 6.61879C84.4923 14.3295 80.7467 27.6399 78.7329 39.9902C77.2178 49.2822 76.3271 59.0616 80.4784 67.7605C83.3606 73.7999 88.4782 78.8764 92.017 84.6611C104.331 104.79 95.6274 129.611 82.2826 149.264C76.0228 158.484 68.7621 167.279 63.9317 177.093C59.1013 186.907 56.8667 198.152 61.0929 208.164C65.2818 218.087 75.2644 225.54 86.0779 230.782C108.04 241.43 133.921 244.477 159.158 246.203C215.023 250.023 271.187 248.369 327.2 246.713C347.929 246.099 368.75 245.478 389.142 242.274C400.466 240.495 412.158 237.67 420.379 230.852C430.816 222.197 433.403 207.541 426.41 196.688C414.679 178.484 382.245 173.962 374.045 154.426C369.532 143.672 374.167 131.694 380.726 121.721C394.796 100.326 418.379 81.5561 419.621 57.1015C420.474 40.3056 409.137 23.4851 391.608 15.5383C373.234 7.2085 347.755 8.25631 334.2 22.0449C320.242 36.2433 295.712 41.7064 274.686 40.9766Z" fill="#E30613"/>
<path d="M233.911 303.583C242.853 303.583 250.102 295.89 250.102 286.401C250.102 276.913 242.853 269.22 233.911 269.22C224.968 269.22 217.719 276.913 217.719 286.401C217.719 295.89 224.968 303.583 233.911 303.583Z" fill="#FBD56F"/>
<path opacity="0.1" d="M233.911 303.583C242.853 303.583 250.102 295.89 250.102 286.401C250.102 276.913 242.853 269.22 233.911 269.22C224.968 269.22 217.719 276.913 217.719 286.401C217.719 295.89 224.968 303.583 233.911 303.583Z" fill="black"/>
<path d="M236.707 303.582C245.65 303.582 252.899 296.062 252.899 286.784C252.899 277.506 245.65 269.985 236.707 269.985C227.765 269.985 220.516 277.506 220.516 286.784C220.516 296.062 227.765 303.582 236.707 303.582Z" fill="#FBD56F"/>
<path d="M243.266 302.007L241.582 301.07C241.582 301.07 240.794 304.356 241.052 306.698C241.077 306.936 241.175 307.16 241.332 307.34C241.489 307.52 241.697 307.648 241.929 307.706C245.803 308.668 264.27 312.766 276.969 306.994C277.153 306.91 277.312 306.779 277.43 306.615C277.549 306.451 277.622 306.259 277.644 306.058C277.799 304.619 277.248 301.649 277.028 301.07C276.554 299.825 243.266 302.007 243.266 302.007Z" fill="#FBD56F"/>
<path opacity="0.1" d="M243.266 302.007L241.582 301.07C241.582 301.07 240.794 304.356 241.052 306.698C241.077 306.936 241.175 307.16 241.332 307.34C241.489 307.52 241.697 307.648 241.929 307.706C245.803 308.668 264.27 312.766 276.969 306.994C277.153 306.91 277.312 306.779 277.43 306.615C277.549 306.451 277.622 306.259 277.644 306.058C277.799 304.619 277.248 301.649 277.028 301.07C276.554 299.825 243.266 302.007 243.266 302.007Z" fill="black"/>
<path d="M259.305 305.063C269.093 305.063 277.028 303.275 277.028 301.07C277.028 298.864 269.093 297.076 259.305 297.076C249.517 297.076 241.582 298.864 241.582 301.07C241.582 303.275 249.517 305.063 259.305 305.063Z" fill="#FBD56F"/>
<path d="M250.036 296.115L248.352 295.178C248.352 295.178 247.564 298.464 247.821 300.806C247.847 301.043 247.944 301.267 248.101 301.448C248.258 301.628 248.466 301.756 248.698 301.814C252.573 302.776 271.039 306.874 283.738 301.102C283.922 301.018 284.081 300.887 284.2 300.723C284.318 300.559 284.392 300.367 284.413 300.166C284.569 298.726 284.017 295.756 283.797 295.178C283.324 293.932 250.036 296.115 250.036 296.115Z" fill="#FBD56F"/>
<path opacity="0.1" d="M250.036 296.115L248.352 295.178C248.352 295.178 247.564 298.464 247.821 300.806C247.847 301.043 247.944 301.267 248.101 301.448C248.258 301.628 248.466 301.756 248.698 301.814C252.573 302.776 271.039 306.874 283.738 301.102C283.922 301.018 284.081 300.887 284.2 300.723C284.318 300.559 284.392 300.367 284.413 300.166C284.569 298.726 284.017 295.756 283.797 295.178C283.324 293.932 250.036 296.115 250.036 296.115Z" fill="black"/>
<path d="M266.078 299.171C275.867 299.171 283.801 297.383 283.801 295.178C283.801 292.972 275.867 291.184 266.078 291.184C256.29 291.184 248.355 292.972 248.355 295.178C248.355 297.383 256.29 299.171 266.078 299.171Z" fill="#FBD56F"/>
<path d="M256.024 288.371L254.34 287.433C254.34 287.433 253.552 290.72 253.81 293.062C253.835 293.299 253.933 293.523 254.089 293.703C254.246 293.884 254.455 294.011 254.687 294.069C258.561 295.031 277.028 299.129 289.726 293.357C289.911 293.273 290.07 293.143 290.188 292.979C290.306 292.814 290.38 292.622 290.401 292.421C290.557 290.982 290.006 288.012 289.786 287.433C289.312 286.188 256.024 288.371 256.024 288.371Z" fill="#FBD56F"/>
<path opacity="0.1" d="M256.024 288.371L254.34 287.433C254.34 287.433 253.552 290.72 253.81 293.062C253.835 293.299 253.933 293.523 254.089 293.703C254.246 293.884 254.455 294.011 254.687 294.069C258.561 295.031 277.028 299.129 289.726 293.357C289.911 293.273 290.07 293.143 290.188 292.979C290.306 292.814 290.38 292.622 290.401 292.421C290.557 290.982 290.006 288.012 289.786 287.433C289.312 286.188 256.024 288.371 256.024 288.371Z" fill="black"/>
<path d="M272.063 291.427C281.851 291.427 289.786 289.639 289.786 287.433C289.786 285.228 281.851 283.44 272.063 283.44C262.275 283.44 254.34 285.228 254.34 287.433C254.34 289.639 262.275 291.427 272.063 291.427Z" fill="#FBD56F"/>
<path d="M249.395 280.309L247.711 279.372C247.711 279.372 246.923 282.658 247.181 285C247.206 285.238 247.304 285.462 247.461 285.642C247.617 285.822 247.826 285.95 248.058 286.008C251.932 286.97 270.399 291.068 283.098 285.296C283.282 285.212 283.441 285.081 283.559 284.917C283.678 284.753 283.751 284.561 283.773 284.36C283.928 282.92 283.377 279.95 283.157 279.372C282.683 278.126 249.395 280.309 249.395 280.309Z" fill="#FBD56F"/>
<path opacity="0.1" d="M249.395 280.309L247.711 279.372C247.711 279.372 246.923 282.658 247.181 285C247.206 285.238 247.304 285.462 247.461 285.642C247.617 285.822 247.826 285.95 248.058 286.008C251.932 286.97 270.399 291.068 283.098 285.296C283.282 285.212 283.441 285.081 283.559 284.917C283.678 284.753 283.751 284.561 283.773 284.36C283.928 282.92 283.377 279.95 283.157 279.372C282.683 278.126 249.395 280.309 249.395 280.309Z" fill="black"/>
<path d="M265.434 283.365C275.222 283.365 283.157 281.577 283.157 279.372C283.157 277.166 275.222 275.378 265.434 275.378C255.646 275.378 247.711 277.166 247.711 279.372C247.711 281.577 255.646 283.365 265.434 283.365Z" fill="#FBD56F"/>
<path d="M264.309 273.839L262.625 272.902C262.625 272.902 261.837 276.188 262.095 278.53C262.12 278.768 262.218 278.992 262.375 279.172C262.531 279.352 262.74 279.48 262.972 279.538C266.846 280.5 285.313 284.598 298.012 278.826C298.196 278.742 298.355 278.612 298.473 278.447C298.592 278.283 298.665 278.091 298.687 277.89C298.842 276.451 298.291 273.481 298.071 272.902C297.597 271.657 264.309 273.839 264.309 273.839Z" fill="#FBD56F"/>
<path opacity="0.1" d="M264.309 273.839L262.625 272.902C262.625 272.902 261.837 276.188 262.095 278.53C262.12 278.768 262.218 278.992 262.375 279.172C262.531 279.352 262.74 279.48 262.972 279.538C266.846 280.5 285.313 284.598 298.012 278.826C298.196 278.742 298.355 278.612 298.473 278.447C298.592 278.283 298.665 278.091 298.687 277.89C298.842 276.451 298.291 273.481 298.071 272.902C297.597 271.657 264.309 273.839 264.309 273.839Z" fill="black"/>
<path d="M280.344 276.896C290.132 276.896 298.067 275.108 298.067 272.902C298.067 270.696 290.132 268.908 280.344 268.908C270.556 268.908 262.621 270.696 262.621 272.902C262.621 275.108 270.556 276.896 280.344 276.896Z" fill="#FBD56F"/>
<path d="M254.231 269.491L252.547 268.554C252.547 268.554 251.759 271.84 252.017 274.182C252.042 274.42 252.14 274.644 252.297 274.824C252.453 275.004 252.662 275.132 252.894 275.19C256.768 276.152 275.235 280.25 287.934 274.478C288.118 274.394 288.277 274.263 288.395 274.099C288.513 273.935 288.587 273.743 288.608 273.542C288.764 272.102 288.213 269.132 287.993 268.554C287.519 267.309 254.231 269.491 254.231 269.491Z" fill="#FBD56F"/>
<path opacity="0.1" d="M254.231 269.491L252.547 268.554C252.547 268.554 251.759 271.84 252.017 274.182C252.042 274.42 252.14 274.644 252.297 274.824C252.453 275.004 252.662 275.132 252.894 275.19C256.768 276.152 275.235 280.25 287.934 274.478C288.118 274.394 288.277 274.263 288.395 274.099C288.513 273.935 288.587 273.743 288.608 273.542C288.764 272.102 288.213 269.132 287.993 268.554C287.519 267.309 254.231 269.491 254.231 269.491Z" fill="black"/>
<path d="M270.27 272.547C280.058 272.547 287.993 270.759 287.993 268.554C287.993 266.348 280.058 264.56 270.27 264.56C260.482 264.56 252.547 266.348 252.547 268.554C252.547 270.759 260.482 272.547 270.27 272.547Z" fill="#FBD56F"/>
<path d="M260.958 261.097L259.273 260.159C259.273 260.159 258.486 263.446 258.743 265.788C258.769 266.025 258.866 266.249 259.023 266.429C259.18 266.61 259.388 266.737 259.62 266.795C263.495 267.757 281.961 271.855 294.66 266.083C294.844 265.999 295.003 265.869 295.122 265.705C295.24 265.541 295.314 265.348 295.335 265.147C295.491 263.708 294.939 260.738 294.719 260.159C294.246 258.914 260.958 261.097 260.958 261.097Z" fill="#FBD56F"/>
<path opacity="0.1" d="M260.958 261.097L259.273 260.159C259.273 260.159 258.486 263.446 258.743 265.788C258.769 266.025 258.866 266.249 259.023 266.429C259.18 266.61 259.388 266.737 259.62 266.795C263.495 267.757 281.961 271.855 294.66 266.083C294.844 265.999 295.003 265.869 295.122 265.705C295.24 265.541 295.314 265.348 295.335 265.147C295.491 263.708 294.939 260.738 294.719 260.159C294.246 258.914 260.958 261.097 260.958 261.097Z" fill="black"/>
<path d="M276.996 264.153C286.784 264.153 294.719 262.365 294.719 260.159C294.719 257.954 286.784 256.166 276.996 256.166C267.208 256.166 259.273 257.954 259.273 260.159C259.273 262.365 267.208 264.153 276.996 264.153Z" fill="#FBD56F"/>
<path d="M264.278 251.132L262.594 250.195C262.594 250.195 261.806 253.481 262.063 255.823C262.089 256.061 262.187 256.285 262.343 256.465C262.5 256.645 262.709 256.773 262.94 256.831C266.815 257.793 285.282 261.891 297.98 256.119C298.165 256.035 298.324 255.904 298.442 255.74C298.56 255.576 298.634 255.384 298.655 255.183C298.811 253.744 298.26 250.774 298.04 250.195C297.566 248.95 264.278 251.132 264.278 251.132Z" fill="#FBD56F"/>
<path opacity="0.1" d="M264.278 251.132L262.594 250.195C262.594 250.195 261.806 253.481 262.063 255.823C262.089 256.061 262.187 256.285 262.343 256.465C262.5 256.645 262.709 256.773 262.94 256.831C266.815 257.793 285.282 261.891 297.98 256.119C298.165 256.035 298.324 255.904 298.442 255.74C298.56 255.576 298.634 255.384 298.655 255.183C298.811 253.744 298.26 250.774 298.04 250.195C297.566 248.95 264.278 251.132 264.278 251.132Z" fill="black"/>
<path d="M280.317 254.188C290.105 254.188 298.04 252.4 298.04 250.195C298.04 247.989 290.105 246.201 280.317 246.201C270.529 246.201 262.594 247.989 262.594 250.195C262.594 252.4 270.529 254.188 280.317 254.188Z" fill="#FBD56F"/>
<path d="M294.196 304.318L292.512 303.381C292.512 303.381 291.724 306.667 291.981 309.009C292.007 309.247 292.105 309.471 292.261 309.651C292.418 309.831 292.627 309.959 292.858 310.017C296.733 310.979 315.2 315.077 327.898 309.305C328.082 309.221 328.242 309.09 328.36 308.926C328.478 308.762 328.552 308.57 328.573 308.369C328.729 306.929 328.178 303.959 327.958 303.381C327.484 302.135 294.196 304.318 294.196 304.318Z" fill="#FBD56F"/>
<path opacity="0.1" d="M294.196 304.318L292.512 303.381C292.512 303.381 291.724 306.667 291.981 309.009C292.007 309.247 292.105 309.471 292.261 309.651C292.418 309.831 292.627 309.959 292.858 310.017C296.733 310.979 315.2 315.077 327.898 309.305C328.082 309.221 328.242 309.09 328.36 308.926C328.478 308.762 328.552 308.57 328.573 308.369C328.729 306.929 328.178 303.959 327.958 303.381C327.484 302.135 294.196 304.318 294.196 304.318Z" fill="black"/>
<path d="M310.231 307.375C320.019 307.375 327.954 305.586 327.954 303.381C327.954 301.175 320.019 299.387 310.231 299.387C300.443 299.387 292.508 301.175 292.508 303.381C292.508 305.586 300.443 307.375 310.231 307.375Z" fill="#FBD56F"/>
<path d="M300.184 296.574L298.5 295.637C298.5 295.637 297.712 298.923 297.97 301.265C297.995 301.502 298.093 301.727 298.25 301.907C298.406 302.087 298.615 302.215 298.847 302.273C302.721 303.235 321.188 307.333 333.887 301.561C334.071 301.477 334.23 301.346 334.348 301.182C334.467 301.018 334.54 300.826 334.562 300.625C334.717 299.185 334.166 296.215 333.946 295.637C333.472 294.391 300.184 296.574 300.184 296.574Z" fill="#FBD56F"/>
<path opacity="0.1" d="M300.184 296.574L298.5 295.637C298.5 295.637 297.712 298.923 297.97 301.265C297.995 301.502 298.093 301.727 298.25 301.907C298.406 302.087 298.615 302.215 298.847 302.273C302.721 303.235 321.188 307.333 333.887 301.561C334.071 301.477 334.23 301.346 334.348 301.182C334.467 301.018 334.54 300.826 334.562 300.625C334.717 299.185 334.166 296.215 333.946 295.637C333.472 294.391 300.184 296.574 300.184 296.574Z" fill="black"/>
<path d="M316.219 299.63C326.007 299.63 333.942 297.842 333.942 295.637C333.942 293.431 326.007 291.643 316.219 291.643C306.431 291.643 298.496 293.431 298.496 295.637C298.496 297.842 306.431 299.63 316.219 299.63Z" fill="#FBD56F"/>
<path d="M293.551 288.513L291.867 287.575C291.867 287.575 291.079 290.861 291.337 293.203C291.362 293.441 291.46 293.665 291.617 293.845C291.774 294.025 291.982 294.153 292.214 294.211C296.088 295.173 314.555 299.271 327.254 293.499C327.438 293.415 327.597 293.285 327.715 293.12C327.834 292.956 327.907 292.764 327.929 292.563C328.084 291.124 327.533 288.154 327.313 287.575C326.839 286.33 293.551 288.513 293.551 288.513Z" fill="#FBD56F"/>
<path opacity="0.1" d="M293.551 288.513L291.867 287.575C291.867 287.575 291.079 290.861 291.337 293.203C291.362 293.441 291.46 293.665 291.617 293.845C291.774 294.025 291.982 294.153 292.214 294.211C296.088 295.173 314.555 299.271 327.254 293.499C327.438 293.415 327.597 293.285 327.715 293.12C327.834 292.956 327.907 292.764 327.929 292.563C328.084 291.124 327.533 288.154 327.313 287.575C326.839 286.33 293.551 288.513 293.551 288.513Z" fill="black"/>
<path d="M309.59 291.569C319.378 291.569 327.313 289.781 327.313 287.575C327.313 285.369 319.378 283.581 309.59 283.581C299.802 283.581 291.867 285.369 291.867 287.575C291.867 289.781 299.802 291.569 309.59 291.569Z" fill="#FBD56F"/>
<path d="M308.465 282.043L306.781 281.105C306.781 281.105 305.993 284.392 306.251 286.734C306.276 286.971 306.374 287.195 306.531 287.375C306.688 287.556 306.896 287.683 307.128 287.741C311.003 288.703 329.469 292.801 342.168 287.029C342.352 286.945 342.511 286.815 342.63 286.651C342.748 286.487 342.821 286.294 342.843 286.093C342.999 284.654 342.447 281.684 342.227 281.105C341.754 279.86 308.465 282.043 308.465 282.043Z" fill="#FBD56F"/>
<path opacity="0.1" d="M308.465 282.043L306.781 281.105C306.781 281.105 305.993 284.392 306.251 286.734C306.276 286.971 306.374 287.195 306.531 287.375C306.688 287.556 306.896 287.683 307.128 287.741C311.003 288.703 329.469 292.801 342.168 287.029C342.352 286.945 342.511 286.815 342.63 286.651C342.748 286.487 342.821 286.294 342.843 286.093C342.999 284.654 342.447 281.684 342.227 281.105C341.754 279.86 308.465 282.043 308.465 282.043Z" fill="black"/>
<path d="M324.504 285.099C334.292 285.099 342.227 283.311 342.227 281.105C342.227 278.9 334.292 277.112 324.504 277.112C314.716 277.112 306.781 278.9 306.781 281.105C306.781 283.311 314.716 285.099 324.504 285.099Z" fill="#FBD56F"/>
<path d="M298.391 277.694L296.707 276.757C296.707 276.757 295.919 280.043 296.177 282.385C296.202 282.623 296.3 282.847 296.457 283.027C296.614 283.207 296.822 283.335 297.054 283.393C300.928 284.355 319.395 288.453 332.094 282.681C332.278 282.597 332.437 282.466 332.555 282.302C332.674 282.138 332.747 281.946 332.769 281.745C332.924 280.306 332.373 277.336 332.153 276.757C331.679 275.512 298.391 277.694 298.391 277.694Z" fill="#FBD56F"/>
<path opacity="0.1" d="M298.391 277.694L296.707 276.757C296.707 276.757 295.919 280.043 296.177 282.385C296.202 282.623 296.3 282.847 296.457 283.027C296.614 283.207 296.822 283.335 297.054 283.393C300.928 284.355 319.395 288.453 332.094 282.681C332.278 282.597 332.437 282.466 332.555 282.302C332.674 282.138 332.747 281.946 332.769 281.745C332.924 280.306 332.373 277.336 332.153 276.757C331.679 275.512 298.391 277.694 298.391 277.694Z" fill="black"/>
<path d="M314.426 280.75C324.214 280.75 332.149 278.962 332.149 276.757C332.149 274.551 324.214 272.763 314.426 272.763C304.638 272.763 296.703 274.551 296.703 276.757C296.703 278.962 304.638 280.75 314.426 280.75Z" fill="#FBD56F"/>
<path d="M305.118 269.3L303.434 268.362C303.434 268.362 302.646 271.649 302.903 273.991C302.929 274.228 303.026 274.452 303.183 274.633C303.34 274.813 303.548 274.941 303.78 274.999C307.655 275.96 326.121 280.058 338.82 274.286C339.004 274.202 339.163 274.072 339.282 273.908C339.4 273.744 339.474 273.552 339.495 273.35C339.651 271.911 339.099 268.941 338.879 268.362C338.406 267.117 305.118 269.3 305.118 269.3Z" fill="#FBD56F"/>
<path opacity="0.1" d="M305.118 269.3L303.434 268.362C303.434 268.362 302.646 271.649 302.903 273.991C302.929 274.228 303.026 274.452 303.183 274.633C303.34 274.813 303.548 274.941 303.78 274.999C307.655 275.96 326.121 280.058 338.82 274.286C339.004 274.202 339.163 274.072 339.282 273.908C339.4 273.744 339.474 273.552 339.495 273.35C339.651 271.911 339.099 268.941 338.879 268.362C338.406 267.117 305.118 269.3 305.118 269.3Z" fill="black"/>
<path d="M321.153 272.356C330.941 272.356 338.876 270.568 338.876 268.362C338.876 266.157 330.941 264.369 321.153 264.369C311.365 264.369 303.43 266.157 303.43 268.362C303.43 270.568 311.365 272.356 321.153 272.356Z" fill="#FBD56F"/>
<path d="M308.434 259.336L306.75 258.398C306.75 258.398 305.962 261.684 306.22 264.026C306.245 264.264 306.343 264.488 306.5 264.668C306.656 264.848 306.865 264.976 307.097 265.034C310.971 265.996 329.438 270.094 342.137 264.322C342.321 264.238 342.48 264.108 342.598 263.943C342.717 263.779 342.79 263.587 342.812 263.386C342.967 261.947 342.416 258.977 342.196 258.398C341.722 257.153 308.434 259.336 308.434 259.336Z" fill="#FBD56F"/>
<path opacity="0.1" d="M308.434 259.336L306.75 258.398C306.75 258.398 305.962 261.684 306.22 264.026C306.245 264.264 306.343 264.488 306.5 264.668C306.656 264.848 306.865 264.976 307.097 265.034C310.971 265.996 329.438 270.094 342.137 264.322C342.321 264.238 342.48 264.108 342.598 263.943C342.717 263.779 342.79 263.587 342.812 263.386C342.967 261.947 342.416 258.977 342.196 258.398C341.722 257.153 308.434 259.336 308.434 259.336Z" fill="black"/>
<path d="M324.473 262.392C334.261 262.392 342.196 260.604 342.196 258.398C342.196 256.193 334.261 254.405 324.473 254.405C314.685 254.405 306.75 256.193 306.75 258.398C306.75 260.604 314.685 262.392 324.473 262.392Z" fill="#FBD56F"/>
<path d="M415.258 327.823C412.791 327.736 412.703 326.78 409.531 325.129C407.741 324.197 405.022 321.491 402.995 319.313C402.833 319.138 402.676 318.968 402.524 318.802C403.06 318.79 403.364 318.784 403.364 318.784C403.364 318.784 402.571 311.831 403.276 310.18C403.98 308.529 403.452 298.708 403.452 298.708C403.452 298.708 403.892 291.233 403.099 289.495C402.306 287.757 403.364 276.632 403.364 276.632C403.364 276.632 404.068 270.027 404.245 256.555C404.421 243.084 396.491 242.649 396.491 242.649C396.491 242.649 395.434 242.568 393.829 242.415C393.675 242.4 393.512 242.384 393.348 242.368C394.387 240.193 394.993 238.564 394.993 238.564C394.993 238.564 393.672 225.962 393.319 223.789C392.967 221.617 390.852 212.665 390.852 212.665C390.852 212.665 389.355 208.841 388.474 206.146C387.593 203.452 384.949 200.323 384.949 200.323C384.949 200.323 380.192 190.937 378.87 189.546C378.257 188.901 377.397 188.088 376.651 187.401C376.517 187.277 376.389 187.16 376.264 187.046C376.463 186.066 376.569 185.07 376.579 184.071C376.579 184.071 371.645 179.204 371.293 177.987C370.94 176.77 366.271 172.251 366.271 172.251C366.271 172.251 363.627 167.384 360.632 167.297C359.217 167.216 357.797 167.259 356.389 167.425C357.004 165.149 357.732 162.764 358.385 160.717C358.458 160.489 358.529 160.267 358.6 160.048C360.994 158.43 362.872 156.158 364.012 153.504C364.075 153.362 364.131 153.22 364.188 153.077C364.22 153.078 364.251 153.083 364.283 153.083C364.407 153.081 364.531 153.07 364.654 153.049C365.64 152.88 366.475 151.767 366.02 150.888C366.049 150.938 366.091 150.978 366.142 151.006C366.192 151.034 366.25 151.048 366.307 151.046C366.636 151.035 367.037 150.559 367.114 150.141C367.127 150.069 367.135 149.995 367.146 149.923C367.16 149.832 367.175 149.741 367.185 149.65C367.196 149.564 367.202 149.478 367.209 149.392C367.217 149.304 367.224 149.215 367.228 149.126C367.232 149.043 367.235 148.96 367.236 148.877C367.238 148.781 367.238 148.685 367.236 148.59C367.234 148.513 367.234 148.436 367.23 148.36C367.224 148.243 367.215 148.127 367.204 148.011C367.2 147.963 367.199 147.915 367.193 147.868L367.192 147.875C367.141 147.4 367.046 146.931 366.909 146.473C366.422 144.858 365.4 143.255 365.794 141.615C365.798 141.598 365.806 141.582 365.811 141.564L365.811 141.567C366.139 140.295 367.241 139.37 367.915 138.233C367.979 138.124 368.036 138.012 368.091 137.9C368.101 137.88 368.114 137.86 368.124 137.839C368.164 137.755 368.198 137.668 368.234 137.581C368.257 137.526 368.282 137.471 368.303 137.415C368.332 137.339 368.355 137.262 368.38 137.185C368.403 137.115 368.426 137.046 368.446 136.975C368.465 136.907 368.48 136.838 368.497 136.769C368.517 136.686 368.536 136.603 368.552 136.519C368.563 136.459 368.572 136.399 368.582 136.338C368.597 136.243 368.61 136.148 368.62 136.053C368.626 136.001 368.63 135.949 368.634 135.897C368.642 135.79 368.648 135.684 368.651 135.576C368.652 135.534 368.652 135.491 368.652 135.448C368.653 135.331 368.65 135.213 368.643 135.096C368.641 135.061 368.64 135.026 368.637 134.991C368.628 134.866 368.615 134.742 368.599 134.617C368.597 134.599 368.596 134.581 368.593 134.563L368.592 134.568C368.443 133.476 368.007 132.443 367.33 131.573C366.559 130.655 365.584 129.929 364.483 129.453C363.383 128.977 362.186 128.764 360.989 128.831C360.327 128.905 359.659 128.918 358.995 128.867C357.888 128.705 356.953 128.003 356.071 127.324C353.611 125.43 351.151 123.536 348.691 121.641C347.868 120.926 346.924 120.365 345.902 119.984C344.859 119.664 343.609 119.775 342.837 120.536C341.455 121.899 342.333 124.245 341.779 126.094C341.298 127.694 339.751 128.779 338.15 129.32C336.549 129.861 334.835 129.98 333.19 130.371C332.701 130.45 332.242 130.661 331.863 130.981C331.437 131.498 331.23 132.161 331.286 132.828C331.276 134.465 331.669 136.08 332.432 137.528C332.743 138.119 333.12 138.715 333.451 139.32C333.478 139.37 333.505 139.42 333.531 139.47C333.568 139.539 333.605 139.609 333.641 139.678C333.698 139.791 333.752 139.905 333.804 140.018C333.827 140.067 333.847 140.117 333.868 140.166C333.903 140.246 333.935 140.327 333.967 140.408C333.986 140.459 334.006 140.511 334.024 140.562C334.057 140.657 334.087 140.753 334.114 140.848C334.29 141.41 334.306 142.01 334.161 142.581C333.908 143.515 333.178 144.235 332.535 144.965C332.01 145.535 331.636 146.228 331.448 146.98L331.445 146.996C331.409 147.171 331.402 147.351 331.425 147.528C331.428 147.55 331.43 147.572 331.435 147.593C331.443 147.633 331.454 147.672 331.467 147.71C331.477 147.737 331.489 147.764 331.502 147.79C331.515 147.821 331.53 147.852 331.548 147.88C331.579 147.929 331.617 147.973 331.66 148.013C331.679 148.029 331.7 148.044 331.721 148.058C331.757 148.085 331.795 148.108 331.834 148.128C331.859 148.14 331.883 148.151 331.91 148.161C331.968 148.183 332.029 148.199 332.09 148.21C332.108 148.214 332.122 148.219 332.14 148.222C332.234 148.234 332.329 148.238 332.424 148.234C332.451 148.233 332.481 148.229 332.509 148.227C332.6 148.22 332.691 148.209 332.78 148.193C332.813 148.187 332.845 148.182 332.879 148.175C333.009 148.148 333.146 148.115 333.295 148.069C333.79 147.919 334.271 147.729 334.735 147.5C334.734 147.553 334.731 147.605 334.731 147.658C334.731 147.749 334.731 147.845 334.739 147.936C334.764 149.641 335.086 151.328 335.691 152.921C336.636 155.405 338.221 157.594 340.286 159.267C340.26 159.418 340.232 159.568 340.202 159.72C339.777 161.804 338.889 163.895 338.341 163.733C337.805 163.614 337.257 163.554 336.707 163.554C336.541 163.549 336.38 163.547 336.227 163.546L336.226 163.546C335.729 163.488 335.226 163.488 334.729 163.546C334.506 163.561 334.283 163.53 334.073 163.455C332.649 163.007 331.136 162.922 329.671 163.208C326.625 163.832 321.99 164.974 320.72 166.341C318.781 168.427 315.962 170.425 312.79 179.117C312.79 179.117 311.204 184.418 309.971 185.114C310.242 184.973 310.522 184.847 310.808 184.738C310.644 185.025 310.418 185.272 310.147 185.461C310.594 185.233 311.058 185.04 311.534 184.883C310.572 190.545 311.997 206.743 311.997 206.743C311.997 206.743 310.852 209.536 312.349 211.187C313.24 212.169 313.723 213.699 313.971 214.782C313.901 214.89 313.829 215.003 313.754 215.119V215.121C312.961 216.35 311.9 217.952 311.204 218.836C309.971 220.4 310.323 225.354 310.323 225.354C310.323 225.354 310.059 227.701 309.178 228.57C308.297 229.439 308.473 232.655 308.473 232.655L306.182 241.085C306.182 241.085 304.067 242.997 304.067 243.866C304.067 244.735 302.393 247.169 302.393 247.169C302.393 247.169 299.838 251.341 302.393 250.732C303.325 250.46 304.199 250.02 304.973 249.436L304.972 249.498C304.968 249.651 304.965 249.806 304.963 249.964C304.89 254.508 305.385 260.901 308.737 260.901C313.935 260.901 327.328 267.072 327.328 267.072C330.059 269.158 333.759 268.462 333.759 268.462C333.759 268.462 327.239 274.981 327.416 277.675C327.592 280.369 323.715 284.802 323.715 284.802L311.733 308.181C311.8 309.81 312.089 311.422 312.592 312.973C312.535 313.023 312.476 313.07 312.42 313.121C307.816 317.326 307.415 325.65 307.415 325.65L306.358 329.909L322.394 336.949C322.394 336.949 343.187 337.383 346.799 336.427C350.412 335.471 349.619 331.473 344.861 330.691C340.103 329.909 338.958 327.823 337.372 326.867C336.302 326.222 332.503 322.054 330.145 319.412C330.109 319.371 330.077 319.335 330.041 319.295L330.588 316.264C331.645 315.742 333.231 310.528 333.231 310.528C333.231 310.528 333.231 308.442 334.288 307.833C335.345 307.225 337.548 300.967 337.548 300.967C337.548 300.967 342.306 293.058 342.041 292.015C341.777 290.972 345.478 285.671 345.478 285.671C345.478 285.671 351.733 279.587 351.469 278.501C351.205 277.414 356.491 271.852 356.491 271.852C358.401 270.394 359.993 268.562 361.169 266.467C361.645 266.39 362.156 266.309 362.695 266.218C369.613 265.085 381.11 263.035 382.394 262.465C384.156 261.683 383.804 265.16 383.099 268.115C382.394 271.07 381.866 285.236 382.659 287.061C383.451 288.887 383.099 291.842 383.099 291.842L382.042 307.746L382.747 311.136C382.747 311.136 380.368 313.048 381.337 314.178C382.306 315.308 381.425 320.175 381.425 320.175C381.508 320.144 381.607 320.114 381.718 320.084C381.633 320.275 381.552 320.471 381.48 320.677C380.114 324.569 380.896 330.952 380.896 330.952V335.993C380.896 335.993 405.302 336.427 410.676 336.427C416.051 336.427 423.452 333.82 423.892 331.734C424.333 329.648 417.725 327.91 415.258 327.823ZM345.844 237.344L344.245 237.478C344.775 237.401 345.309 237.356 345.844 237.344ZM355.591 170.633C355.815 169.628 356.086 168.546 356.386 167.437L355.591 170.633ZM358.605 239.781C357.081 240.384 355.384 240.386 353.858 239.786L353.848 239.781C353.848 239.781 353.936 233.697 354.641 231.177C355.346 228.657 356.315 224.05 356.315 224.05C356.315 224.05 357.108 217.706 357.901 214.838C358.693 211.969 361.777 195.978 363.363 194.935C364.949 193.892 365.83 195.717 365.83 195.717C365.83 195.717 366.067 195.712 366.464 195.668C366.539 195.835 366.623 196.012 366.717 196.2C368.597 199.998 374.112 207.798 374.112 207.798C375.748 208.807 377.134 210.174 378.165 211.796C379.663 214.316 380.103 220.226 380.103 220.226C380.103 220.226 383.451 233.35 385.037 235.175C385.83 236.088 385.478 236.632 384.928 236.946C383.805 237.561 382.85 238.443 382.148 239.514C381.922 239.872 381.683 240.265 381.44 240.684C380.834 240.543 380.291 240.398 379.839 240.245C375.522 238.796 360.984 238.738 358.605 239.781Z" fill="url(#paint0_linear)"/>
<path d="M380.32 331.003V336.002C380.32 336.002 404.201 336.433 409.46 336.433C414.719 336.433 421.961 333.847 422.392 331.779C422.823 329.71 416.357 327.987 413.943 327.9C411.529 327.814 411.443 326.866 408.339 325.229C406.587 324.305 403.927 321.621 401.944 319.461C400.415 317.794 399.287 316.438 399.287 316.438C399.287 316.438 386.441 316.179 382.734 318.248C381.88 318.725 381.291 319.659 380.891 320.814C379.554 324.674 380.32 331.003 380.32 331.003Z" fill="#434175"/>
<path opacity="0.1" d="M380.887 320.814C383.58 319.878 399.349 319.515 401.94 319.461C400.411 317.794 399.283 316.438 399.283 316.438C399.283 316.438 386.437 316.179 382.73 318.248C381.876 318.725 381.287 319.659 380.887 320.814Z" fill="black"/>
<path d="M311.605 241.112C311.605 241.112 312.104 241.414 312.999 241.954C313.161 242.05 313.335 242.157 313.521 242.269C314.088 242.612 314.77 243.021 315.547 243.489C326.383 250.017 355.94 267.712 357.557 267.571C357.982 267.535 359.256 267.344 361.015 267.057C361.48 266.982 361.98 266.901 362.508 266.811C369.277 265.687 380.526 263.655 381.784 263.089C383.508 262.314 383.163 265.761 382.473 268.692C381.784 271.622 381.266 285.67 382.042 287.48C382.818 289.29 382.473 292.22 382.473 292.22L381.439 307.992L382.128 311.353C382.128 311.353 379.801 313.249 380.749 314.369C381.697 315.49 380.835 320.316 380.835 320.316C383.594 319.282 402.302 318.937 402.302 318.937C402.302 318.937 401.526 312.042 402.216 310.405C402.906 308.767 402.389 299.028 402.389 299.028C402.389 299.028 402.82 291.617 402.044 289.893C401.268 288.169 402.302 277.138 402.302 277.138C402.302 277.138 402.992 270.588 403.165 257.229C403.337 243.87 395.578 243.439 395.578 243.439C395.578 243.439 394.543 243.358 392.972 243.207C389.9 242.912 384.779 242.348 381.358 241.605C380.657 241.461 379.964 241.277 379.283 241.056C375.059 239.618 360.834 239.561 358.506 240.595C357.016 241.193 355.352 241.195 353.861 240.6L353.85 240.595L352.04 237.665L334.747 239.139L332.914 239.296L315.89 240.747L314.72 240.847L311.605 241.112Z" fill="#565387"/>
<path opacity="0.1" d="M380.923 254.333C385.946 256.781 390.74 248.104 392.974 243.207C389.902 242.912 384.781 242.348 381.36 241.605C379.109 245.38 376.107 251.987 380.923 254.333Z" fill="black"/>
<path d="M365.837 195.693C365.942 196.286 366.147 196.856 366.445 197.379C368.285 201.145 373.682 208.879 373.682 208.879C375.287 209.884 376.643 211.239 377.648 212.844C379.114 215.343 379.545 221.204 379.545 221.204C379.545 221.204 382.821 234.218 384.373 236.028C385.148 236.933 384.804 237.472 384.266 237.784C383.163 238.396 382.229 239.271 381.545 240.33C379.284 243.963 375.675 251.17 380.752 253.644C387.649 257.005 394.115 239.389 394.115 239.389C394.115 239.389 392.822 226.892 392.477 224.737C392.132 222.583 390.063 213.706 390.063 213.706C390.063 213.706 388.597 209.914 387.735 207.242C386.873 204.57 384.286 201.468 384.286 201.468C384.286 201.468 379.631 192.16 378.338 190.781C377.738 190.141 376.896 189.334 376.167 188.654C375.324 187.866 374.63 187.247 374.63 187.247C374.63 187.247 365.75 193.625 365.837 195.693Z" fill="#FFB9C5"/>
<path d="M307.379 329.969L323.07 336.95C323.07 336.95 343.416 337.381 346.951 336.433C350.486 335.484 349.71 331.52 345.054 330.744C340.399 329.969 339.278 327.9 337.726 326.952C336.68 326.313 332.962 322.179 330.655 319.559C329.545 318.298 328.76 317.386 328.76 317.386C328.76 317.386 325.742 309.371 317.38 311.18C315.854 311.51 314.446 312.25 313.31 313.321C308.805 317.491 308.413 325.746 308.413 325.746L307.379 329.969Z" fill="#434175"/>
<path opacity="0.1" d="M313.52 242.269C314.087 242.612 314.768 243.021 315.546 243.489C326.381 250.017 355.938 267.712 357.556 267.571C357.98 267.535 359.254 267.344 361.013 267.057C361.478 266.982 361.979 266.901 362.506 266.811C362.527 266.778 362.546 266.745 362.565 266.713C363.433 265.197 364.097 263.573 364.539 261.883C366.35 254.988 357.383 249.731 357.383 249.731L355.487 248.257C353.331 244.629 337.813 241.199 337.813 241.199L335.813 239.856L334.745 239.139L334.464 238.951L332.037 237.32L319.88 238.182L316.27 240.502L315.889 240.747L314.549 241.609L313.52 242.269Z" fill="black"/>
<path opacity="0.1" d="M313.312 313.321C316.613 324.732 330.4 321.005 330.4 321.005L330.657 319.559C329.547 318.298 328.762 317.386 328.762 317.386C328.762 317.386 325.745 309.371 317.382 311.18C315.856 311.51 314.448 312.25 313.312 313.321Z" fill="black"/>
<path d="M309.711 261.538C314.798 261.538 327.902 267.657 327.902 267.657C330.575 269.726 334.196 269.036 334.196 269.036C334.196 269.036 327.816 275.5 327.989 278.172C328.161 280.844 324.368 285.239 324.368 285.239L312.643 308.423C313.505 324.884 330.403 320.316 330.403 320.316L331.092 316.438C332.127 315.921 333.679 310.75 333.679 310.75C333.679 310.75 333.679 308.681 334.713 308.078C335.748 307.475 337.903 301.269 337.903 301.269C337.903 301.269 342.559 293.427 342.3 292.392C342.042 291.358 345.663 286.101 345.663 286.101C345.663 286.101 351.784 280.068 351.525 278.991C351.266 277.913 356.439 272.397 356.439 272.397C358.313 270.947 359.871 269.13 361.017 267.057C361.885 265.542 362.549 263.918 362.992 262.228C364.45 256.676 358.919 252.184 356.71 250.648C356.175 250.276 355.836 250.076 355.836 250.076L353.939 248.602C352.96 246.951 349.215 245.342 345.423 244.079C342.688 243.167 339.928 242.434 338.164 241.995C336.996 241.705 336.265 241.543 336.265 241.543L334.265 240.201L333.562 239.728L332.917 239.296L330.489 237.665L325.08 238.048L318.333 238.527L314.722 240.847L313.001 241.954L306.263 246.283C306.263 246.283 306.085 247.942 306.028 250.167C306.025 250.339 306.021 250.513 306.018 250.693C305.947 255.198 306.432 261.538 309.711 261.538Z" fill="#565387"/>
<path d="M335.66 165.011L337.471 171.475C337.471 171.475 340.661 182.593 341.005 183.369C341.35 184.144 349.713 191.987 350.058 192.16C350.403 192.332 354.957 194.918 354.957 194.918C354.957 194.918 355.317 180.697 354.972 176.56C354.942 175.651 355.017 174.742 355.196 173.851C355.746 170.608 357.138 165.854 358.291 162.193C359.257 159.125 360.059 156.824 360.059 156.824C360.059 156.824 339.885 155.962 340.574 157.944C340.835 158.694 340.75 159.947 340.498 161.204C340.083 163.271 339.214 165.344 338.678 165.184C338.153 165.065 337.617 165.006 337.079 165.006C336.334 164.984 335.66 165.011 335.66 165.011Z" fill="#FFB9C5"/>
<path opacity="0.1" d="M340.496 161.204C342.961 163.26 346.023 164.467 349.229 164.645C352.434 164.824 355.611 163.964 358.289 162.193C359.254 159.125 360.056 156.824 360.056 156.824C360.056 156.824 339.882 155.962 340.572 157.944C340.832 158.694 340.748 159.947 340.496 161.204Z" fill="black"/>
<path d="M364.974 149.243C364.975 150.824 364.723 152.396 364.228 153.898C364.104 154.285 363.96 154.666 363.797 155.04C362.636 157.789 360.676 160.127 358.17 161.751C355.665 163.375 352.73 164.21 349.745 164.147C346.76 164.085 343.862 163.129 341.427 161.402C338.991 159.676 337.13 157.258 336.084 154.462C335.492 152.88 335.177 151.208 335.153 149.519C335.145 149.428 335.145 149.334 335.145 149.243C335.145 145.289 336.716 141.496 339.513 138.7C342.31 135.904 346.104 134.333 350.059 134.333C354.015 134.333 357.809 135.904 360.606 138.7C363.403 141.496 364.974 145.289 364.974 149.243H364.974Z" fill="#FFB9C5"/>
<path opacity="0.1" d="M335.66 165.011L337.471 171.475C337.471 171.475 340.661 182.593 341.005 183.369C341.35 184.144 349.713 191.987 350.058 192.159C350.403 192.332 354.957 194.917 354.957 194.917C354.957 194.917 355.317 180.697 354.972 176.56C354.942 175.651 355.017 174.742 355.196 173.85L354.024 178.628L354.11 188.195L354.8 188.712L353.248 191.039V189.315C353.248 189.315 347.73 183.972 346.868 181.731C346.006 179.49 342.902 175.433 342.902 175.433C342.902 175.433 339.367 169.493 339.281 168.459C339.214 167.652 337.729 165.787 337.079 165.006C336.334 164.984 335.66 165.011 335.66 165.011Z" fill="black"/>
<path opacity="0.1" d="M365.837 195.693C365.942 196.286 366.147 196.856 366.445 197.379C368.33 197.186 374.753 195.988 376.167 188.654C375.324 187.866 374.63 187.247 374.63 187.247C374.63 187.247 365.75 193.625 365.837 195.693Z" fill="black"/>
<path opacity="0.1" d="M306.016 250.693C307.755 249.462 309.411 247.783 310.399 247.318C311.864 246.628 314.106 244.387 314.106 244.387C314.106 244.387 314.675 244.001 315.547 243.489C317.148 242.552 319.77 241.193 321.779 241.026C323.579 240.876 329.559 240.494 334.263 240.201C337.666 239.987 340.401 239.82 340.401 239.82C340.401 239.82 346.005 237.837 348.419 239.13C350.148 239.996 351.97 240.661 353.85 241.112C353.85 241.112 353.852 240.925 353.861 240.6L353.85 240.595L352.04 237.665L332.914 239.296L330.487 237.665L318.33 238.527L314.72 240.847L311.606 241.112C311.606 241.112 312.104 241.414 312.999 241.954L306.26 246.284C306.26 246.284 306.054 248.209 306.016 250.693Z" fill="black"/>
<path d="M303.502 251.455C304.415 251.184 305.27 250.748 306.026 250.169V250.167C307.763 248.938 309.413 247.264 310.399 246.801C311.865 246.111 314.106 243.87 314.106 243.87C314.106 243.87 318.675 240.768 321.779 240.509C322.626 240.439 324.395 240.316 326.521 240.178C328.697 240.034 331.244 239.871 333.559 239.728C334.894 239.644 336.151 239.565 337.213 239.499C339.117 239.382 340.401 239.303 340.401 239.303C340.401 239.303 346.005 237.32 348.419 238.613C350.148 239.479 351.97 240.144 353.851 240.595C353.851 240.595 353.937 234.562 354.627 232.063C355.316 229.564 356.265 224.996 356.265 224.996C356.265 224.996 357.041 218.705 357.817 215.86C358.592 213.016 361.61 197.158 363.162 196.124C364.714 195.09 365.576 196.9 365.576 196.9C365.576 196.9 375.921 196.727 376.094 185.351C376.094 185.351 371.266 180.525 370.921 179.318C370.576 178.112 366.007 173.63 366.007 173.63C366.007 173.63 363.42 168.804 360.489 168.717C359.104 168.638 357.715 168.681 356.337 168.845L353.851 178.973L353.937 188.54L354.627 189.057L353.075 191.384V189.66C353.075 189.66 347.557 184.317 346.695 182.076C345.833 179.835 342.729 175.778 342.729 175.778C342.729 175.778 339.194 169.838 339.108 168.804C339.022 167.769 336.608 164.998 336.608 164.998C336.121 164.941 335.629 164.941 335.142 164.998C334.925 165.013 334.706 164.982 334.501 164.908C333.109 164.463 331.627 164.379 330.194 164.663C327.212 165.282 322.678 166.415 321.434 167.769C319.538 169.838 316.779 171.82 313.675 180.439L330.401 186.471L328.969 189.191L315.658 214.481C315.658 214.481 315.217 215.2 314.618 216.14V216.141C313.842 217.36 312.804 218.949 312.123 219.825C310.916 221.376 311.261 226.289 311.261 226.289C311.261 226.289 311.002 228.616 310.14 229.478C309.278 230.339 309.451 233.528 309.451 233.528L307.209 241.888C307.209 241.888 305.14 243.784 305.14 244.646C305.14 245.508 303.502 247.921 303.502 247.921C303.502 247.921 301.002 252.058 303.502 251.455Z" fill="#434175"/>
<path opacity="0.1" d="M391.784 257.66C391.784 257.66 386.353 259.47 384.887 262.055C383.422 264.641 391.784 257.66 391.784 257.66Z" fill="black"/>
<path opacity="0.1" d="M389.027 251.972C388.855 252.23 381.588 259.519 382.044 261.28C382.5 263.04 389.027 251.972 389.027 251.972Z" fill="black"/>
<path opacity="0.1" d="M349.111 257.143C349.111 257.143 341.007 260.963 340.317 262.63C339.627 264.296 349.111 257.143 349.111 257.143Z" fill="black"/>
<path opacity="0.1" d="M348.591 262.055C348.591 262.055 341.277 265.158 340.278 265.933C339.279 266.709 348.591 262.055 348.591 262.055Z" fill="black"/>
<path opacity="0.1" d="M345.23 268.691C345.23 268.691 341.991 271.104 340.205 269.208C338.419 267.312 345.23 268.691 345.23 268.691Z" fill="black"/>
<path opacity="0.1" d="M357.389 205.777C357.215 206.035 346.438 225.427 343.593 226.892C340.748 228.357 357.389 205.777 357.389 205.777Z" fill="black"/>
<path opacity="0.1" d="M356.87 213.102C356.87 213.533 346.352 236.027 344.628 236.286C342.904 236.545 356.87 213.102 356.87 213.102Z" fill="black"/>
<path opacity="0.1" d="M316.867 227.581C316.867 227.581 311.787 238.425 309.797 239.044C307.808 239.662 316.867 227.581 316.867 227.581Z" fill="black"/>
<path opacity="0.1" d="M316.004 222.755C316.004 222.755 314.253 226.547 313.189 226.547C312.124 226.547 316.004 222.755 316.004 222.755Z" fill="black"/>
<path opacity="0.1" d="M364.974 149.243C364.975 150.824 364.723 152.396 364.228 153.898C364.104 154.285 363.96 154.667 363.797 155.04C363.031 154.924 362.31 154.607 361.706 154.122C361.066 153.688 360.531 153.117 360.141 152.45C359.847 151.739 359.592 151.012 359.378 150.273C359.034 149.439 358.474 148.712 357.754 148.167C357.035 147.622 356.183 147.28 355.287 147.174C355.783 148.019 354.994 149.178 354.024 149.329C353.054 149.476 352.109 148.898 351.441 148.179C350.773 147.459 350.29 146.584 349.626 145.864C348.958 145.144 348.014 144.567 347.044 144.713C346.186 144.843 345.522 145.498 344.802 145.985C344.086 146.472 343.082 146.799 342.387 146.278C341.999 145.989 341.81 145.498 341.439 145.183C340.486 144.386 339.003 145.209 338.3 146.239C337.218 147.834 336.559 148.799 335.153 149.519C335.145 149.428 335.145 149.334 335.145 149.243C335.145 145.289 336.716 141.496 339.513 138.7C342.31 135.904 346.104 134.333 350.059 134.333C354.015 134.333 357.809 135.904 360.606 138.7C363.403 141.496 364.974 145.289 364.974 149.243Z" fill="black"/>
<path d="M338.302 145.808C339.004 144.777 340.486 143.953 341.442 144.754C341.812 145.065 342.002 145.557 342.388 145.848C343.081 146.37 344.087 146.043 344.804 145.554C345.521 145.065 346.186 144.413 347.044 144.283C348.014 144.135 348.96 144.713 349.626 145.433C350.292 146.154 350.775 147.028 351.442 147.748C352.108 148.468 353.054 149.046 354.024 148.897C354.994 148.749 355.785 147.588 355.287 146.743C356.183 146.849 357.034 147.192 357.753 147.736C358.472 148.281 359.033 149.008 359.377 149.842C359.591 150.581 359.846 151.307 360.141 152.018C360.531 152.685 361.067 153.256 361.708 153.689C362.499 154.268 363.458 154.757 364.424 154.589C365.39 154.421 366.208 153.314 365.759 152.442C366.068 152.911 366.731 152.258 366.831 151.706C367.05 150.494 366.982 149.248 366.632 148.068C366.156 146.466 365.156 144.877 365.541 143.251C365.846 141.963 366.947 141.039 367.615 139.897C368.8 137.872 368.485 135.144 367.045 133.292C366.296 132.385 365.344 131.666 364.266 131.194C363.188 130.721 362.014 130.509 360.839 130.573C360.191 130.647 359.538 130.66 358.888 130.61C357.806 130.449 356.89 129.753 356.028 129.079L348.806 123.444C348.003 122.736 347.078 122.179 346.077 121.8C345.056 121.484 343.833 121.593 343.077 122.348C341.725 123.7 342.585 126.026 342.042 127.859C341.572 129.447 340.058 130.522 338.491 131.059C336.924 131.595 335.248 131.713 333.638 132.101C333.158 132.18 332.709 132.389 332.339 132.705C331.921 133.22 331.719 133.877 331.775 134.538C331.764 136.159 332.149 137.759 332.896 139.198C333.732 140.806 335.057 142.458 334.588 144.209C334.34 145.135 333.626 145.849 332.997 146.573C331.632 148.142 331.171 150.46 333.739 149.65C336.213 148.87 336.907 147.859 338.302 145.808Z" fill="#434175"/>
<g opacity="0.1">
<path opacity="0.1" d="M366.832 150.006C366.732 150.559 366.069 151.212 365.76 150.743C366.209 151.615 365.391 152.722 364.425 152.89C363.458 153.058 362.5 152.569 361.708 151.989C361.068 151.557 360.532 150.986 360.141 150.319C359.847 149.608 359.592 148.881 359.378 148.142C359.034 147.309 358.473 146.582 357.754 146.037C357.035 145.492 356.183 145.15 355.287 145.044C355.786 145.889 354.995 147.049 354.025 147.198C353.055 147.346 352.109 146.769 351.442 146.048C350.776 145.328 350.293 144.454 349.627 143.734C348.961 143.014 348.015 142.436 347.045 142.583C346.187 142.714 345.521 143.366 344.805 143.855C344.088 144.343 343.082 144.671 342.389 144.149C342.003 143.858 341.813 143.366 341.442 143.055C340.487 142.254 339.005 143.078 338.303 144.109C336.907 146.16 336.214 147.171 333.74 147.951C332.928 148.207 332.42 148.149 332.147 147.902C331.604 149.148 331.851 150.246 333.74 149.65C336.214 148.87 336.907 147.859 338.303 145.808C339.005 144.777 340.487 143.953 341.442 144.754C341.813 145.065 342.003 145.557 342.389 145.848C343.082 146.37 344.088 146.042 344.805 145.554C345.521 145.065 346.187 144.413 347.045 144.282C348.015 144.135 348.961 144.713 349.627 145.433C350.293 146.154 350.776 147.027 351.442 147.748C352.109 148.468 353.055 149.045 354.025 148.897C354.995 148.749 355.786 147.588 355.287 146.743C356.183 146.849 357.035 147.192 357.754 147.736C358.473 148.281 359.034 149.008 359.378 149.842C359.592 150.58 359.847 151.307 360.141 152.018C360.532 152.685 361.068 153.256 361.708 153.688C362.5 154.268 363.458 154.757 364.425 154.589C365.391 154.421 366.209 153.314 365.76 152.442C366.069 152.911 366.732 152.258 366.832 151.705C366.966 150.962 366.992 150.202 366.91 149.451C366.89 149.637 366.865 149.822 366.832 150.006Z" fill="black"/>
<path opacity="0.1" d="M334.569 142.575C334.576 142.553 334.585 142.532 334.591 142.509C335.06 140.759 333.735 139.107 332.899 137.499C332.312 136.365 331.948 135.13 331.827 133.859C331.795 134.084 331.778 134.31 331.778 134.538C331.767 136.159 332.152 137.759 332.899 139.198C333.47 140.297 334.27 141.417 334.569 142.575Z" fill="black"/>
<path opacity="0.1" d="M367.62 138.197C366.951 139.34 365.851 140.264 365.546 141.552C365.428 142.097 365.433 142.661 365.561 143.203C365.882 141.941 366.96 141.024 367.62 139.897C368.242 138.792 368.476 137.511 368.284 136.258C368.19 136.941 367.964 137.6 367.62 138.197Z" fill="black"/>
</g>
<path opacity="0.1" d="M314.617 216.139V216.141C314.732 216.617 314.82 217.098 314.881 217.584C314.881 217.584 321.692 233.528 322.554 234.476C322.82 234.767 323.82 236.201 325.077 238.047C325.532 238.715 326.02 239.437 326.52 240.178C329.127 244.046 332.038 248.438 332.038 248.438L338.417 254.04C338.417 254.04 352.296 255.15 356.707 250.648C356.172 250.275 355.833 250.075 355.833 250.075L353.936 248.602C352.957 246.95 349.211 245.342 345.42 244.079C341.926 244.105 339.069 244.387 339.069 244.387L338.16 241.995L337.212 239.499L332.389 226.806C332.389 226.806 329.279 210.775 328.244 210C327.21 209.224 327.468 206.811 327.468 206.811C327.468 206.811 329.365 200.002 328.675 199.054C327.986 198.106 329.796 191.125 329.796 191.125C329.616 190.444 329.337 189.792 328.968 189.191L315.657 214.481C315.657 214.481 315.216 215.2 314.617 216.139Z" fill="black"/>
<path d="M329.967 190.608C329.967 190.608 328.157 197.589 328.846 198.537C329.536 199.485 327.639 206.294 327.639 206.294C327.639 206.294 327.381 208.707 328.415 209.483C329.45 210.258 332.56 226.289 332.56 226.289L339.24 243.87C339.24 243.87 360.142 241.802 357.987 248.352C355.831 254.902 338.589 253.523 338.589 253.523L332.209 247.921C332.209 247.921 323.587 234.907 322.725 233.959C321.863 233.011 315.052 217.067 315.052 217.067C315.052 217.067 314.707 213.878 313.242 212.24C311.776 210.603 312.897 207.833 312.897 207.833C312.897 207.833 311.086 186.988 312.983 184.489C314.88 181.99 327.984 183.11 329.967 190.608Z" fill="#FFB9C5"/>
<path opacity="0.1" d="M319.28 177.508L313.849 180.783C313.849 180.783 312.297 186.04 311.09 186.73C311.09 186.73 321.953 180.697 330.143 194.573C330.143 194.573 329.884 192.763 331.005 191.901C332.126 191.039 331.867 187.333 331.867 187.333C332.166 186.748 332.425 186.143 332.643 185.523C333.419 183.627 329.367 172.768 319.28 177.508Z" fill="black"/>
<path d="M319.104 177.163L313.673 180.438C313.673 180.438 312.121 185.696 310.914 186.385C310.914 186.385 321.777 180.352 329.967 194.228C329.967 194.228 329.709 192.418 330.829 191.556C331.95 190.694 331.692 186.988 331.692 186.988C331.99 186.403 332.249 185.798 332.468 185.179C333.243 183.283 329.191 172.423 319.104 177.163Z" fill="#434175"/>
<path d="M270.696 328.096C279.638 328.096 286.887 320.403 286.887 310.914C286.887 301.425 279.638 293.733 270.696 293.733C261.753 293.733 254.504 301.425 254.504 310.914C254.504 320.403 261.753 328.096 270.696 328.096Z" fill="#FBD56F"/>
<path opacity="0.1" d="M270.696 328.096C279.638 328.096 286.887 320.403 286.887 310.914C286.887 301.425 279.638 293.733 270.696 293.733C261.753 293.733 254.504 301.425 254.504 310.914C254.504 320.403 261.753 328.096 270.696 328.096Z" fill="black"/>
<path d="M273.489 328.096C282.431 328.096 289.681 320.575 289.681 311.297C289.681 302.019 282.431 294.499 273.489 294.499C264.546 294.499 257.297 302.019 257.297 311.297C257.297 320.575 264.546 328.096 273.489 328.096Z" fill="#FBD56F"/>
<path d="M38.8614 320.356C49.9061 320.356 58.8595 318.843 58.8595 316.977C58.8595 315.11 49.9061 313.597 38.8614 313.597C27.8167 313.597 18.8633 315.11 18.8633 316.977C18.8633 318.843 27.8167 320.356 38.8614 320.356Z" fill="#E30613"/>
<path d="M47.1327 311.448C47.9892 310.652 48.7926 309.714 49.0393 308.571C49.2861 307.429 48.7991 306.059 47.7071 305.642C46.4835 305.174 45.1759 306.022 44.1846 306.878C43.1933 307.734 42.0571 308.711 40.7597 308.53C41.4271 307.925 41.9264 307.158 42.209 306.303C42.4916 305.448 42.5478 304.535 42.3722 303.652C42.3153 303.287 42.1603 302.945 41.9238 302.661C41.2446 301.935 40.0132 302.247 39.1999 302.819C36.6135 304.637 35.8918 308.149 35.8778 311.31C35.6169 310.17 35.8366 308.982 35.8302 307.812C35.8237 306.643 35.5031 305.346 34.5161 304.718C33.9013 304.387 33.2098 304.225 32.5119 304.247C31.3493 304.204 30.0544 304.321 29.2604 305.171C28.2739 306.227 28.5297 307.999 29.388 309.162C30.2462 310.325 31.5517 311.053 32.7533 311.856C33.7173 312.43 34.5393 313.214 35.1584 314.15C35.2311 314.28 35.2908 314.417 35.3367 314.559H42.6253C44.2615 313.73 45.7777 312.684 47.1327 311.448Z" fill="#E30613"/>
<path d="M219.71 294.939C220.601 296.159 221.33 297.489 221.878 298.896C222.023 299.26 222.164 299.642 222.298 300.043C224.453 306.48 221.039 314.199 220.063 313.366C219.087 312.533 216.046 310.989 215.458 313.159C214.87 315.33 212.697 317.549 212.697 317.549C208.739 321.529 205.157 317.229 202.805 312.787C202.037 311.321 201.354 309.812 200.759 308.268C200.237 306.903 199.938 305.96 199.938 305.96L216.422 291.92C216.422 291.92 218.016 292.651 219.71 294.939Z" fill="#E30613"/>
<path d="M193.73 303.918C194.621 305.137 195.349 306.467 195.897 307.874C196.042 308.238 196.184 308.62 196.318 309.021C198.472 315.458 195.059 323.177 194.083 322.344C193.107 321.512 190.065 319.967 189.477 322.138C188.889 324.309 186.717 326.527 186.717 326.527C182.759 330.507 179.176 326.207 176.825 321.765C176.057 320.299 175.373 318.79 174.779 317.246C174.257 315.882 173.957 314.939 173.957 314.939L190.442 300.898C190.442 300.898 192.036 301.629 193.73 303.918Z" fill="#E30613"/>
<path d="M141.562 316.321C141.469 317.828 141.181 319.317 140.704 320.75C140.583 321.123 140.449 321.507 140.296 321.902C137.845 328.232 130.289 331.996 130.069 330.733C129.85 329.469 128.494 326.339 126.656 327.636C124.817 328.932 121.728 329.254 121.728 329.254C116.141 329.793 116.127 324.197 117.153 319.277C117.497 317.658 117.935 316.061 118.463 314.492C118.932 313.109 119.303 312.192 119.303 312.192L140.958 311.899C140.958 311.899 141.718 313.479 141.562 316.321Z" fill="#E30613"/>
<path d="M113.585 309.267C113.492 310.774 113.204 312.263 112.728 313.695C112.607 314.068 112.472 314.453 112.319 314.847C109.869 321.177 102.313 324.942 102.093 323.678C101.873 322.414 100.518 319.285 98.6791 320.581C96.8405 321.877 93.7515 322.199 93.7515 322.199C88.1639 322.738 88.1507 317.142 89.1764 312.222C89.5207 310.603 89.958 309.006 90.4862 307.438C90.9553 306.054 91.3264 305.137 91.3264 305.137L112.982 304.844C112.982 304.844 113.742 306.424 113.585 309.267Z" fill="#E30613"/>
<path opacity="0.2" d="M219.71 294.939C220.601 296.159 221.33 297.489 221.878 298.896C222.023 299.26 222.164 299.642 222.298 300.043C224.453 306.48 221.039 314.199 220.063 313.366C219.087 312.533 216.046 310.989 215.458 313.159C214.87 315.33 212.697 317.549 212.697 317.549C208.739 321.529 205.157 317.229 202.805 312.787C202.037 311.321 201.354 309.812 200.759 308.268C200.237 306.903 199.938 305.96 199.938 305.96L216.422 291.92C216.422 291.92 218.016 292.651 219.71 294.939Z" fill="black"/>
<path opacity="0.2" d="M193.73 303.918C194.621 305.137 195.349 306.467 195.897 307.874C196.042 308.238 196.184 308.62 196.318 309.021C198.472 315.458 195.059 323.177 194.083 322.344C193.107 321.512 190.065 319.967 189.477 322.138C188.889 324.309 186.717 326.527 186.717 326.527C182.759 330.507 179.176 326.207 176.825 321.765C176.057 320.299 175.373 318.79 174.779 317.246C174.257 315.882 173.957 314.939 173.957 314.939L190.442 300.898C190.442 300.898 192.036 301.629 193.73 303.918Z" fill="black"/>
<path opacity="0.2" d="M141.562 316.321C141.469 317.828 141.181 319.317 140.704 320.75C140.583 321.123 140.449 321.507 140.296 321.902C137.845 328.232 130.289 331.996 130.069 330.733C129.85 329.469 128.494 326.339 126.656 327.636C124.817 328.932 121.728 329.254 121.728 329.254C116.141 329.793 116.127 324.197 117.153 319.277C117.497 317.658 117.935 316.061 118.463 314.492C118.932 313.109 119.303 312.192 119.303 312.192L140.958 311.899C140.958 311.899 141.718 313.479 141.562 316.321Z" fill="black"/>
<path opacity="0.2" d="M113.585 309.267C113.492 310.774 113.204 312.263 112.728 313.695C112.607 314.068 112.472 314.453 112.319 314.847C109.869 321.177 102.313 324.942 102.093 323.678C101.873 322.414 100.518 319.285 98.6791 320.581C96.8405 321.877 93.7515 322.199 93.7515 322.199C88.1639 322.738 88.1507 317.142 89.1764 312.222C89.5207 310.603 89.958 309.006 90.4862 307.438C90.9553 306.054 91.3264 305.137 91.3264 305.137L112.982 304.844C112.982 304.844 113.742 306.424 113.585 309.267Z" fill="black"/>
<path d="M263.684 214.393C263.684 272.213 244.117 319.085 153.824 319.085C93.1498 319.085 46.2092 304.015 43.9639 214.393C42.5158 156.591 93.1498 109.701 153.824 109.701C214.498 109.701 263.684 156.573 263.684 214.393Z" fill="#E30613"/>
<path opacity="0.2" d="M133.215 111.529H133.229C133.225 111.531 133.222 111.532 133.218 111.532L133.215 111.529Z" fill="black"/>
<path opacity="0.2" d="M133.431 111.493C133.71 111.448 134.262 111.371 135.064 111.311L133.277 111.522C133.303 111.516 133.335 111.509 133.374 111.503C133.393 111.5 133.409 111.497 133.431 111.493Z" fill="black"/>
<path opacity="0.2" d="M214.61 154.271L206.591 157.157C202.503 151.677 198.105 146.435 193.418 141.458C188.302 136.003 182.72 131.005 176.735 126.519C156.203 111.307 140.323 110.919 135.078 111.311L147.132 109.893C158.525 111.853 169.481 115.812 179.494 121.587C186.499 125.624 193.023 130.442 198.941 135.949C209.436 145.688 214.61 154.271 214.61 154.271Z" fill="black"/>
<path opacity="0.2" d="M142.117 159.722C142.117 159.722 131.532 124.451 140.513 114.831C140.513 114.831 154.626 110.022 165.211 137.277L142.117 159.722Z" fill="black"/>
<path d="M195.715 126.779C195.715 126.779 223.785 102.933 236.203 107.297C236.203 107.297 246.274 118.289 225.548 138.918L195.715 126.779Z" fill="#E30613"/>
<path opacity="0.2" d="M195.715 126.779C195.715 126.779 223.785 102.933 236.203 107.297C236.203 107.297 246.274 118.289 225.548 138.918L195.715 126.779Z" fill="black"/>
<path d="M283.25 241.007C283.25 272.086 260.94 296.64 239.948 296.64C218.956 296.64 207.23 272.086 207.23 241.007C207.23 209.928 224.283 185.947 245.24 184.733C278.439 182.809 283.25 209.928 283.25 241.007Z" fill="#E30613"/>
<path opacity="0.2" d="M283.25 241.007C283.25 272.086 260.94 296.64 239.948 296.64C218.956 296.64 207.23 272.086 207.23 241.007C207.23 209.928 224.283 185.947 245.24 184.733C278.439 182.809 283.25 209.928 283.25 241.007Z" fill="black"/>
<path d="M238.666 254.635C242.563 254.635 245.723 250.615 245.723 245.656C245.723 240.698 242.563 236.678 238.666 236.678C234.769 236.678 231.609 240.698 231.609 245.656C231.609 250.615 234.769 254.635 238.666 254.635Z" fill="#E30613"/>
<path d="M263.686 246.939C267.583 246.939 270.742 242.92 270.742 237.961C270.742 233.003 267.583 228.983 263.686 228.983C259.788 228.983 256.629 233.003 256.629 237.961C256.629 242.92 259.788 246.939 263.686 246.939Z" fill="#E30613"/>
<path d="M200.306 130.158C200.311 132.169 199.842 134.153 198.937 135.949C197.742 138.336 195.803 140.269 193.413 141.458C188.297 136.003 182.715 131.005 176.73 126.519C177.264 124.687 178.207 123.001 179.489 121.587C180.594 120.356 181.946 119.369 183.457 118.693C184.967 118.016 186.603 117.664 188.259 117.659C194.911 117.659 200.306 123.255 200.306 130.158Z" fill="#FAD46F"/>
</g>
<defs>
<linearGradient id="paint0_linear" x1="362.586" y1="337.047" x2="362.586" y2="119.816" gradientUnits="userSpaceOnUse">
<stop stop-color="#808080" stop-opacity="0.25"/>
<stop offset="0.53514" stop-color="#808080" stop-opacity="0.12"/>
<stop offset="1" stop-color="#808080" stop-opacity="0.1"/>
</linearGradient>
<clipPath id="clip0">
<rect width="482" height="346" fill="white"/>
</clipPath>
</defs>
</svg>
