<svg width="350" height="270" viewBox="0 0 350 270" fill="none" xmlns="http://www.w3.org/2000/svg">
<g clip-path="url(#clip0)">
<path opacity="0.1" d="M341.52 182.955C341.206 183.184 340.918 183.407 340.61 183.624C339.476 184.427 338.289 185.152 337.058 185.793C330.604 189.2 322.649 190.864 314.901 191.994C297.524 194.531 279.783 195.024 262.116 195.507C214.383 196.82 166.534 198.129 118.916 195.105C100.103 193.912 80.875 191.916 63.8267 185.793C61.383 184.919 58.9874 183.954 56.6399 182.899C51.8895 180.761 47.3271 178.158 43.5331 175.05C39.9679 172.136 37.0768 168.79 35.3491 164.984C31.7463 157.06 33.6527 148.159 37.7667 140.392C39.4753 137.25 41.4021 134.232 43.5331 131.36C46.7094 126.986 50.2119 122.738 53.4071 118.368C64.7768 102.834 72.1957 83.1798 61.7008 67.2465C58.6843 62.669 54.3258 58.6504 51.8675 53.872C48.7319 47.7592 48.9733 40.9715 49.9705 34.3784C50.1001 33.5412 50.237 32.7123 50.3812 31.8919C52.0839 22.1152 55.2885 11.582 65.1688 5.47867C75.4316 -0.863252 90.0059 -0.543016 102.743 1.71119C122.55 5.25262 140.822 12.6243 159.287 19.2802C177.753 25.9361 197.071 32.0174 217.365 32.6705C235.285 33.2481 256.187 28.925 268.08 17.6884C279.632 6.77532 301.346 5.94333 316.996 12.5364C327.739 17.0605 335.753 25.2109 339.133 34.3784C339.818 36.2189 340.311 38.1253 340.604 40.0673C340.875 41.8421 340.963 43.64 340.867 45.4328C340.82 46.3182 340.729 47.1941 340.604 48.0606C337.989 66.1508 319.166 80.4201 307.724 96.5795C302.133 104.472 298.185 113.954 302.03 122.465C307.893 135.435 328.284 140.047 340.598 149.698C342.915 151.454 344.955 153.55 346.649 155.914C352.623 164.504 350.418 176.105 341.52 182.955Z" fill="#E30613"/>
<path d="M80.8922 101.992C80.8922 101.992 66.4684 76.3983 44.7323 69.0266C35.6108 65.931 27.6495 60.1102 22.2061 52.1546C19.6291 48.3774 17.4039 44.3712 15.5586 40.1865" stroke="#535461" stroke-width="2" stroke-miterlimit="10"/>
<path d="M1.89248 35.4487C4.36962 37.8442 15.9024 40.3559 15.9024 40.3559C15.9024 40.3559 13.0803 28.8902 10.5969 26.4821C9.40318 25.3503 7.81205 24.735 6.16837 24.7697C4.52468 24.8044 2.96086 25.4862 1.81579 26.6674C0.670723 27.8486 0.0366639 29.434 0.0510198 31.0801C0.0653757 32.7262 0.72699 34.3003 1.89248 35.4613V35.4487Z" fill="#E30613"/>
<path d="M8.41857 56.1982C11.8019 56.8701 22.8424 52.685 22.8424 52.685C22.8424 52.685 14.2351 44.5975 10.8487 43.9256C9.2392 43.6419 7.58275 44.0007 6.23432 44.9251C4.88589 45.8495 3.95278 47.2661 3.63496 48.8711C3.31715 50.4762 3.63992 52.142 4.5341 53.5116C5.42828 54.8813 6.82272 55.8457 8.41857 56.1982Z" fill="#E30613"/>
<path d="M32.1693 78.6587C35.4303 77.5284 42.8304 68.3389 42.8304 68.3389C42.8304 68.3389 31.329 65.7048 28.0711 66.8351C27.2717 67.0837 26.5303 67.4906 25.891 68.0316C25.2517 68.5727 24.7275 69.2368 24.3494 69.9845C23.9714 70.7323 23.7472 71.5485 23.6903 72.3847C23.6333 73.2209 23.7447 74.06 24.0178 74.8522C24.291 75.6445 24.7203 76.3737 25.2803 76.9966C25.8403 77.6196 26.5196 78.1235 27.2778 78.4785C28.0361 78.8336 28.8578 79.0325 29.6943 79.0634C30.5308 79.0943 31.365 78.9567 32.1473 78.6587H32.1693Z" fill="#E30613"/>
<path d="M53.9624 91.5907C57.3677 91.0255 66.2227 83.2237 66.2227 83.2237C66.2227 83.2237 55.3327 78.6807 51.9274 79.2427C50.292 79.5129 48.8308 80.4225 47.8653 81.7714C46.8997 83.1203 46.5089 84.798 46.7787 86.4355C47.0486 88.0729 47.957 89.536 49.3042 90.5027C50.6514 91.4695 52.327 91.8609 53.9624 91.5907Z" fill="#E30613"/>
<path d="M32.4501 43.7248C32.4501 47.1783 26.2102 57.2029 26.2102 57.2029C26.2102 57.2029 19.9578 47.1846 19.9547 43.731C19.936 42.8978 20.0839 42.0691 20.3895 41.2938C20.6951 40.5185 21.1523 39.8122 21.7343 39.2162C22.3163 38.6203 23.0113 38.1468 23.7786 37.8235C24.5459 37.5003 25.3699 37.3337 26.2024 37.3337C27.0348 37.3337 27.8589 37.5003 28.6262 37.8235C29.3935 38.1468 30.0885 38.6203 30.6705 39.2162C31.2525 39.8122 31.7097 40.5185 32.0153 41.2938C32.3209 42.0691 32.4687 42.8978 32.4501 43.731V43.7248Z" fill="#E30613"/>
<path d="M57.7477 59.1932C56.7161 62.4897 47.7639 70.1817 47.7639 70.1817C47.7639 70.1817 44.7914 58.738 45.8104 55.4257C46.3581 53.9092 47.4695 52.6629 48.9127 51.9469C50.3558 51.2309 52.0194 51.1005 53.5563 51.5828C55.0932 52.0651 56.3847 53.1229 57.1616 54.5356C57.9384 55.9483 58.1405 57.6067 57.7257 59.1649L57.7477 59.1932Z" fill="#E30613"/>
<path d="M80.2724 77.5755C79.8146 81.0008 72.2891 90.0961 72.2891 90.0961C72.2891 90.0961 67.4289 79.3336 67.8992 75.9084C68.1428 74.2837 69.0147 72.8201 70.3267 71.8335C71.6388 70.847 73.2857 70.4168 74.9119 70.6356C76.5381 70.8545 78.0131 71.705 79.0183 73.0034C80.0236 74.3019 80.4786 75.9441 80.2849 77.5755H80.2724Z" fill="#E30613"/>
<path opacity="0.25" d="M1.89248 35.4487C4.36962 37.8442 15.9024 40.3559 15.9024 40.3559C15.9024 40.3559 13.0803 28.8902 10.5969 26.4821C9.40318 25.3503 7.81205 24.735 6.16837 24.7697C4.52468 24.8044 2.96086 25.4862 1.81579 26.6674C0.670723 27.8486 0.0366639 29.434 0.0510198 31.0801C0.0653757 32.7262 0.72699 34.3003 1.89248 35.4613V35.4487Z" fill="black"/>
<path opacity="0.25" d="M8.41857 56.1982C11.8019 56.8701 22.8424 52.685 22.8424 52.685C22.8424 52.685 14.2351 44.5975 10.8487 43.9256C9.2392 43.6419 7.58275 44.0007 6.23432 44.9251C4.88589 45.8495 3.95278 47.2661 3.63496 48.8711C3.31715 50.4762 3.63992 52.142 4.5341 53.5116C5.42828 54.8813 6.82272 55.8457 8.41857 56.1982Z" fill="black"/>
<path opacity="0.25" d="M32.1693 78.6587C35.4303 77.5284 42.8304 68.3389 42.8304 68.3389C42.8304 68.3389 31.329 65.7048 28.0711 66.8351C27.2717 67.0837 26.5303 67.4906 25.891 68.0316C25.2517 68.5727 24.7275 69.2368 24.3494 69.9845C23.9714 70.7323 23.7472 71.5485 23.6903 72.3847C23.6333 73.2209 23.7447 74.06 24.0178 74.8522C24.291 75.6445 24.7203 76.3737 25.2803 76.9966C25.8403 77.6196 26.5196 78.1235 27.2778 78.4785C28.0361 78.8336 28.8578 79.0325 29.6943 79.0634C30.5308 79.0943 31.365 78.9567 32.1473 78.6587H32.1693Z" fill="black"/>
<path opacity="0.25" d="M53.9624 91.5907C57.3677 91.0255 66.2227 83.2237 66.2227 83.2237C66.2227 83.2237 55.3327 78.6807 51.9274 79.2427C50.292 79.5129 48.8308 80.4225 47.8653 81.7714C46.8997 83.1203 46.5089 84.798 46.7787 86.4355C47.0486 88.0729 47.957 89.536 49.3042 90.5027C50.6514 91.4695 52.327 91.8609 53.9624 91.5907Z" fill="black"/>
<path opacity="0.25" d="M32.4501 43.7248C32.4501 47.1783 26.2102 57.2029 26.2102 57.2029C26.2102 57.2029 19.9578 47.1846 19.9547 43.731C19.936 42.8978 20.0839 42.0691 20.3895 41.2938C20.6951 40.5185 21.1523 39.8122 21.7343 39.2162C22.3163 38.6203 23.0113 38.1468 23.7786 37.8235C24.5459 37.5003 25.3699 37.3337 26.2024 37.3337C27.0348 37.3337 27.8589 37.5003 28.6262 37.8235C29.3935 38.1468 30.0885 38.6203 30.6705 39.2162C31.2525 39.8122 31.7097 40.5185 32.0153 41.2938C32.3209 42.0691 32.4687 42.8978 32.4501 43.731V43.7248Z" fill="black"/>
<path opacity="0.25" d="M57.7477 59.1932C56.7161 62.4897 47.7639 70.1817 47.7639 70.1817C47.7639 70.1817 44.7914 58.738 45.8104 55.4257C46.3581 53.9092 47.4695 52.6629 48.9127 51.9469C50.3558 51.2309 52.0194 51.1005 53.5563 51.5828C55.0932 52.0651 56.3847 53.1229 57.1616 54.5356C57.9384 55.9483 58.1405 57.6067 57.7257 59.1649L57.7477 59.1932Z" fill="black"/>
<path opacity="0.25" d="M80.2724 77.5755C79.8146 81.0008 72.2891 90.0961 72.2891 90.0961C72.2891 90.0961 67.4289 79.3336 67.8992 75.9084C68.1428 74.2837 69.0147 72.8201 70.3267 71.8335C71.6388 70.847 73.2857 70.4168 74.9119 70.6356C76.5381 70.8545 78.0131 71.705 79.0183 73.0034C80.0236 74.3019 80.4786 75.9441 80.2849 77.5755H80.2724Z" fill="black"/>
<path d="M80.0629 101.483C80.0629 101.483 77.2408 72.2287 60.3462 56.669C53.2628 50.1387 48.3399 41.5991 46.5808 32.105C45.7551 27.6051 45.3437 23.0388 45.3517 18.4636" stroke="#535461" stroke-width="2" stroke-miterlimit="10"/>
<path d="M34.7707 8.59605C36.0626 11.8016 45.598 18.7557 45.598 18.7557C45.598 18.7557 47.6518 7.1236 46.3631 3.9181C45.7435 2.37767 44.5382 1.14676 43.0122 0.49615C41.4862 -0.154455 39.7646 -0.17146 38.2261 0.448876C36.6877 1.06921 35.4583 2.27607 34.8085 3.80396C34.1587 5.33186 34.1417 7.05562 34.7613 8.59605H34.7707Z" fill="#E30613"/>
<path d="M32.3275 30.2121C35.1496 32.1994 46.9301 32.8493 46.9301 32.8493C46.9301 32.8493 42.3615 21.9676 39.5394 19.9802C38.1843 19.0227 36.5048 18.6433 34.8703 18.9256C33.2359 19.208 31.7804 20.1288 30.824 21.4857C29.8677 22.8425 29.4888 24.5241 29.7707 26.1607C30.0527 27.7972 30.9724 29.2545 32.3275 30.2121Z" fill="#E30613"/>
<path d="M44.9652 60.3769C48.4143 60.6689 58.8998 55.272 58.8998 55.272C58.8998 55.272 49.4522 48.1985 46.0124 47.9097C45.1848 47.8214 44.3479 47.8996 43.5509 48.1397C42.7538 48.3797 42.0127 48.7768 41.371 49.3075C40.7293 49.8382 40.1999 50.492 39.814 51.2303C39.428 51.9687 39.1933 52.7768 39.1236 53.6072C39.0538 54.4377 39.1504 55.2737 39.4077 56.0662C39.6651 56.8588 40.0779 57.5919 40.6221 58.2225C41.1662 58.8531 41.8307 59.3685 42.5765 59.7384C43.3223 60.1084 44.1344 60.3255 44.9652 60.3769Z" fill="#E30613"/>
<path d="M59.6523 81.0477C62.9949 81.9142 74.2486 78.3728 74.2486 78.3728C74.2486 78.3728 66.1305 69.8017 62.791 68.9352C61.197 68.5485 59.515 68.8048 58.108 69.6488C56.701 70.4928 55.6818 71.8568 55.2702 73.4465C54.8587 75.0362 55.0879 76.7241 55.9082 78.1462C56.7286 79.5682 58.0745 80.6103 59.6554 81.0477H59.6523Z" fill="#E30613"/>
<path d="M59.3551 28.5605C57.9598 31.7189 48.1955 38.3465 48.1955 38.3465C48.1955 38.3465 46.5336 26.6548 47.929 23.4933C48.2521 22.7283 48.7241 22.0355 49.3175 21.4551C49.9108 20.8748 50.6136 20.4185 51.3849 20.1129C52.1562 19.8072 52.9805 19.6584 53.8098 19.6751C54.6391 19.6917 55.4568 19.8735 56.2153 20.2099C56.9737 20.5462 57.6576 21.0304 58.2272 21.6341C58.7969 22.2379 59.2407 22.9491 59.533 23.7264C59.8253 24.5036 59.96 25.3314 59.9295 26.1613C59.899 26.9913 59.7037 27.8069 59.3551 28.5605Z" fill="#E30613"/>
<path d="M76.2264 52.9488C73.9499 55.5452 62.6523 58.9454 62.6523 58.9454C62.6523 58.9454 64.5588 47.2913 66.8384 44.6949C67.3797 44.0777 68.037 43.5733 68.773 43.2104C69.509 42.8476 70.3091 42.6335 71.1278 42.5803C71.9464 42.5271 72.7674 42.6358 73.5441 42.9003C74.3207 43.1649 75.0377 43.5799 75.6542 44.1219C76.2706 44.6639 76.7744 45.3221 77.1367 46.059C77.4991 46.7959 77.7129 47.597 77.7661 48.4167C77.8192 49.2363 77.7106 50.0584 77.4464 50.8361C77.1822 51.6137 76.7677 52.3316 76.2264 52.9488Z" fill="#E30613"/>
<path d="M89.3949 78.9099C87.5888 81.8548 77.028 87.1167 77.028 87.1167C77.028 87.1167 76.9402 75.3056 78.7464 72.3607C79.6137 70.9452 81.0072 69.9326 82.6202 69.5458C84.2332 69.159 85.9336 69.4295 87.3473 70.298C88.7611 71.1665 89.7724 72.5617 90.1587 74.1767C90.5451 75.7918 90.2748 77.4943 89.4074 78.9099H89.3949Z" fill="#E30613"/>
<path opacity="0.1" d="M127.983 267.397C147.297 267.397 162.955 265.356 162.955 262.838C162.955 260.321 147.297 258.28 127.983 258.28C108.669 258.28 93.0117 260.321 93.0117 262.838C93.0117 265.356 108.669 267.397 127.983 267.397Z" fill="#E30613"/>
<path opacity="0.1" d="M57.3422 264.308C63.2094 264.308 67.9657 263.492 67.9657 262.487C67.9657 261.481 63.2094 260.666 57.3422 260.666C51.475 260.666 46.7188 261.481 46.7188 262.487C46.7188 263.492 51.475 264.308 57.3422 264.308Z" fill="#E30613"/>
<path d="M59.6515 242.211C59.6515 242.211 61.373 244.469 58.8551 247.863C56.3372 251.256 54.2614 254.142 55.0923 256.267C55.0923 256.267 58.8896 249.941 61.9907 249.853C65.0918 249.765 63.0568 246.017 59.6515 242.211Z" fill="#E30613"/>
<path opacity="0.1" d="M59.6485 242.211C59.7989 242.43 59.9172 242.669 59.9997 242.921C63.0162 246.469 64.6247 249.781 61.7243 249.863C59.0245 249.941 55.7823 254.776 55.0078 255.997C55.0334 256.092 55.0637 256.185 55.0987 256.277C55.0987 256.277 58.896 249.95 61.9971 249.863C65.0982 249.775 63.0538 246.017 59.6485 242.211Z" fill="black"/>
<path d="M62.8513 245.087C62.8513 245.882 62.7635 246.525 62.6538 246.525C62.5441 246.525 62.4531 245.897 62.4531 245.087C62.4531 244.277 62.566 244.667 62.6757 244.667C62.7855 244.667 62.8513 244.293 62.8513 245.087Z" fill="#FFD037"/>
<path d="M63.9513 246.035C63.2552 246.415 62.6469 246.645 62.5936 246.547C62.5403 246.45 63.0639 246.064 63.76 245.684C64.4561 245.304 64.1802 245.58 64.2335 245.684C64.2868 245.787 64.6474 245.656 63.9513 246.035Z" fill="#FFD037"/>
<path d="M50.5516 242.211C50.5516 242.211 48.8302 244.469 51.3481 247.863C53.8659 251.256 55.9417 254.142 55.1108 256.267C55.1108 256.267 51.3136 249.941 48.2124 249.853C45.1113 249.765 47.1526 246.017 50.5516 242.211Z" fill="#E30613"/>
<path opacity="0.1" d="M50.5506 242.211C50.4002 242.43 50.282 242.669 50.1994 242.921C47.183 246.469 45.5744 249.781 48.4748 249.863C51.1777 249.941 54.4168 254.776 55.1913 255.997C55.1672 256.092 55.1368 256.186 55.1004 256.277C55.1004 256.277 51.3032 249.95 48.202 249.863C45.1009 249.775 47.1516 246.017 50.5506 242.211Z" fill="black"/>
<path d="M47.3516 245.087C47.3516 245.882 47.4394 246.525 47.5491 246.525C47.6588 246.525 47.7498 245.897 47.7498 245.087C47.7498 244.277 47.6369 244.667 47.5272 244.667C47.4174 244.667 47.3516 244.293 47.3516 245.087Z" fill="#FFD037"/>
<path d="M46.2525 246.035C46.9486 246.415 47.5537 246.645 47.607 246.547C47.6603 246.45 47.1367 246.064 46.4406 245.684C45.7445 245.304 46.0204 245.58 45.9671 245.684C45.9138 245.787 45.5564 245.656 46.2525 246.035Z" fill="#FFD037"/>
<path d="M47.8984 255.981C47.8984 255.981 52.7147 255.831 54.1697 254.798C55.6246 253.765 61.576 252.525 61.9366 254.186C62.2972 255.846 69.1736 262.44 63.7364 262.483C58.2993 262.527 51.103 261.636 49.6544 260.754C48.2057 259.871 47.8984 255.981 47.8984 255.981Z" fill="#A8A8A8"/>
<path opacity="0.2" d="M63.8305 261.906C58.3933 261.95 51.1971 261.058 49.7484 260.176C48.6447 259.501 48.2057 257.087 48.0584 255.975H47.8984C47.8984 255.975 48.212 259.862 49.6512 260.747C51.0905 261.633 58.2961 262.521 63.7333 262.477C65.3011 262.477 65.8467 261.906 65.8153 261.077C65.599 261.586 65.0001 261.897 63.8305 261.906Z" fill="black"/>
<path d="M208.735 255.796C208.735 255.796 195.478 254.996 197.042 264.298C197.042 264.298 196.729 265.94 198.218 266.687C198.218 266.687 198.243 266 199.579 266.232C200.054 266.312 200.538 266.336 201.018 266.301C201.67 266.258 202.289 266.002 202.781 265.573C202.781 265.573 206.506 264.035 207.954 257.934C207.954 257.934 209.027 256.603 208.986 256.261L206.747 257.203C206.747 257.203 207.512 258.82 206.91 260.163C206.91 260.163 206.838 257.262 206.408 257.338C206.321 257.338 205.245 257.897 205.245 257.897C205.245 257.897 206.562 260.722 205.559 262.757C205.559 262.757 205.935 259.303 204.825 258.101L203.257 259.021C203.257 259.021 204.794 261.928 203.753 264.301C203.753 264.301 204.019 260.663 202.928 259.244L201.501 260.358C201.501 260.358 202.944 263.225 202.063 265.193C202.063 265.193 201.95 260.958 201.191 260.638C201.191 260.638 199.937 261.74 199.752 262.207C199.752 262.207 200.739 264.286 200.128 265.385C200.128 265.385 199.752 262.559 199.441 262.559C199.441 262.559 198.187 264.443 198.068 265.698C198.068 265.698 198.124 263.793 199.14 262.367C198.423 262.504 197.761 262.848 197.237 263.356C197.237 263.356 197.431 262.035 199.432 261.918C199.432 261.918 200.46 260.499 200.736 260.415C200.736 260.415 198.729 260.245 197.513 260.785C197.513 260.785 198.582 259.529 201.103 260.104L202.511 258.955C202.511 258.955 199.871 258.591 198.748 258.992C198.748 258.992 200.04 257.887 202.89 258.678L204.427 257.762C204.427 257.762 202.172 257.275 200.83 257.448C200.83 257.448 202.247 256.682 204.875 257.511L205.973 257.018C205.973 257.018 204.32 256.704 203.837 256.644C203.354 256.584 203.329 256.459 203.329 256.459C204.375 256.284 205.449 256.404 206.43 256.804C206.43 256.804 208.776 255.944 208.735 255.796Z" fill="#E30613"/>
<path opacity="0.1" d="M199.604 269.086C204.786 269.086 208.986 268.375 208.986 267.498C208.986 266.62 204.786 265.909 199.604 265.909C194.423 265.909 190.223 266.62 190.223 267.498C190.223 268.375 194.423 269.086 199.604 269.086Z" fill="#E30613"/>
<path d="M185.51 256.292C185.51 256.292 178.035 255.84 178.925 261.087C178.88 261.353 178.92 261.626 179.04 261.868C179.159 262.11 179.352 262.308 179.59 262.434C179.59 262.434 179.59 262.044 180.358 262.176C180.626 262.22 180.897 262.233 181.167 262.217C181.534 262.19 181.882 262.046 182.161 261.806C182.161 261.806 184.262 260.936 185.08 257.498C185.08 257.498 185.682 256.748 185.661 256.556L184.406 257.093C184.406 257.093 184.836 258.007 184.497 258.763C184.497 258.763 184.456 257.128 184.215 257.165C184.165 257.165 183.56 257.479 183.56 257.479C183.56 257.479 184.3 259.049 183.742 260.22C183.742 260.22 183.952 258.264 183.328 257.592L182.44 258.113C182.44 258.113 183.306 259.752 182.719 261.09C182.719 261.09 182.87 259.036 182.252 258.239L181.449 258.867C181.449 258.867 182.262 260.484 181.763 261.592C181.763 261.592 181.697 259.203 181.271 259.024C180.965 259.282 180.693 259.576 180.459 259.9C180.459 259.9 181.017 261.074 180.672 261.693C180.672 261.693 180.459 260.101 180.286 260.095C180.286 260.095 179.584 261.149 179.512 261.872C179.543 261.202 179.751 260.552 180.114 259.988C179.71 260.064 179.337 260.257 179.041 260.544C179.041 260.544 179.151 259.796 180.296 259.733C180.296 259.733 180.872 258.933 181.029 258.886C181.029 258.886 179.897 258.788 179.211 259.093C179.211 259.093 179.816 258.39 181.236 258.71L182.029 258.06C182.029 258.06 180.54 257.856 179.91 258.082C179.91 258.082 180.637 257.454 182.246 257.913L183.108 257.398C182.444 257.25 181.763 257.191 181.083 257.222C181.083 257.222 181.882 256.792 183.362 257.256L183.989 256.98C183.989 256.98 183.049 256.795 182.788 256.767C182.528 256.738 182.5 256.663 182.5 256.663C183.09 256.565 183.695 256.632 184.25 256.858C184.25 256.858 185.532 256.377 185.51 256.292Z" fill="#E30613"/>
<path opacity="0.1" d="M180.364 263.786C183.285 263.786 185.654 263.386 185.654 262.892C185.654 262.397 183.285 261.997 180.364 261.997C177.443 261.997 175.074 262.397 175.074 262.892C175.074 263.386 177.443 263.786 180.364 263.786Z" fill="#E30613"/>
<path d="M199.737 245.175C199.737 245.175 190.715 244.629 191.778 250.961C191.724 251.283 191.772 251.613 191.916 251.905C192.06 252.197 192.293 252.436 192.581 252.588C192.581 252.588 192.581 252.12 193.506 252.274C193.83 252.325 194.158 252.341 194.485 252.321C194.928 252.289 195.349 252.115 195.685 251.825C195.685 251.825 198.222 250.776 199.207 246.622C199.207 246.622 199.937 245.718 199.909 245.486L198.385 246.136C198.385 246.136 198.906 247.238 198.498 248.151C198.498 248.151 198.448 246.177 198.153 246.224C198.097 246.224 197.363 246.604 197.363 246.604C197.363 246.604 198.26 248.522 197.583 249.913C197.583 249.913 197.84 247.552 197.084 246.742L196.012 247.37C196.012 247.37 197.059 249.348 196.35 250.965C196.35 250.965 196.532 248.487 195.786 247.511L194.814 248.268C194.814 248.268 195.798 250.217 195.199 251.558C195.199 251.558 195.121 248.676 194.604 248.456C194.604 248.456 193.754 249.206 193.625 249.514C193.625 249.514 194.299 250.93 193.879 251.677C193.879 251.677 193.625 249.759 193.415 249.75C193.415 249.75 192.569 251.005 192.475 251.894C192.515 251.088 192.766 250.306 193.202 249.627C192.714 249.72 192.264 249.953 191.907 250.299C191.907 250.299 192.039 249.398 193.412 249.319C193.412 249.319 194.111 248.356 194.3 248.296C194.3 248.296 192.932 248.183 192.105 248.55C192.105 248.55 192.832 247.699 194.55 248.086L195.51 247.304C195.51 247.304 193.71 247.056 192.948 247.329C192.948 247.329 193.826 246.579 195.77 247.125L196.814 246.497C196.814 246.497 195.281 246.183 194.368 246.287C194.368 246.287 195.331 245.765 197.122 246.327L197.868 245.995C197.868 245.995 196.742 245.772 196.413 245.737C196.084 245.703 196.068 245.612 196.068 245.612C196.78 245.493 197.51 245.575 198.178 245.847C198.178 245.847 199.768 245.276 199.737 245.175Z" fill="#E30613"/>
<path opacity="0.1" d="M193.524 254.22C197.052 254.22 199.911 253.737 199.911 253.14C199.911 252.544 197.052 252.06 193.524 252.06C189.996 252.06 187.137 252.544 187.137 253.14C187.137 253.737 189.996 254.22 193.524 254.22Z" fill="#E30613"/>
<path d="M341.185 183.561V29.9956H42.8789V174.752C46.6887 177.935 51.2698 180.613 56.0485 182.814C58.4023 183.9 60.8062 184.893 63.2604 185.793H337.626L341.185 183.561Z" fill="url(#paint0_linear)"/>
<path d="M340.608 183.624V34.3911H43.5312V175.075C47.3253 178.171 51.8877 180.773 56.6381 182.924C58.9835 183.971 61.3791 184.936 63.8249 185.819H337.056L340.608 183.624Z" fill="white"/>
<path d="M340.609 30.4321H43.5352V38.325H340.609V30.4321Z" fill="#5A5773"/>
<path d="M49.4678 36.4188C50.5935 36.4188 51.506 35.5052 51.506 34.3781C51.506 33.2511 50.5935 32.3374 49.4678 32.3374C48.3422 32.3374 47.4297 33.2511 47.4297 34.3781C47.4297 35.5052 48.3422 36.4188 49.4678 36.4188Z" fill="white"/>
<path d="M54.9561 36.4188C56.0817 36.4188 56.9942 35.5052 56.9942 34.3781C56.9942 33.2511 56.0817 32.3374 54.9561 32.3374C53.8305 32.3374 52.918 33.2511 52.918 34.3781C52.918 35.5052 53.8305 36.4188 54.9561 36.4188Z" fill="white"/>
<path d="M60.4405 36.4188C61.5661 36.4188 62.4786 35.5052 62.4786 34.3781C62.4786 33.2511 61.5661 32.3374 60.4405 32.3374C59.3149 32.3374 58.4023 33.2511 58.4023 34.3781C58.4023 35.5052 59.3149 36.4188 60.4405 36.4188Z" fill="white"/>
<path d="M168.522 55.6709H119.449V86.5454H168.522V55.6709Z" fill="#E30613"/>
<path opacity="0.2" d="M100.576 55.6709H51.5039V86.5454H100.576V55.6709Z" fill="#5A5773"/>
<path opacity="0.2" d="M236.467 55.6709H187.395V86.5454H236.467V55.6709Z" fill="#5A5773"/>
<path opacity="0.2" d="M100.576 99.8101H51.5039V130.685H100.576V99.8101Z" fill="#5A5773"/>
<path opacity="0.2" d="M168.522 99.8101H119.449V130.685H168.522V99.8101Z" fill="#5A5773"/>
<path opacity="0.2" d="M236.467 99.8101H187.395V130.685H236.467V99.8101Z" fill="#5A5773"/>
<path opacity="0.2" d="M100.576 143.946H51.5039V174.821H100.576V143.946Z" fill="#5A5773"/>
<path opacity="0.2" d="M168.522 143.946H119.449V174.821H168.522V143.946Z" fill="#5A5773"/>
<path opacity="0.2" d="M236.467 143.946H187.395V174.821H236.467V143.946Z" fill="#5A5773"/>
<path d="M156.498 82.7151L153.112 83.9144L151.883 81.8737C150.942 80.3039 149.638 78.1565 148.675 76.5961C146.976 73.8521 149.199 69.6702 149.199 69.6702C149.199 69.6702 149.6 65.4726 151.03 64.1791C152.46 62.8856 152.858 69.6702 152.858 69.6702C158.599 72.2823 155.523 78.4265 155.523 78.4265L156.081 80.8628L156.498 82.7151Z" fill="#EFB7B9"/>
<path opacity="0.1" d="M156.498 82.7152L153.112 83.9145L151.883 81.8738V81.6948C151.883 81.6948 153.824 80.3605 156.088 80.8628L156.498 82.7152Z" fill="black"/>
<path d="M151.027 96.4664L152.724 95.0285L151.874 82.0872C151.874 82.0872 156.264 79.0794 159.512 83.7857C159.512 83.7857 159.381 86.6615 159.512 87.4464C159.644 88.2313 158.6 89.0162 159.512 89.7979C160.425 90.5797 159.512 93.1981 159.512 93.1981C159.512 93.1981 160.544 95.0285 161.196 95.5496C161.848 96.0708 162.504 100.388 161.196 101.301C159.889 102.215 157.437 104.309 157.437 105.223C157.437 106.136 154.301 108.362 154.301 108.362L151.548 104.717L151.027 96.4664Z" fill="#FF6484"/>
<path d="M114.343 175.025C108.015 172.337 109.42 165.772 110.612 162.466C110.85 161.796 111.129 161.142 111.449 160.507L114.998 158.35C114.998 158.35 115.723 160.2 116.497 162.68C118.294 168.45 120.36 177.583 114.343 175.025Z" fill="#EFB7B9"/>
<path d="M123.042 234.924C122.614 235.76 122.297 236.649 122.101 237.568C121.788 239.046 121.651 240.556 121.694 242.067C121.719 243.112 121.807 243.797 121.807 243.797L114.758 248.651C114.758 248.651 114.799 248.082 114.868 247.247C115.049 245.024 115.429 240.899 115.786 240.365C116.034 239.995 116.206 238.507 116.316 237.125C116.426 235.744 116.47 234.532 116.47 234.532C116.47 234.532 124.952 231.348 123.042 234.924Z" fill="#EFB7B9"/>
<path d="M139.688 238.406C139.688 238.406 139.688 239.756 139.638 241.326C139.588 242.896 139.494 244.748 139.296 245.611C139.114 246.403 139.102 247.856 139.136 249.197C139.183 250.767 139.296 252.179 139.296 252.179C139.296 252.179 132.1 245.367 132.834 244.827C133.031 244.682 133.226 244.101 133.404 243.329C133.624 242.387 133.821 241.131 133.969 240.064C134.144 238.792 134.254 237.769 134.254 237.769L139.688 238.406Z" fill="#EFB7B9"/>
<path opacity="0.1" d="M123.042 234.924C122.614 235.76 122.298 236.649 122.102 237.568C120.172 237.517 118.247 237.369 116.332 237.125C116.439 235.775 116.486 234.532 116.486 234.532C116.486 234.532 124.952 231.348 123.042 234.924Z" fill="black"/>
<path opacity="0.1" d="M139.688 238.406C139.688 238.406 139.688 239.756 139.638 241.326C137.393 241.901 135.085 240.751 133.969 240.07C134.144 238.799 134.254 237.775 134.254 237.775L139.688 238.406Z" fill="black"/>
<path d="M154.422 171.627C151.55 177.907 150.374 185.354 150.374 185.354L149.33 191.633C149.33 191.633 149.854 194.377 149.33 195.422C148.806 196.468 147.762 198.169 147.762 198.169C147.762 198.169 148.546 204.574 147.762 205.227C146.978 205.88 147.762 209.801 147.762 209.801L145.15 222.988L141.494 239.979C137.97 242.858 133.279 239.197 133.279 239.197L134.314 228.086C134.314 228.086 135.881 208.621 135.229 207.824C134.577 207.026 135.49 204.555 135.49 204.555C135.49 204.555 136.405 202.201 135.753 201.287C135.101 200.373 135.881 198.411 135.881 198.411C135.881 198.411 135.621 190.437 136.405 188.606C137.189 186.776 136.405 175.455 136.405 175.455L136.092 171.929L135.91 169.976L135.894 169.785C135.894 169.785 135.775 170.566 135.58 171.778C135.004 175.467 133.774 183.112 133.288 184.685C132.958 185.818 132.509 186.914 131.949 187.953C131.949 187.953 132.627 191.875 131.949 192.92C131.272 193.965 131.846 195.143 131.846 195.143C131.846 195.143 132.498 198.411 130.538 199.717C128.579 201.023 130.538 201.679 130.538 201.679C130.538 201.679 129.102 204.819 128.582 206.122C128.061 207.425 128.582 209.261 128.582 209.261L127.538 219.848C127.538 219.848 126.622 224.291 126.754 227.298C126.885 230.306 125.578 237.232 125.578 237.232C125.578 237.232 115.525 237.232 113.976 236.055C112.427 234.877 116.563 223.393 116.563 223.393C116.563 223.393 117.739 203.262 117.475 202.741C117.212 202.219 117.475 198.295 118.391 197.513C119.307 196.731 118.391 195.159 118.391 195.159C118.391 195.159 118.131 192.019 118.391 191.237C118.651 190.455 118.35 187.837 118.35 187.837C118.35 187.837 117.475 181.432 117.347 177.772C117.218 174.111 116.563 165.879 116.563 165.879C116.563 165.879 117.247 160.787 117.35 158.363C117.388 157.471 117.786 156.357 118.291 155.308C118.856 154.124 119.505 152.982 120.235 151.892C120.235 151.892 151.168 142.737 152.466 143.648C152.811 143.889 153.312 145.531 153.808 147.908C155.187 154.548 156.536 167.012 154.422 171.627Z" fill="#444053"/>
<path d="M135.364 91.735C140.339 91.735 144.373 87.6966 144.373 82.715C144.373 77.7334 140.339 73.6951 135.364 73.6951C130.389 73.6951 126.355 77.7334 126.355 82.715C126.355 87.6966 130.389 91.735 135.364 91.735Z" fill="#A1616A"/>
<path opacity="0.1" d="M153.805 147.914C152.767 148.448 152.071 148.815 152.071 148.815C152.071 148.815 137.45 155.744 133.292 155.352C130.075 155.038 121.863 155.217 118.285 155.305C118.85 154.121 119.5 152.979 120.229 151.889C120.229 151.889 151.165 142.737 152.463 143.648C152.808 143.896 153.31 145.531 153.805 147.914Z" fill="black"/>
<path d="M129.095 97.1194C129.095 97.1194 120.751 98.4381 118.782 99.7316C116.813 101.025 112.912 103.524 112.912 108.883C112.912 114.243 111.999 119.734 111.476 121.3C110.952 122.867 119.7 135.548 119.7 135.548L116.565 154.765C116.565 154.765 129.107 154.373 133.284 154.765C137.461 155.157 152.076 148.228 152.076 148.228C152.076 148.228 160.692 143.654 162.52 143.519C164.348 143.384 158.864 133.454 158.864 133.454C158.864 133.454 150.376 117.379 151.812 114.764C153.248 112.149 154.302 108.359 154.302 108.359L152.734 95.0285C152.734 95.0285 150.386 94.2436 148.426 95.6815C146.466 97.1195 139.809 96.3346 139.809 96.3346L129.095 97.1194Z" fill="#FF6484"/>
<path opacity="0.1" d="M114.932 120.387L111.659 121.3L110.753 133.601C110.753 133.601 111.928 136.869 110.753 137.915C109.577 138.96 109.316 161.314 109.316 161.314C109.316 161.314 113.104 164.058 117.541 161.967C117.541 161.967 116.889 159.484 118.849 150.464C120.808 141.444 120.805 136.869 120.805 136.869C120.805 136.869 120.805 125.627 121.721 123.796C122.636 121.966 121.721 117.392 121.721 117.392C121.721 117.392 119.893 114.908 120.021 113.995C120.15 113.081 114.932 120.387 114.932 120.387Z" fill="black"/>
<path opacity="0.1" d="M116.495 162.689C114.572 163.337 112.48 163.261 110.609 162.476C110.847 161.806 111.127 161.152 111.447 160.517L114.996 158.36C114.996 158.36 115.733 160.209 116.495 162.689Z" fill="black"/>
<path d="M114.734 120.387L111.47 121.3L110.557 133.601C110.557 133.601 111.733 136.869 110.557 137.915C109.381 138.96 109.121 161.314 109.121 161.314C109.121 161.314 112.912 164.055 117.346 161.955C117.346 161.955 116.694 159.471 118.65 150.451C120.607 141.431 120.61 136.857 120.61 136.857C120.61 136.857 120.61 125.614 121.522 123.784C122.435 121.953 121.522 117.379 121.522 117.379C121.522 117.379 119.694 114.896 119.826 113.982C119.958 113.068 114.734 120.387 114.734 120.387Z" fill="#FF6484"/>
<path opacity="0.1" d="M148.156 122.346C148.156 122.346 146.46 136.986 141.496 139.733C141.496 139.733 152.593 136.596 148.156 122.346Z" fill="black"/>
<path opacity="0.1" d="M123.223 123.655C123.223 123.655 129.356 126.66 127.926 128.751C126.496 130.841 123.223 123.655 123.223 123.655Z" fill="black"/>
<path opacity="0.1" d="M123.223 129.667C123.223 129.667 127.139 133.72 126.358 135.158C125.577 136.596 123.223 129.667 123.223 129.667Z" fill="black"/>
<path opacity="0.1" d="M154.812 96.074C154.812 96.074 156.349 98.6861 156.496 100.388C156.644 102.089 154.812 96.074 154.812 96.074Z" fill="black"/>
<path opacity="0.1" d="M154.812 92.545C154.812 92.545 155.584 91.8889 157.553 92.545C159.522 93.2012 154.812 92.545 154.812 92.545Z" fill="black"/>
<path opacity="0.1" d="M147.274 168.946C144.04 169.406 140.741 168.983 137.727 167.722L136.08 171.941L135.898 169.989C136.168 168.35 136.692 166.595 137.727 166.152C137.727 166.152 141.351 169.044 147.274 168.946Z" fill="black"/>
<path opacity="0.1" d="M120.496 174.438C120.496 174.438 128.526 176.105 130.778 175.809L120.496 174.438Z" fill="black"/>
<path opacity="0.1" d="M121.328 176.544C121.328 176.544 124.755 176.397 126.467 177.084L121.328 176.544Z" fill="black"/>
<path opacity="0.1" d="M121.719 177.966C123.282 178.299 124.87 178.509 126.466 178.594L121.719 177.966Z" fill="black"/>
<path opacity="0.1" d="M121.523 195.956C121.671 195.859 128.378 194.289 129.212 195.416L121.523 195.956Z" fill="black"/>
<path opacity="0.1" d="M121.523 198.016C121.523 198.016 127.349 197.328 127.497 198.016C127.644 198.703 121.523 198.016 121.523 198.016Z" fill="black"/>
<path opacity="0.1" d="M121.523 199.877C121.523 199.877 127.741 198.59 128.475 198.904C129.209 199.218 121.523 199.877 121.523 199.877Z" fill="black"/>
<path opacity="0.1" d="M121.818 243.8L114.77 248.654C114.77 248.654 114.81 248.085 114.879 247.25C116.447 243.388 118.488 241.351 118.488 241.351C120.078 240.936 121.082 241.32 121.705 242.07C121.731 243.112 121.818 243.8 121.818 243.8Z" fill="black"/>
<path d="M122.505 248.161C121.509 250.436 121.008 252.897 121.035 255.382C121.074 257.419 120.558 259.428 119.542 261.193C119.395 261.442 119.23 261.679 119.047 261.903C119.047 261.903 114.149 261.862 112.434 260.44C112.241 260.287 112.084 260.094 111.973 259.874C110.991 257.915 113.882 250.415 113.882 250.415C115.4 244.632 118.482 241.542 118.482 241.542C123.973 240.12 122.505 248.161 122.505 248.161Z" fill="#444053"/>
<path opacity="0.1" d="M119.542 261.177C119.395 261.426 119.229 261.663 119.047 261.887C119.047 261.887 114.149 261.846 112.434 260.424C113.277 257.63 115.967 249.175 117.228 250.613C118.413 251.963 119.238 258.459 119.542 261.177Z" fill="black"/>
<path d="M118.869 251.137L118.527 263.802H120.17C120.17 263.802 120.437 252.691 121.171 251.137C121.904 249.583 118.869 251.137 118.869 251.137Z" fill="#444053"/>
<path opacity="0.1" d="M139.296 252.18C139.296 252.18 132.1 245.367 132.834 244.827C133.031 244.682 133.226 244.101 133.404 243.329C134.787 243.087 137.167 243.665 139.136 249.197C139.183 250.767 139.296 252.18 139.296 252.18Z" fill="black"/>
<path d="M140.37 259.777C140.314 259.801 140.256 259.818 140.197 259.828C139.35 259.975 136.23 259.89 134.484 259.828C134.164 259.817 133.861 259.682 133.638 259.452C133.415 259.222 133.29 258.914 133.289 258.594C133.289 258.123 133.289 257.548 133.252 256.936C133.17 255.002 132.938 252.701 132.245 252.183C131.019 251.241 130.05 248.045 132.245 243.998C132.245 243.998 136.453 240.78 139.488 250.453C139.488 250.453 139.783 253.212 141.103 254.192C142.423 255.172 140.959 259.498 140.37 259.777Z" fill="#444053"/>
<path opacity="0.1" d="M140.191 259.827C139.345 259.975 136.225 259.89 134.478 259.827C134.158 259.817 133.855 259.682 133.632 259.452C133.409 259.222 133.284 258.914 133.284 258.593C133.284 258.123 133.284 257.548 133.246 256.936C133.776 254.594 134.538 252.182 135.519 251.633C135.526 251.63 138.495 251.294 140.191 259.827Z" fill="black"/>
<path d="M132.777 251.347L133.568 261.887H134.571V250.449L132.777 251.347Z" fill="#444053"/>
<path opacity="0.1" d="M135.23 68.342C132.386 68.554 129.632 69.4396 127.197 70.9258C126.569 71.3057 125.942 71.7672 125.682 72.4485C125.456 73.0388 125.55 73.7044 125.56 74.3323C125.644 79.7386 119.624 83.8295 119.812 89.2327C119.887 91.377 120.963 93.3738 121.161 95.5118C121.49 99.0783 119.383 102.359 117.363 105.314C119.444 105.44 121.493 104.76 123.086 103.414C125.217 110.525 125.492 118.065 123.885 125.313H126.773C127.058 125.292 127.345 125.327 127.617 125.416C127.87 125.537 128.097 125.706 128.285 125.915C130.984 128.606 132.794 132.584 131.762 136.257L137.908 133.95C139.378 133.397 140.871 132.835 142.15 131.925C143.43 131.014 144.502 129.692 144.772 128.141C144.938 127.199 144.885 126.075 145.659 125.529C146.041 125.326 146.448 125.175 146.869 125.08C148.556 124.484 149.303 122.531 149.648 120.773C150.068 118.616 150.199 116.412 150.039 114.22C149.767 110.547 148.682 106.817 149.575 103.232C150.08 101.22 151.203 99.3452 151.294 97.2668C151.441 93.8415 148.766 90.8904 148.368 87.4839C148.089 85.1104 148.945 82.7086 148.666 80.3351C148.511 79.1101 148.063 77.9405 147.361 76.9255C146.658 75.9106 145.722 75.0803 144.631 74.5049C143.875 74.1156 143.063 73.8551 142.316 73.4249C140.614 72.436 139.526 70.6558 137.98 69.4314C136.434 68.207 133.86 67.7455 132.696 69.3372L135.23 68.342Z" fill="black"/>
<path d="M135.23 67.9496C132.386 68.1616 129.632 69.0472 127.197 70.5334C126.569 70.9133 125.942 71.3748 125.682 72.0561C125.456 72.6464 125.55 73.312 125.56 73.9399C125.644 79.3462 119.624 83.4371 119.812 88.8434C119.887 90.9846 120.963 92.9814 121.161 95.1225C121.49 98.6891 119.383 101.97 117.363 104.927C119.443 105.05 121.491 104.37 123.086 103.028C125.216 110.137 125.491 117.674 123.885 124.92H126.773C127.059 124.9 127.345 124.937 127.617 125.027C127.871 125.145 128.098 125.314 128.285 125.523C130.984 128.217 132.794 132.191 131.762 135.865L137.908 133.557C139.378 133.005 140.871 132.443 142.15 131.532C143.43 130.622 144.502 129.3 144.772 127.749C144.938 126.807 144.885 125.683 145.659 125.137C146.041 124.934 146.448 124.783 146.869 124.688C148.556 124.091 149.303 122.139 149.648 120.38C150.071 118.222 150.206 116.016 150.049 113.822C149.776 110.149 148.691 106.419 149.585 102.833C150.09 100.821 151.212 98.9465 151.303 96.8681C151.451 93.4429 148.776 90.4917 148.378 87.0852C148.099 84.7117 148.955 82.3131 148.675 79.9365C148.52 78.7116 148.072 77.5422 147.37 76.5273C146.667 75.5125 145.731 74.682 144.64 74.1063C143.884 73.717 143.072 73.4564 142.326 73.0294C140.623 72.0373 139.535 70.2572 137.989 69.0327C136.443 67.8083 133.869 67.3468 132.706 68.9385L135.23 67.9496Z" fill="#925978"/>
<g opacity="0.1">
<path opacity="0.1" d="M125.554 72.634C125.541 72.755 125.535 72.8766 125.535 72.9982C125.545 72.8789 125.551 72.7565 125.554 72.634Z" fill="black"/>
<path opacity="0.1" d="M148.343 85.2019C148.456 83.5379 148.826 81.8677 148.688 80.21C148.585 81.8739 148.215 83.5442 148.343 85.2019Z" fill="black"/>
<path opacity="0.1" d="M121.16 93.4746C120.979 91.528 120.072 89.7071 119.859 87.7637C119.817 88.1199 119.801 88.4788 119.812 88.8374C119.887 90.9566 120.938 92.9377 121.151 95.0475C121.203 94.5246 121.206 93.998 121.16 93.4746Z" fill="black"/>
<path opacity="0.1" d="M149.596 101.207C149.303 102.485 149.197 103.799 149.283 105.107C149.314 104.344 149.419 103.586 149.596 102.843C150.101 100.831 151.224 98.9562 151.315 96.8778C151.329 96.5087 151.313 96.139 151.264 95.7727C151.02 97.6408 150.045 99.3801 149.596 101.207Z" fill="black"/>
<path opacity="0.1" d="M123.086 101.377C121.778 102.474 120.159 103.133 118.458 103.26C118.1 103.819 117.73 104.366 117.363 104.906C119.443 105.028 121.491 104.348 123.086 103.006C124.231 106.823 124.845 110.779 124.911 114.764C125.004 110.233 124.388 105.716 123.086 101.377Z" fill="black"/>
<path opacity="0.1" d="M149.655 118.735C149.31 120.494 148.564 122.446 146.877 123.04C146.455 123.134 146.047 123.286 145.667 123.492C144.892 124.038 144.945 125.168 144.779 126.104C144.51 127.655 143.44 128.973 142.158 129.871C140.875 130.769 139.386 131.347 137.915 131.9L132.052 134.097C132.021 134.687 131.927 135.271 131.77 135.84L137.915 133.532C139.386 132.98 140.878 132.418 142.158 131.507C143.437 130.597 144.51 129.275 144.779 127.724C144.945 126.782 144.892 125.658 145.667 125.112C146.048 124.909 146.455 124.758 146.877 124.663C148.564 124.066 149.31 122.114 149.655 120.355C150.012 118.526 150.16 116.661 150.097 114.798C150.056 116.12 149.908 117.437 149.655 118.735Z" fill="black"/>
<path opacity="0.1" d="M128.293 123.869C128.106 123.659 127.879 123.489 127.625 123.37C127.353 123.28 127.067 123.244 126.782 123.263H124.22C124.119 123.809 124.013 124.355 123.906 124.899H126.794C127.08 124.879 127.366 124.915 127.638 125.005C127.892 125.124 128.119 125.292 128.305 125.501C130.281 127.473 131.777 130.129 132.034 132.854C132.35 129.595 130.663 126.242 128.293 123.869Z" fill="black"/>
</g>
<path opacity="0.1" d="M113.969 134.568C113.969 134.568 116.302 133.589 116.822 134.568C117.343 135.548 113.969 134.568 113.969 134.568Z" fill="black"/>
<path opacity="0.1" d="M114.793 136.248C114.793 136.248 117.126 135.268 117.649 136.248C118.173 137.227 114.793 136.248 114.793 136.248Z" fill="black"/>
<path opacity="0.1" d="M259.381 9.48762C259.381 9.48762 247.45 8.76866 248.858 17.1387C248.858 17.1387 248.579 18.6175 249.917 19.2894C249.917 19.2894 249.939 18.6614 251.14 18.8781C251.568 18.9501 252.003 18.9712 252.435 18.9409C253.02 18.9004 253.574 18.67 254.016 18.2847C254.016 18.2847 257.368 16.9001 258.672 11.4122C258.672 11.4122 259.638 10.2129 259.613 9.90518L257.6 10.7686C257.6 10.7686 258.286 12.2222 257.744 13.4309C257.744 13.4309 257.681 10.8188 257.292 10.8816C257.214 10.8816 256.248 11.3839 256.248 11.3839C256.248 11.3839 257.43 13.9176 256.537 15.7605C256.537 15.7605 256.875 12.6397 255.878 11.5692L254.455 12.4137C254.455 12.4137 255.838 15.029 254.9 17.1639C254.9 17.1639 255.141 13.8893 254.157 12.6146L252.871 13.6162C252.871 13.6162 254.173 16.1812 253.389 17.9519C253.389 17.9519 253.285 14.1373 252.602 13.8516C252.602 13.8516 251.479 14.8437 251.31 15.2519C251.31 15.2519 252.197 17.1356 251.645 18.1089C251.645 18.1089 251.307 15.5721 251.018 15.5595C251.018 15.5595 249.899 17.2424 249.783 18.3852C249.837 17.3188 250.169 16.2852 250.745 15.3869C250.1 15.5093 249.504 15.8194 249.033 16.2785C249.033 16.2785 249.206 15.0886 251.021 14.9819C251.021 14.9819 251.946 13.7072 252.194 13.6287C252.194 13.6287 250.388 13.478 249.294 13.9646C249.294 13.9646 250.256 12.8407 252.526 13.3367L253.781 12.3007C253.781 12.3007 251.404 11.9867 250.394 12.3352C250.394 12.3352 251.554 11.3431 254.122 12.0652L255.502 11.2395C255.502 11.2395 253.476 10.8 252.269 10.9601C252.269 10.9601 253.542 10.2725 255.907 11.0166L256.894 10.5739C256.894 10.5739 255.408 10.2819 254.975 10.2348C254.543 10.1877 254.517 10.0684 254.517 10.0684C255.458 9.91175 256.423 10.0205 257.305 10.3824C257.305 10.3824 259.415 9.61948 259.381 9.48762Z" fill="#E30613"/>
<path opacity="0.1" d="M242.376 2.69995C242.376 2.69995 232.342 9.20199 238.428 15.1075C238.428 15.1075 239.077 16.4638 240.554 16.2126C240.554 16.2126 240.203 15.6978 241.297 15.1546C241.685 14.959 242.049 14.7177 242.379 14.4356C242.826 14.0563 243.138 13.5417 243.267 12.9695C243.267 12.9695 245.148 9.8613 242.953 4.66846C242.953 4.66846 243.022 3.13007 242.809 2.90402L241.699 4.78776C241.699 4.78776 243.113 5.55068 243.392 6.84418C243.392 6.84418 241.796 4.78148 241.511 5.06091C241.454 5.11742 240.965 6.08754 240.965 6.08754C240.965 6.08754 243.42 7.425 243.787 9.43746C243.787 9.43746 242.219 6.72174 240.774 6.45487L240.122 7.96186C240.122 7.96186 242.787 9.24909 243.295 11.5253C243.295 11.5253 241.548 8.74362 240.002 8.30094L239.563 9.87072C239.563 9.87072 242.135 11.1768 242.545 13.0731C242.545 13.0731 240.206 10.0654 239.485 10.2475C239.485 10.2475 239.172 11.7105 239.272 12.1312C239.272 12.1312 241.097 13.1108 241.235 14.2347C241.235 14.2347 239.46 12.3918 239.231 12.5456C239.231 12.5456 239.325 14.5644 239.912 15.5628C239.325 14.6714 238.982 13.6422 238.914 12.577C238.467 13.0586 238.17 13.6612 238.062 14.3101C238.062 14.3101 237.497 13.2489 238.899 12.0873C238.899 12.0873 238.899 10.5175 239.04 10.3008C239.04 10.3008 237.497 11.2427 236.901 12.2913C236.901 12.2913 237.014 10.8157 239.143 9.88014L239.551 8.29466C239.551 8.29466 237.444 9.44374 236.845 10.3322C236.845 10.3322 237.193 8.84408 239.686 7.90221L240.313 6.4172C240.313 6.4172 238.432 7.26802 237.541 8.11256C237.541 8.11256 238.168 6.80022 240.507 5.99963L241.04 5.05777C241.04 5.05777 239.67 5.70452 239.294 5.92429C238.918 6.14406 238.827 6.06243 238.827 6.06243C239.491 5.37804 240.332 4.89214 241.257 4.65904C241.257 4.65904 242.483 2.78786 242.376 2.69995Z" fill="#E30613"/>
<path opacity="0.1" d="M227.106 10.2758C227.106 10.2758 221.108 20.6364 229.207 23.1261C229.207 23.1261 230.402 24.0397 231.603 23.1261C231.603 23.1261 231.06 22.8309 231.788 21.8483C232.041 21.4975 232.251 21.1182 232.415 20.718C232.642 20.1766 232.687 19.5762 232.544 19.007C232.544 19.007 232.81 15.3839 228.499 11.7514C228.499 11.7514 227.872 10.3512 227.558 10.2476L227.423 12.4453C227.423 12.4453 229.029 12.4829 229.866 13.5096C229.866 13.5096 227.508 12.395 227.389 12.7686C227.364 12.844 227.367 13.9303 227.367 13.9303C227.367 13.9303 230.186 14.015 231.44 15.6413C231.44 15.6413 228.806 13.9366 227.404 14.351L227.505 15.9898C227.505 15.9898 230.462 15.927 231.945 17.726C231.945 17.726 229.123 16.0401 227.555 16.3477L227.868 17.9458C227.868 17.9458 230.753 17.9458 231.976 19.4465C231.976 19.4465 228.527 17.8265 227.966 18.3068C227.966 18.3068 228.345 19.7573 228.633 20.0932C228.633 20.0932 230.703 20.1372 231.336 21.0759C231.336 21.0759 228.919 20.2377 228.784 20.4825C228.784 20.4825 229.784 22.2376 230.759 22.8592C229.834 22.334 229.062 21.5766 228.517 20.6615C228.337 21.2937 228.346 21.965 228.543 22.5923C228.543 22.5923 227.558 21.9048 228.279 20.2314C228.279 20.2314 227.558 18.8311 227.599 18.5768C227.599 18.5768 226.658 20.1246 226.595 21.3208C226.595 21.3208 226.025 19.9551 227.498 18.1561L227.144 16.555C227.144 16.555 225.786 18.536 225.655 19.6003C225.655 19.6003 225.291 18.1153 227.088 16.1468L226.968 14.5425C226.968 14.5425 225.67 16.1594 225.269 17.3116C225.269 17.3116 225.225 15.8611 226.953 14.081L227 12.9978C227 12.9978 226.059 14.194 225.837 14.5676C225.614 14.9412 225.482 14.8878 225.482 14.8878C225.765 13.9754 226.294 13.1592 227.012 12.53C227.012 12.53 227.238 10.3041 227.106 10.2758Z" fill="#E30613"/>
<path d="M278.608 128.38C277.72 128.38 276.853 128.643 276.115 129.137C275.377 129.631 274.802 130.332 274.462 131.153C274.123 131.974 274.034 132.878 274.207 133.749C274.38 134.621 274.807 135.421 275.435 136.049C276.062 136.678 276.862 137.106 277.732 137.279C278.603 137.452 279.505 137.363 280.325 137.023C281.145 136.683 281.845 136.107 282.339 135.369C282.832 134.63 283.095 133.761 283.095 132.873C283.091 131.682 282.618 130.541 281.777 129.699C280.936 128.858 279.797 128.383 278.608 128.38ZM265.488 93.1257V97.6185H269.975L278.053 114.001L274.676 119.504C274.307 120.155 274.114 120.891 274.114 121.639C274.114 124.647 276.168 126.132 278.953 126.132H305.188V121.812H279.501C279.426 121.817 279.351 121.805 279.281 121.779C279.211 121.752 279.147 121.711 279.094 121.658C279.041 121.604 279 121.541 278.973 121.47C278.947 121.4 278.935 121.325 278.94 121.25C278.999 121.056 279.079 120.868 279.178 120.691L281.42 117.147H298.136C298.944 117.153 299.738 116.937 300.43 116.521C301.123 116.105 301.688 115.505 302.062 114.789L310.142 100.877C310.3 100.524 310.377 100.14 310.368 99.7534C310.365 99.4643 310.304 99.1788 310.189 98.9137C310.073 98.6487 309.906 98.4095 309.697 98.2105C309.487 98.0114 309.24 97.8564 308.97 97.7547C308.7 97.653 308.412 97.6067 308.123 97.6185H274.914L272.782 93.1257H265.488ZM300.698 128.38C299.811 128.381 298.943 128.645 298.206 129.139C297.469 129.633 296.894 130.335 296.555 131.156C296.216 131.977 296.127 132.88 296.301 133.751C296.474 134.622 296.902 135.423 297.529 136.051C298.157 136.679 298.957 137.106 299.827 137.279C300.697 137.452 301.599 137.363 302.419 137.023C303.239 136.683 303.939 136.107 304.432 135.368C304.925 134.63 305.188 133.761 305.188 132.873C305.185 131.682 304.711 130.54 303.869 129.698C303.028 128.856 301.888 128.382 300.698 128.38Z" fill="#E30613"/>
<path d="M294.957 105.555H291.194V101.788H288.372V105.555H284.609V108.381H288.372V112.148H291.194V108.381H294.957V105.555Z" fill="white"/>
</g>
<defs>
<linearGradient id="paint0_linear" x1="192.03" y1="185.793" x2="192.03" y2="29.9956" gradientUnits="userSpaceOnUse">
<stop stop-color="#808080" stop-opacity="0.25"/>
<stop offset="0.54" stop-color="#808080" stop-opacity="0.12"/>
<stop offset="1" stop-color="#808080" stop-opacity="0.1"/>
</linearGradient>
<clipPath id="clip0">
<rect width="350" height="269.086" fill="white"/>
</clipPath>
</defs>
</svg>
