<svg width="350" height="292" viewBox="0 0 350 292" fill="none" xmlns="http://www.w3.org/2000/svg">
<g clip-path="url(#clip0)">
<path opacity="0.1" d="M248.748 291.663C268.495 291.663 284.504 290.085 284.504 288.139C284.504 286.193 268.495 284.615 248.748 284.615C229.001 284.615 212.992 286.193 212.992 288.139C212.992 290.085 229.001 291.663 248.748 291.663Z" fill="#E30613"/>
<path opacity="0.1" d="M153.233 4.26634C168.981 -1.58596 188.152 3.44723 204.524 10.7879C255.944 33.8485 293.405 77.6239 323.168 122.222C333.944 138.371 344.18 155.23 348.231 173.258C356.48 209.951 334.965 247.936 298.376 261.248C285.934 265.779 272.264 267.637 258.573 268.672C234.228 270.516 209.022 269.784 184.872 262.956C167.649 258.076 151.358 250.227 135.732 241.554C92.0935 217.323 52.2412 185.855 23.5452 147.416C10.9595 130.556 0.312241 111.549 0.00544382 92.0961C-0.301354 72.643 12.3784 53.0959 33.2407 49.7881C41.8659 48.4217 50.9896 49.8438 59.8902 51.3078C72.9953 53.4653 86.2783 55.7345 99.2335 54.7934C112.618 53.8139 130.025 48.5855 132.465 35.8109C135.049 22.0951 137.506 10.1117 153.233 4.26634Z" fill="#E30613"/>
<path d="M85.0728 267.975C85.0728 267.975 101.898 266.961 99.9142 278.749C99.9142 278.749 100.308 280.84 98.4185 281.778C98.4185 281.778 98.3906 280.903 96.6928 281.199C96.0897 281.303 95.4763 281.333 94.866 281.29C94.0405 281.233 93.2561 280.909 92.6312 280.366C92.6312 280.366 87.9002 278.414 86.0629 270.683C86.0629 270.683 84.6998 269 84.7556 268.564L87.5935 269.777C87.5935 269.777 86.6243 271.827 87.3878 273.528C87.3878 273.528 87.4784 269.854 88.0258 269.938C88.1338 269.955 89.5005 270.635 89.5005 270.635C89.5005 270.635 87.8305 274.2 89.0891 276.794C89.0891 276.794 88.6115 272.398 90.0199 270.893L92.0211 272.06C92.0211 272.06 90.0688 275.744 91.3936 278.749C91.3936 278.749 91.0449 274.138 92.4395 272.343L94.2524 273.737C94.2524 273.737 92.4185 277.369 93.5377 279.864C93.5377 279.864 93.6806 274.493 94.6428 274.089C94.6428 274.089 96.2291 275.483 96.4697 276.062C96.4697 276.062 95.2146 278.697 95.992 280.088C95.992 280.088 96.4697 276.511 96.8636 276.494C96.8636 276.494 98.4395 278.864 98.6068 280.488C98.6068 280.488 98.5371 278.073 97.2436 276.267C97.2436 276.267 98.7707 276.529 99.6632 277.519C99.6632 277.519 99.4156 275.842 96.8566 275.696C96.8566 275.696 95.5528 273.901 95.2006 273.789C95.2006 273.789 97.7492 273.576 99.2936 274.263C99.2936 274.263 97.9339 272.681 94.7335 273.399L92.945 271.942C92.945 271.942 96.3023 271.482 97.7213 271.991C97.7213 271.991 96.0862 270.596 92.4639 271.611L90.5185 270.446C90.5185 270.446 93.3773 269.829 95.0821 270.053C95.0821 270.053 93.2832 269.084 89.9467 270.133L88.5522 269.509C88.5522 269.509 90.644 269.098 91.2611 269.031C91.8782 268.965 91.9061 268.798 91.9061 268.798C90.579 268.575 89.2162 268.726 87.97 269.233C87.97 269.233 85.0205 268.177 85.0728 267.975Z" fill="#E30613"/>
<path opacity="0.1" d="M96.6593 284.817C103.237 284.817 108.569 283.917 108.569 282.806C108.569 281.696 103.237 280.795 96.6593 280.795C90.082 280.795 84.75 281.696 84.75 282.806C84.75 283.917 90.082 284.817 96.6593 284.817Z" fill="#E30613"/>
<path d="M62.5371 260.045C62.5371 260.045 72.0234 259.474 70.9043 266.121C70.9634 266.458 70.9138 266.805 70.7628 267.112C70.6118 267.419 70.3671 267.67 70.0641 267.829C70.0641 267.829 70.0466 267.337 69.0914 267.505C68.7518 267.563 68.4064 267.579 68.0629 267.553C67.5963 267.525 67.1525 267.342 66.8009 267.034C66.8009 267.034 64.1373 265.929 63.0914 261.572C63.0914 261.572 62.3244 260.621 62.3523 260.377L63.956 261.074C63.956 261.074 63.4087 262.231 63.8375 263.189C63.8375 263.189 63.8898 261.116 64.1861 261.164C64.2489 261.164 65.0193 261.565 65.0193 261.565C65.0193 261.565 64.078 263.576 64.7892 265.051C64.7892 265.051 64.5173 262.572 65.3122 261.722L66.4383 262.381C66.4383 262.381 65.3401 264.472 66.0897 266.152C66.0897 266.152 65.8979 263.552 66.6788 262.541L67.7003 263.336C67.7003 263.336 66.6544 265.382 67.2994 266.79C67.2994 266.79 67.3796 263.761 67.9235 263.534C67.9235 263.534 68.816 264.322 68.9519 264.646C68.9519 264.646 68.2547 266.131 68.6835 266.915C68.6835 266.915 68.9519 264.901 69.1751 264.89C69.1751 264.89 70.0641 266.225 70.1547 267.142C70.1103 266.295 69.8459 265.475 69.3877 264.761C69.9006 264.855 70.3746 265.098 70.7509 265.459C70.7509 265.459 70.6149 264.514 69.1681 264.43C69.1681 264.43 68.4325 263.416 68.2372 263.357C68.2372 263.357 69.6736 263.235 70.5452 263.622C70.5452 263.622 69.7782 262.729 67.9723 263.134L66.9647 262.311C66.9647 262.311 68.8578 262.053 69.6596 262.339C69.6596 262.339 68.7358 261.551 66.6928 262.126L65.5981 261.468C66.4414 261.283 67.3051 261.21 68.1675 261.248C68.1675 261.248 67.1565 260.701 65.2739 261.293L64.4894 260.945C64.4894 260.945 65.6713 260.711 66.0164 260.676C66.3616 260.641 66.3825 260.544 66.3825 260.544C65.6336 260.42 64.8649 260.505 64.1617 260.791C64.1617 260.791 62.5092 260.16 62.5371 260.045Z" fill="#E30613"/>
<path opacity="0.1" d="M69.0662 269.54C72.7747 269.54 75.7809 269.031 75.7809 268.404C75.7809 267.776 72.7747 267.268 69.0662 267.268C65.3578 267.268 62.3516 267.776 62.3516 268.404C62.3516 269.031 65.3578 269.54 69.0662 269.54Z" fill="#E30613"/>
<path d="M295.913 266.435C295.913 266.435 307.366 265.737 306.024 273.754C306.092 274.161 306.031 274.58 305.848 274.95C305.666 275.321 305.371 275.624 305.006 275.818C305.006 275.818 304.985 275.222 303.831 275.424C303.42 275.494 303.002 275.514 302.586 275.483C302.024 275.447 301.49 275.226 301.066 274.856C301.066 274.856 297.845 273.528 296.593 268.264C296.593 268.264 295.666 267.118 295.704 266.825L297.636 267.647C297.636 267.647 296.977 269.042 297.496 270.202C297.496 270.202 297.559 267.7 297.929 267.763C298.005 267.763 298.933 268.244 298.933 268.244C298.933 268.244 297.796 270.683 298.654 272.426C298.654 272.426 298.33 269.436 299.288 268.411L300.648 269.202C300.648 269.202 299.32 271.712 300.223 273.758C300.223 273.758 299.989 270.621 300.92 269.397L302.154 270.359C302.154 270.359 300.906 272.831 301.666 274.542C301.666 274.542 301.767 270.889 302.422 270.61C302.422 270.61 303.5 271.562 303.664 271.952C303.664 271.952 302.809 273.747 303.339 274.695C303.339 274.695 303.664 272.255 303.932 272.255C303.932 272.255 305.006 273.869 305.117 274.974C305.065 273.953 304.747 272.962 304.194 272.102C304.813 272.219 305.385 272.515 305.839 272.953C305.839 272.953 305.672 271.813 303.925 271.712C303.925 271.712 303.04 270.488 302.802 270.415C302.802 270.415 304.546 270.269 305.592 270.736C305.592 270.736 304.664 269.662 302.485 270.15L301.268 269.157C301.268 269.157 303.552 268.843 304.521 269.188C304.521 269.188 303.406 268.237 300.941 268.93L299.616 268.139C299.616 268.139 301.561 267.721 302.722 267.871C302.722 267.871 301.499 267.212 299.236 267.926L298.288 267.501C298.288 267.501 299.714 267.219 300.132 267.177C300.55 267.135 300.571 267.017 300.571 267.017C299.668 266.866 298.742 266.969 297.894 267.313C297.894 267.313 295.879 266.567 295.913 266.435Z" fill="#E30613"/>
<path opacity="0.1" d="M303.801 277.902C308.278 277.902 311.907 277.289 311.907 276.532C311.907 275.776 308.278 275.162 303.801 275.162C299.324 275.162 295.695 275.776 295.695 276.532C295.695 277.289 299.324 277.902 303.801 277.902Z" fill="#E30613"/>
<path d="M284.503 181.815C284.283 180.588 284.156 179.346 284.123 178.099C284.123 176.604 282.09 175.28 282.09 175.28C282.09 175.28 280.835 172.376 279.999 171.947C279.162 171.519 276.579 167.719 276.579 167.719C276.549 166.97 276.276 166.25 275.801 165.67C275.027 164.653 274.32 163.586 273.685 162.477C273.336 162.052 273.511 161.752 272.988 159.274C272.96 159.145 272.928 159.019 272.89 158.901C272.89 158.845 272.855 158.796 272.834 158.74C273.389 158.184 273.776 157.482 273.951 156.716C274.125 155.95 274.08 155.15 273.821 154.408C273.727 154.113 273.556 153.848 273.326 153.641C272.737 153.16 271.795 153.359 271.189 152.902L271.834 150.051C271.987 149.354 272.067 148.472 271.457 148.095C271.228 147.987 270.987 147.906 270.739 147.855C269.693 147.506 269.086 146.401 268.814 145.338C268.553 144.314 268.482 143.251 268.605 142.201C268.724 141.191 269.02 140.208 269.128 139.193C269.325 137.317 268.873 135.43 267.849 133.846C267.45 133.163 266.863 132.609 266.158 132.25C265.513 131.961 264.763 131.901 264.16 131.553C262.863 130.727 262.93 128.764 261.894 127.639C260.859 126.513 259.025 126.516 257.515 126.903C256.006 127.29 254.503 127.949 252.955 127.785C251.958 127.673 251.024 127.22 250.023 127.116C249.737 127.089 249.448 127.101 249.165 127.154V127.123C248.426 127.255 247.747 127.666 247.572 128.367C247.533 128.534 247.517 128.705 247.523 128.876C247.523 129.284 247.621 129.709 247.628 130.099C247.641 130.254 247.623 130.411 247.574 130.558C247.526 130.706 247.448 130.843 247.346 130.96C247.147 131.173 246.854 131.285 246.648 131.504C246.565 131.588 246.499 131.688 246.455 131.799C246.411 131.909 246.39 132.027 246.394 132.145C246.394 132.766 247.168 133.313 247.687 133.564H247.708C247.569 133.703 247.429 133.85 247.3 134C245.811 135.681 244.99 137.85 244.992 140.096C245.005 141.91 245.548 143.681 246.554 145.191C247.559 146.7 248.985 147.883 250.654 148.594L250.581 148.82C250.434 149.269 250.263 149.708 250.068 150.138C249.708 150.017 249.325 149.976 248.947 150.018C248.569 150.06 248.204 150.184 247.879 150.382C246.882 151.079 244.933 151.023 244.414 150.894C243.894 150.765 238.487 150.082 238.051 150.253C237.615 150.424 236.754 149.657 236.193 150.682C235.632 151.707 235.37 152.261 234.798 152.519C234.227 152.777 233.24 153.585 233.372 153.756C233.505 153.927 231.943 154.952 231.943 154.952C231.943 154.952 230.601 156.346 229.823 156.531C229.046 156.715 227.4 157.771 227.4 157.771L225.493 159.263C225.493 159.263 224.067 159.479 224.5 158.496C224.932 157.514 223.719 156.276 223.719 156.276C223.719 156.276 221.296 151.365 221.296 150.351C221.296 149.336 219.305 145.011 219.305 145.011L219.061 144.986L218.949 144.669C218.583 143.641 218.109 142.379 217.747 141.64C217.049 140.229 216.621 140.082 216.621 140.082C216.621 140.082 208.225 133.78 202.773 135.701C197.32 137.621 212.726 143.345 214.11 143.944C214.595 144.153 214.944 144.829 215.188 145.621C213.96 146.213 212.926 147.143 212.207 148.301C212.207 148.301 215.54 155.687 215.627 157.524C215.714 159.361 217.921 164.495 217.921 164.495C217.921 164.495 218.744 168.298 223.199 168.082C223.199 168.082 229.346 169.211 230.688 168.082C232.03 166.952 233.24 166.067 233.892 165.938C234.371 165.781 234.793 165.483 235.102 165.084C235.102 165.084 233.069 177.894 232.072 179.006C231.075 180.118 222.265 194.499 225.427 197.071C227.931 199.01 230.578 200.758 233.344 202.3C233.613 202.432 234.418 201.09 235.569 200.139C235.569 200.379 235.569 200.623 235.569 200.881C235.59 205.998 236.266 213.778 237.2 215.521C238.595 218.082 238.023 223.036 238.023 223.036C238.756 223.38 239.553 223.571 240.362 223.597C240.404 223.764 240.453 223.945 240.498 224.12C241.262 227.002 242.5 231.46 243.131 232.645C244.082 234.44 244.773 240.122 244.773 240.122C244.773 240.122 245.337 245.699 245.121 246.483C245.038 246.779 245.404 249.101 245.979 252.06C245.63 256.065 244.968 263.785 244.856 266.577C244.856 266.63 244.856 266.682 244.856 266.731V266.78C244.858 266.811 244.858 266.842 244.856 266.874C244.856 266.936 244.856 266.992 244.856 267.044C244.846 267.22 244.853 267.397 244.877 267.571C244.92 267.837 244.9 268.109 244.818 268.366C244.571 269.137 244.258 269.886 243.88 270.603C243.721 270.956 243.582 271.316 243.462 271.684C243.113 271.837 242.688 272.21 242.451 273.12C242.018 274.786 241.37 279.394 241.37 279.394C241.37 279.394 241.109 282.214 240.593 282.855C240.077 283.496 239.547 287.508 243.232 288.021C246.917 288.533 248.51 286.069 248.51 286.069L248.381 274.887V274.866C248.456 274.772 248.52 274.67 248.573 274.563V274.535C248.597 274.483 248.625 274.427 248.65 274.364L248.681 274.281L248.737 274.145C248.735 274.128 248.735 274.112 248.737 274.096C249.094 273.025 249.202 271.886 249.05 270.767V270.711V270.624C249.05 270.596 249.05 270.565 249.05 270.537V270.363C249.05 270.342 249.05 270.317 249.05 270.297C249.05 270.222 249.057 270.145 249.071 270.066C249.071 270.066 249.071 270.039 249.071 270.025L249.092 269.889V269.829C249.092 269.784 249.092 269.739 249.12 269.69C249.119 269.678 249.119 269.667 249.12 269.655C249.155 269.495 249.197 269.307 249.242 269.153V269.115L249.294 268.948C249.347 268.77 249.406 268.599 249.469 268.411V268.376C249.469 268.32 249.507 268.264 249.528 268.212V268.191C249.591 268.02 249.657 267.843 249.72 267.696L249.737 267.651L249.793 267.512L249.81 267.47L249.943 267.16L250.964 270.314C250.964 270.314 251.529 272.663 251.226 273.217C250.923 273.772 251.575 276.079 252.003 276.121L251.602 279.024C251.386 280.625 251.257 282.237 251.215 283.852C251.188 284.037 251.16 284.201 251.139 284.312C250.86 285.8 251.529 288.108 251.529 288.108C254.946 292.148 259.018 288.422 259.018 288.422C259.018 288.422 259.492 286.285 259.018 285.86C258.544 285.434 258.756 283.894 258.756 283.894C258.756 283.894 258.973 280.091 259.014 277.316C259.056 274.542 256.745 272.088 256.745 272.088L256.616 272.203C256.194 271.116 255.713 269.847 255.814 269.279C255.988 268.296 255.336 257.919 255.336 257.919C255.577 255.137 255.628 252.343 255.49 249.554C255.545 249.083 255.598 248.62 255.65 248.16C255.912 245.929 256.124 244.022 256.208 243.022V242.903C256.229 242.635 256.239 242.443 256.236 242.353C256.236 242.004 256.236 241.607 256.271 241.171C256.351 239.972 256.539 238.637 256.539 238.637L257.446 233.126C257.446 233.126 258.143 230.435 259.136 228.944L259.255 228.755C259.293 228.689 259.332 228.616 259.373 228.539L259.391 228.508C259.429 228.435 259.471 228.358 259.509 228.278L259.527 228.246C259.666 227.971 259.816 227.654 259.973 227.305C259.973 227.277 259.998 227.253 260.008 227.225L260.127 226.96C260.127 226.925 260.154 226.891 260.172 226.856C260.189 226.821 260.245 226.678 260.283 226.591C260.301 226.556 260.316 226.52 260.329 226.483C260.374 226.378 260.423 226.27 260.468 226.159L260.534 225.998C260.566 225.918 260.601 225.838 260.636 225.758L260.719 225.545C260.744 225.493 260.765 225.441 260.785 225.388L260.88 225.148C260.88 225.113 260.911 225.075 260.925 225.04C261.172 224.423 261.41 223.813 261.622 223.259C261.688 223.084 261.755 222.91 261.814 222.757C264.031 222.893 265.537 223.015 265.537 223.015C265.537 223.015 266.235 218.02 266.011 214.733C265.865 212.488 266.283 209.665 266.559 208.11C266.59 207.939 266.618 207.786 266.646 207.647L266.705 207.695C267.789 208.549 268.567 205.73 268.567 205.73C268.567 205.73 268.274 203.098 267.87 199.909L267.828 199.591C268.453 199.725 269.085 199.821 269.721 199.881C269.721 199.881 270.07 199.849 270.547 199.79C271.868 200.555 273.263 201.185 274.71 201.672L277.014 197.42C277.447 196.538 277.955 195.695 278.531 194.9C279.228 194.046 281.69 191.313 281.648 190.801C281.606 190.288 282.47 187.34 283.335 186.015C284.2 184.691 284.545 182.028 284.503 181.815ZM274.895 185.06C273.985 185.443 273.12 187.58 273.078 188.222C273.036 188.863 272.081 191.679 271.088 192.021C270.171 192.334 268.421 193.945 268.142 194.203C267.856 194.227 267.531 194.266 267.193 194.321C266.813 191.627 266.437 189.396 266.196 188.947C265.499 187.664 266.96 183.565 266.96 183.565C266.96 183.565 267.103 179.424 268.006 178.441C268.909 177.458 268.703 174.98 268.703 174.98C268.703 174.98 268.919 173.955 269.006 173.488C269.093 173.021 270.293 173.488 270.303 173.488C270.303 173.488 272.639 174.767 272.988 176.688C273.336 178.608 275.888 181.94 275.888 181.94C275.888 181.94 275.498 183.094 275.888 183.683C276.279 184.272 275.805 184.677 274.895 185.06Z" fill="url(#paint0_linear)"/>
<path d="M212.305 148.563C213.015 147.391 214.056 146.454 215.296 145.87C216.536 145.286 217.921 145.081 219.277 145.279V150.267H216.248L213.877 149.667L212.305 148.563Z" fill="#4C4981"/>
<path opacity="0.1" d="M212.305 148.563C213.015 147.391 214.056 146.454 215.296 145.87C216.536 145.286 217.921 145.081 219.277 145.279V150.267H216.248L213.877 149.667L212.305 148.563Z" fill="black"/>
<path d="M219.504 146.6L215.791 149.2C215.791 149.2 215.76 148.681 215.666 147.97C215.481 146.625 215.066 144.606 214.17 144.216C212.807 143.616 197.631 137.907 203.014 135.987C208.397 134.066 216.656 140.361 216.656 140.361C216.656 140.361 217.081 140.507 217.761 141.912C218.11 142.651 218.587 143.909 218.946 144.938C219.278 145.865 219.504 146.6 219.504 146.6Z" fill="#AE6E79"/>
<path d="M249.163 150.605L249.585 150.406L250.77 151.759L249.801 153.826L248.148 153.164L248.532 151.511L249.163 150.605Z" fill="#4C4981"/>
<path d="M243.549 271.663C243.549 271.663 242.482 271.537 242.057 273.2C241.632 274.863 240.99 279.474 240.99 279.474C240.99 279.474 240.736 282.287 240.223 282.928C239.711 283.57 239.202 287.575 242.824 288.083C246.446 288.592 248.026 286.135 248.026 286.135L247.897 274.957L243.549 271.663Z" fill="#444053"/>
<path d="M256.19 272.165C256.19 272.165 258.47 274.605 258.428 277.372C258.386 280.14 258.17 283.936 258.17 283.936C258.17 283.936 257.961 285.473 258.428 285.898C258.895 286.323 258.428 288.456 258.428 288.456C258.428 288.456 254.419 292.176 251.051 288.143C251.051 288.143 250.396 285.839 250.668 284.354C250.94 282.869 251.7 276.194 251.7 276.194L256.19 272.165Z" fill="#444053"/>
<path d="M261.838 221.195C261.838 221.195 259.537 227.63 258.554 229.121C257.571 230.613 256.894 233.304 256.894 233.304L255.998 238.801C255.823 240.03 255.723 241.268 255.698 242.509C255.74 243.747 253.481 261.774 253.481 261.774L249.901 266.337C249.901 266.337 248.325 269.533 248.579 270.868C248.834 272.203 248.408 274.322 247.882 274.96C247.882 274.96 247.798 279.143 247.669 280.074C247.54 281.004 248.14 283.657 247.669 284.124C247.199 284.591 240.934 284.382 240.763 283.611C240.592 282.841 241.53 279.136 241.53 279.136L242.084 275.556C242.084 275.556 243.193 273.597 242.938 272.956C242.684 272.315 243.406 270.826 243.447 270.697C243.489 270.568 244.643 268.481 244.431 267.672C244.218 266.863 245.773 249.665 245.773 249.665L250.162 218.849L261.838 221.195Z" fill="#AE6E79"/>
<path opacity="0.1" d="M261.838 221.195C261.838 221.195 261.489 222.164 261.012 223.436C260.252 225.444 259.157 228.208 258.554 229.121C257.574 230.613 256.891 233.304 256.891 233.304L255.995 238.804C255.822 240.033 255.723 241.272 255.698 242.513C255.698 243.001 255.371 246.114 254.952 249.7C254.307 255.183 253.481 261.778 253.481 261.778L249.901 266.34C249.901 266.34 249.719 266.689 249.493 267.24C249.043 268.285 248.408 269.983 248.579 270.858C248.834 272.179 248.408 274.308 247.882 274.95C247.882 274.95 247.795 279.132 247.669 280.063C247.544 280.994 248.14 283.643 247.669 284.113C247.199 284.584 240.934 284.371 240.763 283.604C240.592 282.838 241.53 279.129 241.53 279.129L242.084 275.546C242.084 275.546 243.193 273.587 242.935 272.946C242.677 272.304 243.406 270.816 243.447 270.687C243.489 270.558 244.643 268.47 244.431 267.661C244.267 267.044 245.128 256.947 245.529 252.158C245.665 250.652 245.752 249.672 245.752 249.672L249.528 223.161L249.834 221.024L250.141 218.856L261.838 221.195Z" fill="black"/>
<path d="M258.001 285.298C258.039 285.769 251.987 286.452 251.122 285.94C250.258 285.427 251.122 279.077 251.122 279.077L251.516 276.18C251.094 276.135 250.453 273.834 250.749 273.28C251.045 272.726 250.495 270.384 250.495 270.384L249.491 267.247L248.877 265.326C247.88 263.127 246.437 256.853 245.541 252.168C244.976 249.226 244.617 246.908 244.697 246.612C244.91 245.845 244.348 240.261 244.348 240.261C244.348 240.261 243.651 234.59 242.731 232.802C242.107 231.617 240.89 227.166 240.137 224.294C239.753 222.819 239.488 221.76 239.488 221.76C239.488 221.76 245.931 221.22 249.839 221.031C251.635 220.944 252.897 220.934 252.75 221.08C252.604 221.226 252.566 222.007 252.572 223.137C252.59 226.061 252.998 231.206 253.43 232.589C254.026 234.507 254.622 240.258 254.368 240.815C254.113 241.373 254.197 245.078 254.197 245.078C254.636 246.584 254.889 248.137 254.95 249.704C255.086 252.48 255.038 255.261 254.804 258.031C254.804 258.031 255.442 268.39 255.271 269.369C255.1 270.349 256.634 273.42 256.634 274.016C256.634 274.612 257.059 278.662 257.059 278.662C257.059 278.662 257.973 284.831 258.001 285.298Z" fill="#AE6E79"/>
<path d="M261.367 160.793L260.635 161.585L260.157 162.101L257.368 165.098L250.162 165.91L246.327 164.886L245.379 164.631C245.379 164.631 245.379 162.707 245.55 160.4C245.794 157.44 246.376 153.847 247.767 152.867C248.464 152.322 249.02 151.618 249.388 150.814C249.666 150.26 249.9 149.684 250.085 149.092C250.113 149.016 250.134 148.942 250.159 148.866C250.472 147.833 250.699 146.775 250.835 145.704C250.835 145.704 251.755 145.195 253.035 144.603C256.371 143.045 262.134 140.894 260.13 145.704C259.835 146.409 259.584 147.13 259.377 147.865C259.345 147.973 259.317 148.082 259.293 148.186C258.624 150.863 259.066 152.487 259.565 153.383C259.649 153.538 259.746 153.686 259.854 153.826C259.99 154.013 260.154 154.178 260.339 154.317L261.169 159.584L261.238 160.02L261.367 160.793Z" fill="#AE6E79"/>
<path opacity="0.1" d="M260.134 145.962C259.754 146.876 260.319 145.216 260.134 145.962C258.614 147.043 255.033 150.121 253.022 150.121C251.662 150.121 251.254 149.873 250.09 149.347C250.442 148.244 250.693 147.111 250.839 145.962C250.839 145.962 262.906 139.312 260.134 145.962Z" fill="black"/>
<path d="M263.202 140.361C263.201 142.656 262.35 144.87 260.813 146.576C259.277 148.282 257.164 149.359 254.881 149.601C254.56 149.633 254.236 149.654 253.908 149.654C252.07 149.654 250.273 149.109 248.744 148.087C247.216 147.066 246.024 145.615 245.321 143.917C244.617 142.219 244.433 140.351 244.792 138.548C245.151 136.745 246.036 135.09 247.336 133.79C248.635 132.491 250.292 131.606 252.095 131.247C253.898 130.888 255.766 131.072 257.465 131.776C259.163 132.479 260.615 133.67 261.636 135.198C262.657 136.726 263.202 138.523 263.202 140.361Z" fill="#AE6E79"/>
<path opacity="0.1" d="M264.526 181.554L263.201 185.008C263.201 185.008 262.124 185.053 260.443 185.105C254.771 185.287 242.272 185.517 241.715 184.06C241.59 183.69 241.524 183.303 241.519 182.913C241.446 180.693 242.482 177.284 242.482 177.284C242.482 177.284 243.078 170.462 243.078 170.166C243.078 169.87 242.565 165.091 242.565 165.091L243.59 161.257L246.446 159.253C246.446 159.253 247.725 161.215 248.492 161.383C249.259 161.55 250.284 162.494 250.284 162.494C250.284 162.494 252.798 164.028 253.61 163.174C254.422 162.32 260.729 158.57 260.729 158.57L264.055 162.237L264.526 181.554Z" fill="black"/>
<path d="M264.527 182.083L263.202 185.534C263.202 185.534 262.125 185.583 260.444 185.635H260.281C259.555 185.66 258.726 185.684 257.84 185.701C253.332 185.806 247.123 185.834 243.877 185.353C242.657 185.179 241.859 184.928 241.726 184.586C241.653 184.381 241.601 184.168 241.573 183.952C241.552 183.791 241.538 183.603 241.531 183.439C241.458 181.219 242.493 177.81 242.493 177.81C242.493 177.81 243.089 170.989 243.089 170.693C243.089 170.396 242.577 165.618 242.577 165.618L243.602 161.783L245.565 160.41L246.457 159.783C246.757 160.232 247.085 160.663 247.437 161.072C247.712 161.442 248.08 161.731 248.504 161.912C249.274 162.083 250.296 163.024 250.296 163.024C250.296 163.024 252.809 164.558 253.622 163.704C254.239 163.052 258.074 160.706 259.845 159.636C260.389 159.305 260.741 159.099 260.741 159.099L261.187 159.594L264.067 162.766L264.527 182.083Z" fill="white"/>
<path opacity="0.1" d="M219.503 146.6L215.79 149.2C215.79 149.2 215.758 148.681 215.664 147.97C217.498 147.196 218.614 145.485 218.934 144.938C219.276 145.865 219.503 146.6 219.503 146.6Z" fill="black"/>
<path d="M232.551 155.426L231.742 155.21C231.742 155.21 230.418 156.604 229.651 156.789C228.884 156.973 227.266 158.022 227.266 158.022L225.387 159.514C225.387 159.514 223.992 159.73 224.407 158.747C224.822 157.764 223.64 156.531 223.64 156.531C223.64 156.531 221.252 151.63 221.252 150.605C221.252 149.58 219.279 145.279 219.279 145.279C219.279 145.279 216.803 150.096 212.285 148.563C212.285 148.563 215.569 155.935 215.653 157.768C215.737 159.601 217.912 164.715 217.912 164.715C217.912 164.715 218.724 168.511 223.114 168.298C223.114 168.298 229.169 169.424 230.491 168.298C231.812 167.172 233.004 166.287 233.628 166.158C234.253 166.029 234.821 165.307 234.821 165.307V160.239L232.551 155.426Z" fill="#4C4981"/>
<path opacity="0.1" d="M224.957 160.239C224.957 160.239 226.024 164.206 225.341 164.631L224.957 160.239Z" fill="black"/>
<path opacity="0.1" d="M260.443 185.618C254.771 185.799 242.273 186.026 241.715 184.572C241.59 184.203 241.524 183.815 241.52 183.425L260.049 184.401L260.443 185.618Z" fill="black"/>
<path opacity="0.1" d="M261.837 221.195C261.837 221.195 261.488 222.164 261.01 223.436C258.657 223.293 255.54 223.144 252.58 223.123C251.534 223.123 250.509 223.123 249.54 223.158C247.483 223.22 245.705 223.388 244.572 223.708C243.14 224.149 241.642 224.343 240.145 224.28C239.761 222.805 239.496 221.746 239.496 221.746C239.496 221.746 245.939 221.206 249.847 221.017L250.154 218.849L261.837 221.195Z" fill="black"/>
<path d="M266.826 205.594L266.101 207.127C266.101 207.127 266 207.584 265.871 208.309C265.599 209.87 265.174 212.687 265.334 214.932C265.547 218.215 264.864 223.199 264.864 223.199C264.864 223.199 249.175 221.878 244.573 223.199C239.971 224.52 237.705 223.199 237.705 223.199C237.705 223.199 238.263 218.257 236.896 215.698C235.965 213.956 235.31 206.176 235.289 201.059C235.289 198.699 235.408 196.911 235.704 196.549C236.642 195.398 240.648 183.889 240.648 183.889L241.561 183.938L244.001 184.067L257.877 184.799L260.056 184.914L260.286 185.611L266.826 205.594Z" fill="#444053"/>
<path d="M273.735 200.477L273.864 201.843C273.864 201.843 266.992 199.605 267.341 196.855C267.69 194.105 267.341 194.415 267.341 194.415L272.863 194.882L273.735 200.477Z" fill="#4C4981"/>
<path opacity="0.1" d="M273.735 200.477L273.864 201.843C273.864 201.843 266.992 199.605 267.341 196.855C267.69 194.105 267.341 194.415 267.341 194.415L272.863 194.882L273.735 200.477Z" fill="black"/>
<path opacity="0.1" d="M229.542 161.341C230.244 161.937 231.071 162.367 231.962 162.599C231.704 162.543 231.464 162.423 231.265 162.25C230.773 161.902 230.306 161.522 229.832 161.152C229.448 160.853 228.971 160.354 228.5 160.232C228.808 160.637 229.157 161.008 229.542 161.341Z" fill="black"/>
<path opacity="0.1" d="M229.65 163.136C229.871 163.385 230.05 163.669 230.18 163.976C230.4 164.843 230.386 165.754 230.141 166.614L229.04 163.958C228.848 163.505 228.656 163.052 228.426 162.62C228.325 162.435 227.69 161.665 227.764 161.505C227.959 161.051 229.444 162.881 229.65 163.136Z" fill="black"/>
<path opacity="0.1" d="M260.386 177.845C261.137 177.754 261.84 177.425 262.391 176.907C261.258 177.05 260.184 177.496 259.069 177.73C258.033 177.97 256.947 177.87 255.973 177.444C257.256 178.071 259.02 178.092 260.386 177.845Z" fill="black"/>
<path opacity="0.1" d="M257.182 170.041C256.979 170.071 256.772 170.019 256.607 169.898C255.756 169.41 254.917 168.901 254.09 168.371C253.284 167.852 252.312 167.325 251.625 166.67C253.316 168.197 254.892 169.486 257.182 170.041Z" fill="black"/>
<path opacity="0.1" d="M259.549 179.082C259.996 179.103 260.443 179.066 260.881 178.974C261.323 178.882 261.715 178.626 261.975 178.256C261.817 178.22 261.651 178.246 261.512 178.329C260.161 178.898 258.677 179.075 257.23 178.842C257.924 179.138 258.813 179.079 259.549 179.082Z" fill="black"/>
<path opacity="0.1" d="M251.473 198.873C250.585 199.141 249.673 199.32 248.75 199.407C248.031 199.44 247.312 199.426 246.595 199.365L243.109 199.145L241.366 199.034C241.16 199.034 240.32 199.034 240.735 198.619C240.944 198.417 242.108 198.546 242.408 198.535C242.987 198.517 243.568 198.506 244.151 198.504C245.305 198.504 246.463 198.504 247.617 198.574C248.91 198.636 250.183 198.734 251.473 198.873Z" fill="black"/>
<path opacity="0.1" d="M247.432 200.599C246.84 200.574 246.076 200.926 245.466 201.003C244.784 201.084 244.096 201.111 243.409 201.083C242.05 201.051 240.708 200.777 239.445 200.275C242.105 200.411 244.772 200.491 247.432 200.599Z" fill="black"/>
<path opacity="0.1" d="M239.964 202.425C240.222 202.477 240.476 202.547 240.724 202.634C242.195 203.053 243.761 202.683 245.256 202.314C244.883 202.875 244.21 203.115 243.537 203.269C242.443 203.546 241.302 203.588 240.191 203.391C239.842 203.321 238.967 203.196 238.796 202.833C238.51 202.3 239.636 202.373 239.964 202.425Z" fill="black"/>
<path opacity="0.1" d="M248.212 205.175C248.654 205.266 249.089 205.382 249.516 205.524C251.172 205.935 252.891 205.371 254.554 204.991C256.553 204.537 258.603 204.347 260.652 204.426C260.286 204.426 259.703 204.747 259.344 204.855C258.874 204.998 258.396 205.13 257.918 205.249C256.981 205.479 256.029 205.667 255.07 205.803C253.135 206.083 251.176 206.168 249.223 206.057C248.331 206.008 246.783 206.099 246.02 205.649C246.68 205.257 247.449 205.091 248.212 205.175Z" fill="black"/>
<path opacity="0.1" d="M248.837 152.606C248.837 152.606 248.921 156.531 248.283 158.322C248.08 158.88 247.767 159.908 247.425 161.062C247.052 162.341 246.644 163.774 246.33 164.896C246.016 166.018 245.807 166.771 245.807 166.771C245.807 166.771 244.367 178.497 243.994 184.084C243.994 184.182 243.994 184.283 243.974 184.377C243.953 184.691 243.918 185.018 243.865 185.356C243.036 190.905 238.249 199.463 236.642 200.146C236.141 200.376 235.683 200.69 235.289 201.076C235.289 198.717 235.408 196.928 235.704 196.566C236.642 195.416 240.648 183.906 240.648 183.906L241.561 183.955C241.54 183.795 241.526 183.607 241.519 183.443C241.446 181.222 242.481 177.814 242.481 177.814C242.481 177.814 243.078 170.992 243.078 170.696C243.078 170.4 242.565 165.621 242.565 165.621L243.59 161.787L245.553 160.414C245.797 157.454 246.379 153.861 247.77 152.881C248.467 152.336 249.023 151.632 249.391 150.828C249.667 150.867 249.165 150.623 249.165 150.623L248.837 152.606Z" fill="black"/>
<path d="M249.586 150.406C249.231 150.285 248.853 150.244 248.48 150.286C248.106 150.328 247.747 150.453 247.428 150.65C246.445 151.348 244.527 151.288 244.015 151.163C243.502 151.037 238.175 150.351 237.739 150.521C237.304 150.692 236.46 149.925 235.906 150.95C235.351 151.975 235.097 152.526 234.542 152.78C233.988 153.035 233.005 153.847 233.148 154.017C233.291 154.188 231.753 155.21 231.753 155.21L234.863 165.318C234.863 165.318 232.859 178.103 231.879 179.211C230.899 180.32 222.201 194.684 225.314 197.242C227.779 199.18 230.387 200.928 233.117 202.471C233.465 202.641 234.692 200.341 236.397 199.616C238.102 198.891 243.391 189.299 243.718 183.844C244.046 178.389 245.552 166.241 245.552 166.241C245.552 166.241 247.386 159.591 248.024 157.799C248.662 156.008 248.578 152.083 248.578 152.083L249.586 150.406Z" fill="#4C4981"/>
<path opacity="0.1" d="M266.826 205.594L266.1 207.127C266.1 207.127 265.999 207.584 265.87 208.309C265.741 208.293 265.62 208.238 265.522 208.152C264.455 207.298 258.2 200.864 257.89 195.151C257.67 190.937 257.775 187.305 257.845 185.687C257.866 185.179 257.887 184.872 257.887 184.806C257.887 184.806 262.747 178.922 262.192 176.838C261.638 174.753 260.358 163.592 260.358 163.592L260.17 162.128L259.846 159.654L259.072 153.665L259.874 153.854C260.01 154.041 260.173 154.206 260.358 154.345L261.188 159.612L264.068 162.784L264.539 182.094L263.214 185.545C263.214 185.545 262.136 185.593 260.456 185.646H260.292L266.826 205.594Z" fill="black"/>
<path d="M269.512 173.718C269.512 173.718 268.32 173.247 268.236 173.718C268.152 174.189 267.936 175.206 267.936 175.206C267.936 175.206 268.149 177.681 267.239 178.661C266.329 179.64 266.193 183.774 266.193 183.774C266.193 183.774 264.757 187.866 265.437 189.145C265.684 189.609 266.068 191.934 266.451 194.722C266.695 196.465 266.936 198.378 267.148 200.128C267.535 203.307 267.825 205.939 267.825 205.939C267.825 205.939 267.054 208.752 265.987 207.898C264.921 207.044 258.666 200.609 258.359 194.896C258.15 190.884 258.234 187.399 258.304 185.681C258.331 184.952 258.359 184.541 258.359 184.541C258.359 184.541 263.219 178.657 262.665 176.569C262.111 174.481 260.831 163.324 260.831 163.324L260.608 161.599L260.367 159.744L260.312 159.336L259.541 153.411C259.677 153.442 264.46 154.523 265.091 155.154C265.722 155.785 269.624 156.687 269.624 156.687C270.212 156.847 270.747 157.161 271.172 157.598C271.598 158.034 271.899 158.577 272.043 159.169C272.082 159.288 272.109 159.413 272.137 159.542C272.65 162.017 272.486 162.313 272.835 162.742C273.183 163.171 269.512 173.718 269.512 173.718Z" fill="#4C4981"/>
<path opacity="0.1" d="M267.174 200.125C265.431 199.776 262.844 198.971 262.903 197.193C262.956 195.531 264.957 194.931 266.473 194.719C266.717 196.454 266.958 198.375 267.174 200.125Z" fill="black"/>
<path d="M272.581 199.239C272.511 199.389 272.232 199.518 271.835 199.633C270.902 199.855 269.955 200.01 269 200.097C269 200.097 263.073 199.626 263.157 196.939C263.22 195.011 265.897 194.499 267.4 194.384C267.733 194.353 268.067 194.339 268.401 194.342C268.401 194.342 272.835 198.689 272.581 199.239Z" fill="#AE6E79"/>
<path opacity="0.1" d="M272.583 199.239C272.514 199.389 272.235 199.518 271.837 199.633C270.293 197.566 268.138 194.914 267.082 194.68L267.403 194.384C267.735 194.353 268.069 194.339 268.403 194.342C268.403 194.342 272.838 198.689 272.583 199.239Z" fill="black"/>
<path d="M271.091 162.456L272.834 162.714C273.464 163.822 274.162 164.89 274.926 165.91C275.395 166.492 275.663 167.21 275.693 167.956C275.693 167.956 278.252 171.749 279.061 172.174C279.87 172.599 281.107 175.499 281.107 175.499C281.107 175.499 283.112 176.82 283.112 178.312C283.148 179.556 283.276 180.796 283.496 182.021C283.541 182.233 283.199 184.879 282.345 186.203C281.491 187.528 280.637 190.449 280.682 190.972C280.727 191.494 278.294 194.213 277.614 195.064C277.047 195.859 276.547 196.701 276.122 197.58L273.863 201.843C273.863 201.843 269.086 194.809 267.34 194.426C267.34 194.426 269.299 192.551 270.279 192.209C271.258 191.867 272.2 189.072 272.242 188.417C272.283 187.761 273.138 185.646 274.03 185.28C274.923 184.914 275.397 184.513 275.013 183.913C274.63 183.314 275.013 182.171 275.013 182.171C275.013 182.171 272.496 178.845 272.154 176.942C271.813 175.039 269.512 173.746 269.512 173.746L268.191 170.504L271.091 162.456Z" fill="#4C4981"/>
<path opacity="0.1" d="M277.433 178.368C278.397 177.553 279.612 177.093 280.874 177.064C280.065 177.204 279.214 177.381 278.622 177.946C278.389 178.19 278.18 178.457 277.998 178.741C277.795 179.03 276.15 181.121 275.906 180.79C275.498 180.306 277.102 178.65 277.433 178.368Z" fill="black"/>
<path opacity="0.1" d="M273.566 176.35C273.827 176.327 274.078 176.235 274.292 176.084C274.505 175.933 274.675 175.727 274.783 175.489C274.991 175.008 275.119 174.497 275.163 173.976C275.288 173.103 275.464 172.238 275.69 171.386C275.757 171.218 275.786 171.036 275.773 170.855C275.761 170.674 275.707 170.498 275.616 170.34C275.523 170.068 275.396 169.808 275.24 169.567C274.926 169.915 274.835 170.727 274.706 171.194C274.546 171.773 274.4 172.355 274.26 172.937C274.187 173.216 273.608 176.35 273.566 176.35Z" fill="black"/>
<path opacity="0.1" d="M272.062 159.141C271.89 159.366 271.692 159.57 271.473 159.748C270.775 160.302 269.851 160.769 269.764 161.644C269.789 161.928 269.753 162.214 269.66 162.484C269.437 162.867 268.889 162.833 268.453 162.759C268.086 162.726 267.733 162.596 267.432 162.383C266.975 161.992 266.933 161.295 266.585 160.804C266.373 160.55 266.105 160.349 265.803 160.215C265.501 160.082 265.172 160.019 264.842 160.034C264.19 160.013 263.541 160.159 262.889 160.187C262.47 160.208 262.05 160.18 261.638 160.103C261.501 160.082 261.366 160.055 261.233 160.02C260.942 159.948 260.657 159.851 260.382 159.73C260.24 159.674 260.102 159.609 259.968 159.535C259.531 159.311 259.127 159.03 258.765 158.699C258.127 158.113 257.597 157.304 257.649 156.436C257.681 155.903 257.921 155.412 257.998 154.885C258.259 153.38 257.259 151.957 256.174 150.88C255.742 150.452 255.282 150.037 254.85 149.601C254.177 148.98 253.645 148.222 253.291 147.377C253 146.478 252.905 145.528 253.012 144.589C253.11 143.637 253.137 142.68 253.093 141.724C252.772 138.336 249.878 135.739 246.984 134.327L246.855 134.261C247.714 133.276 248.771 132.483 249.956 131.934C251.142 131.385 252.43 131.093 253.737 131.075C255.044 131.058 256.339 131.316 257.539 131.834C258.739 132.351 259.816 133.115 260.701 134.077C261.585 135.039 262.256 136.177 262.671 137.415C263.086 138.654 263.235 139.967 263.107 141.267C262.98 142.567 262.58 143.826 261.934 144.961C261.287 146.096 260.408 147.082 259.354 147.855C259.323 147.963 259.295 148.071 259.27 148.176C258.601 150.853 259.044 152.477 259.542 153.373C259.678 153.404 264.461 154.485 265.093 155.115C265.724 155.746 269.625 156.649 269.625 156.649C270.218 156.807 270.757 157.122 271.186 157.56C271.615 157.999 271.917 158.545 272.062 159.141Z" fill="black"/>
<path d="M246.24 131.804C246.432 131.584 246.722 131.473 246.917 131.26C247.52 130.605 246.917 129.535 247.136 128.67C247.374 127.712 248.552 127.294 249.535 127.395C250.518 127.496 251.439 127.949 252.422 128.06C253.949 128.231 255.427 127.569 256.916 127.182C258.404 126.795 260.203 126.774 261.228 127.914C262.253 129.054 262.183 130.995 263.459 131.821C264.049 132.201 264.791 132.243 265.429 132.518C266.127 132.877 266.706 133.43 267.096 134.111C268.106 135.697 268.55 137.578 268.358 139.448C268.25 140.459 267.957 141.441 267.838 142.452C267.718 143.502 267.789 144.565 268.048 145.589C268.316 146.635 268.898 147.764 269.941 148.099C270.182 148.152 270.415 148.233 270.638 148.339C271.241 148.716 271.161 149.601 271.007 150.291L270.387 153.153C270.983 153.606 271.91 153.411 272.479 153.889C272.706 154.096 272.875 154.361 272.967 154.655C273.247 155.456 273.277 156.322 273.054 157.14C272.83 157.958 272.363 158.689 271.715 159.235C271.018 159.79 270.094 160.257 270.007 161.128C270.033 161.412 269.998 161.699 269.902 161.968C269.683 162.352 269.132 162.317 268.696 162.243C268.329 162.21 267.978 162.08 267.678 161.867C267.218 161.477 267.179 160.78 266.831 160.288C266.619 160.035 266.351 159.834 266.049 159.7C265.747 159.567 265.418 159.504 265.088 159.518C264.432 159.497 263.787 159.643 263.132 159.675C261.62 159.737 260.144 159.203 259.021 158.19C258.38 157.601 257.853 156.795 257.902 155.924C257.934 155.394 258.174 154.899 258.251 154.373C258.509 152.871 257.512 151.445 256.428 150.368C255.343 149.291 254.071 148.298 253.541 146.865C252.878 145.091 253.52 143.111 253.342 141.229C253.021 137.837 250.131 135.244 247.234 133.829C246.589 133.498 245.491 132.658 246.24 131.804Z" fill="#444053"/>
<path opacity="0.1" d="M269.041 161.076C268.581 160.682 268.543 159.988 268.194 159.497C267.982 159.243 267.714 159.042 267.412 158.908C267.11 158.774 266.781 158.71 266.451 158.723C265.795 158.702 265.147 158.849 264.495 158.88C262.978 158.946 261.496 158.412 260.371 157.392C259.729 156.806 259.206 155.997 259.255 155.129C259.286 154.596 259.527 154.101 259.604 153.578C259.865 152.073 258.865 150.647 257.78 149.57C256.696 148.493 255.427 147.499 254.894 146.067C254.235 144.296 254.894 142.316 254.698 140.431C254.374 137.039 251.484 134.446 248.59 133.031C247.914 132.7 246.816 131.86 247.565 131.006C247.754 130.786 248.043 130.675 248.238 130.462C248.841 129.81 248.238 128.737 248.461 127.876C248.504 127.704 248.579 127.542 248.681 127.398C247.952 127.534 247.287 127.945 247.109 128.642C246.896 129.507 247.492 130.577 246.889 131.232C246.694 131.445 246.404 131.556 246.213 131.772C245.463 132.626 246.561 133.47 247.238 133.798C250.135 135.213 253.025 137.81 253.346 141.198C253.524 143.083 252.882 145.063 253.544 146.837C254.074 148.266 255.347 149.277 256.431 150.34C257.515 151.403 258.523 152.839 258.255 154.345C258.108 154.855 257.991 155.373 257.906 155.896C257.857 156.764 258.384 157.573 259.025 158.158C260.148 159.179 261.63 159.714 263.146 159.647C263.801 159.615 264.446 159.472 265.102 159.49C265.432 159.477 265.761 159.541 266.063 159.675C266.365 159.809 266.632 160.01 266.845 160.264C267.193 160.755 267.232 161.452 267.692 161.843C267.993 162.054 268.344 162.183 268.71 162.216C269.146 162.296 269.697 162.324 269.916 161.944C269.995 161.789 270.028 161.615 270.014 161.442C269.663 161.407 269.328 161.281 269.041 161.076Z" fill="black"/>
<path d="M218.289 140.361H194.174V116.603H218.307L218.289 140.361ZM217.94 104.54H194.523C194.523 67.6203 229.623 69.7779 229.623 46.421C229.623 33.5557 219.091 23.2488 206.223 23.2488C193.355 23.2488 182.826 34.3609 182.826 46.787H159.426C159.415 40.6399 160.619 34.5511 162.967 28.8699C165.315 23.1887 168.761 18.0267 173.109 13.68C177.456 9.33337 182.619 5.88747 188.302 3.53995C193.984 1.19242 200.074 -0.0105522 206.223 7.89073e-06C232.071 7.89073e-06 253.02 20.6172 253.02 46.421C253.02 75.6267 217.923 78.952 217.923 104.54H217.94Z" fill="#E30613"/>
<path opacity="0.1" d="M98.014 133.285H91.7944V127.144H98.014V133.285ZM97.9199 124.048H91.8885C91.8885 114.533 100.936 115.087 100.936 109.06C100.932 108.272 100.774 107.492 100.469 106.765C100.164 106.037 99.7188 105.377 99.1587 104.822C98.5986 104.267 97.9346 103.828 97.2046 103.529C96.4746 103.231 95.6929 103.079 94.9042 103.083C93.3115 103.119 91.7949 103.772 90.6729 104.903C89.5509 106.033 88.9107 107.555 88.8868 109.148H82.8555C82.8955 105.983 84.1778 102.961 86.426 100.733C88.6741 98.5045 91.7081 97.2489 94.8736 97.2366C98.0392 97.2242 101.083 98.4561 103.348 100.667C105.614 102.877 106.92 105.889 106.984 109.053C106.967 116.582 97.9199 117.44 97.9199 124.034V124.048Z" fill="#E30613"/>
<path opacity="0.1" d="M145.108 175.952H138.889V169.828H145.108V175.952ZM145.018 166.719H138.986C138.986 157.2 148.033 157.758 148.033 151.731C148.03 150.943 147.872 150.163 147.567 149.436C147.262 148.709 146.816 148.049 146.256 147.494C145.696 146.939 145.032 146.5 144.302 146.202C143.572 145.904 142.791 145.753 142.002 145.757C140.403 145.785 138.877 146.435 137.748 147.568C136.619 148.702 135.976 150.229 135.953 151.829H129.922C129.962 148.664 131.244 145.642 133.492 143.414C135.741 141.185 138.774 139.93 141.94 139.918C145.106 139.905 148.149 141.137 150.415 143.348C152.68 145.558 153.986 148.57 154.051 151.734C154.061 159.263 145.018 160.124 145.018 166.719Z" fill="#E30613"/>
<path opacity="0.1" d="M173.746 100.42H169.238V95.9895H173.746V100.42ZM173.68 93.7238H169.308C169.308 86.8294 175.866 87.2302 175.866 82.8663C175.863 82.295 175.748 81.7299 175.526 81.2032C175.305 80.6764 174.982 80.1985 174.577 79.7965C174.171 79.3945 173.689 79.0764 173.16 78.8603C172.631 78.6442 172.065 78.5344 171.494 78.5372C170.337 78.5606 169.234 79.0324 168.419 79.8531C167.603 80.6737 167.138 81.7791 167.122 82.936H162.75C162.741 80.6175 163.653 78.3903 165.286 76.7444C166.92 75.0984 169.14 74.1685 171.459 74.1593C173.778 74.15 176.006 75.0622 177.652 76.6951C179.298 78.3279 180.228 80.5478 180.238 82.8663C180.231 88.3212 173.68 88.9451 173.68 93.7238Z" fill="#E30613"/>
<path opacity="0.1" d="M250.738 106.673H248.189V104.163H250.738V106.673ZM250.7 102.891H248.214C248.214 98.9941 251.92 99.2206 251.92 96.7528C251.92 96.4301 251.856 96.1105 251.731 95.8126C251.607 95.5148 251.425 95.2446 251.195 95.0176C250.966 94.7907 250.693 94.6116 250.394 94.4906C250.095 94.3696 249.774 94.3092 249.451 94.3129C248.798 94.3264 248.175 94.593 247.714 95.0565C247.253 95.5201 246.989 96.1445 246.98 96.7982H244.508C244.537 95.5101 245.067 94.2842 245.987 93.3817C246.907 92.4792 248.142 91.9713 249.431 91.9663C250.72 91.9613 251.959 92.4596 252.886 93.3549C253.812 94.2503 254.353 95.472 254.392 96.7598C254.405 99.8236 250.7 100.19 250.7 102.891Z" fill="#E30613"/>
<path opacity="0.1" d="M289.701 220.815H287.152V218.306H289.701V220.815ZM289.662 217.033H287.19C287.19 213.133 290.9 213.363 290.9 210.895C290.895 210.244 290.632 209.621 290.169 209.164C289.705 208.706 289.079 208.452 288.428 208.455C287.774 208.468 287.15 208.734 286.689 209.198C286.228 209.662 285.965 210.287 285.956 210.941H283.484C283.513 209.652 284.044 208.427 284.964 207.524C285.883 206.622 287.119 206.114 288.408 206.109C289.696 206.104 290.936 206.602 291.862 207.497C292.789 208.393 293.329 209.614 293.368 210.902C293.382 213.98 289.676 214.332 289.676 217.033H289.662Z" fill="#E30613"/>
</g>
<defs>
<linearGradient id="paint0_linear" x1="243.068" y1="290.018" x2="243.068" y2="126.631" gradientUnits="userSpaceOnUse">
<stop stop-color="#808080" stop-opacity="0.25"/>
<stop offset="0.54" stop-color="#808080" stop-opacity="0.12"/>
<stop offset="1" stop-color="#808080" stop-opacity="0.1"/>
</linearGradient>
<clipPath id="clip0">
<rect width="350" height="291.667" fill="white"/>
</clipPath>
</defs>
</svg>
