<svg xmlns="http://www.w3.org/2000/svg" viewBox="0 0 98.791 23.492"><defs><style>.i,.j{fill:#fff}.g,.j{fill-rule:evenodd}.g{opacity:.12}.i,.j{stroke:#fff;stroke-width:.5px}</style><linearGradient id="a" x1=".915" x2="-.382" y1=".049" y2=".719" gradientUnits="objectBoundingBox"><stop offset="0" stop-color="#00a0ff"/><stop offset=".01" stop-color="#00a1ff"/><stop offset=".26" stop-color="#00beff"/><stop offset=".51" stop-color="#00d2ff"/><stop offset=".76" stop-color="#00dfff"/><stop offset="1" stop-color="#00e3ff"/></linearGradient><linearGradient id="b" x1="1.077" x2="-1.306" y1=".5" y2=".5" gradientUnits="objectBoundingBox"><stop offset="0" stop-color="#ffe000"/><stop offset=".41" stop-color="#ffbd00"/><stop offset=".78" stop-color="orange"/><stop offset="1" stop-color="#ff9c00"/></linearGradient><linearGradient id="c" x1=".863" x2="-.502" y1=".179" y2="1.946" gradientUnits="objectBoundingBox"><stop offset="0" stop-color="#ff3a44"/><stop offset="1" stop-color="#c31162"/></linearGradient><linearGradient id="d" x1="-.188" x2=".421" y1="-.54" y2=".249" gradientUnits="objectBoundingBox"><stop offset="0" stop-color="#32a071"/><stop offset=".07" stop-color="#2da771"/><stop offset=".48" stop-color="#15cf74"/><stop offset=".8" stop-color="#06e775"/><stop offset="1" stop-color="#00f076"/></linearGradient></defs><path fill="#fff" d="M49.607 12.998a3.649 3.649 0 1 0 3.641 3.641 3.581 3.581 0 0 0-3.641-3.641zm0 5.851a2.212 2.212 0 1 1 2.047-2.21 2.1 2.1 0 0 1-2.047 2.21zm-7.947-5.851a3.649 3.649 0 1 0 3.641 3.641 3.581 3.581 0 0 0-3.641-3.641zm0 5.851a2.212 2.212 0 1 1 2.047-2.21 2.1 2.1 0 0 1-2.047 2.21zm-9.448-4.729v1.542h3.681a3.237 3.237 0 0 1-.853 1.945 3.76 3.76 0 0 1-2.847 1.13 4.112 4.112 0 0 1 0-8.224 3.947 3.947 0 0 1 2.8 1.105l1.083-1.088a5.359 5.359 0 0 0-3.863-1.559 5.662 5.662 0 1 0 0 11.317 4.99 4.99 0 0 0 5.261-5.209 5.4 5.4 0 0 0-.077-.959zm38.637 1.2a3.35 3.35 0 0 0-6.515 1.319 3.6 3.6 0 0 0 6.617 2.03l-1.236-.857a2.053 2.053 0 0 1-1.782 1 1.833 1.833 0 0 1-1.757-1.105l4.852-2.013zm-4.946 1.216a2 2 0 0 1 1.9-2.133 1.4 1.4 0 0 1 1.339.78zm-3.94 3.529h1.595V9.357h-1.595zm-2.61-6.254h-.06a2.5 2.5 0 0 0-1.91-.857 3.65 3.65 0 0 0 0 7.29 2.451 2.451 0 0 0 1.91-.857h.06v.523c0 1.4-.742 2.142-1.936 2.142a2.013 2.013 0 0 1-1.833-1.294l-1.381.574a3.411 3.411 0 0 0 3.215 2.159c1.867 0 3.411-1.105 3.411-3.8v-6.479h-1.476zm-1.833 5.037a2.211 2.211 0 0 1 0-4.412 2.044 2.044 0 0 1 1.944 2.2 2.036 2.036 0 0 1-1.944 2.21zm20.8-9.492h-3.827v10.709h1.6v-4.06h2.226a3.332 3.332 0 1 0 0-6.648zm0 5.14h-2.227v-3.649h2.26a1.833 1.833 0 0 1 0 3.667zm9.84-1.533a2.974 2.974 0 0 0-2.84 1.636l1.407.591a1.888 1.888 0 0 1 2.6-.449 1.544 1.544 0 0 1 .565 1.049v.1a3.551 3.551 0 0 0-1.663-.411c-1.518 0-3.07.857-3.07 2.416a2.468 2.468 0 0 0 2.652 2.356 2.257 2.257 0 0 0 2.029-1.045h.051v.857h1.535v-4.118a2.945 2.945 0 0 0-3.232-2.964zm-.2 5.868c-.52 0-1.245-.266-1.245-.908 0-.857.9-1.148 1.705-1.148a2.821 2.821 0 0 1 1.45.36 1.931 1.931 0 0 1-1.876 1.713zm9.056-5.62l-1.823 4.644h-.051l-1.893-4.643h-1.706l2.84 6.494-1.62 3.607h1.663l4.366-10.1zm-14.323 6.854h1.586V9.357h-1.586z"/><path fill="url(#a)" fill-rule="evenodd" d="M1.3.5a1.718 1.718 0 0 0-.4 1.2v18.95a1.667 1.667 0 0 0 .4 1.2l.06.069L11.926 11.3v-.257L1.361.439z" transform="translate(-.897 .326)"/><path fill="url(#b)" fill-rule="evenodd" d="M16.41 15.472l-3.5-3.538v-.257l3.5-3.538.077.051 4.187 2.382a1.3 1.3 0 0 1 0 2.476L16.5 15.429z" transform="translate(-1.884 -.307)"/><path fill="url(#c)" fill-rule="evenodd" d="M15.561 15.748l-3.6-3.615L1.338 22.807a1.377 1.377 0 0 0 1.765.06l12.458-7.119" transform="translate(-.933 -.635)"/><path fill="url(#d)" fill-rule="evenodd" d="M15.561 7.532L3.1.421a1.368 1.368 0 0 0-1.762.052l10.625 10.674z" transform="translate(-.933 .351)"/><path fill-rule="evenodd" d="M14.525 15.036L2.166 22.104a1.41 1.41 0 0 1-1.705 0l-.06.06.06.069a1.41 1.41 0 0 0 1.705 0l12.461-7.118z" opacity=".2"/><path d="M.4 22.052a1.719 1.719 0 0 1-.371-1.208v.129a1.667 1.667 0 0 0 .4 1.2l.06-.06zM18.789 12.612l-4.264 2.424.077.077 4.187-2.382a1.5 1.5 0 0 0 .9-1.234 1.592 1.592 0 0 1-.9 1.115z" class="g"/><path fill="#fff" fill-rule="evenodd" d="M2.17.893l16.619 9.492a1.592 1.592 0 0 1 .9 1.114 1.5 1.5 0 0 0-.9-1.234L2.17.773C.985.088.003.651.003 2.024v.127C.03.781.985.216 2.17.893z" opacity=".25"/><g><path d="M27.41 6.591h-.623V4.878h.529a2.44 2.44 0 0 0 .618-1.948V.363h3.415v4.506h.571v1.714h-.631v-1.08H27.41zm1.185-3.661a3.439 3.439 0 0 1-.486 1.962h2.558v-3.9h-2.072zM37.045 4.84a2.635 2.635 0 0 1-3.743 0 2.759 2.759 0 0 1 0-3.8 2.631 2.631 0 0 1 4.5 1.9 2.576 2.576 0 0 1-.757 1.9zm-3.266-.433a1.889 1.889 0 0 0 1.39.583 1.863 1.863 0 0 0 1.39-.583 2.183 2.183 0 0 0 0-2.947 1.863 1.863 0 0 0-1.39-.583 1.889 1.889 0 0 0-1.39.583 2.209 2.209 0 0 0 0 2.947z" class="i"/><path d="M41.113 5.615a2.552 2.552 0 0 1-1.859-.762 2.785 2.785 0 0 1 0-3.838 2.552 2.552 0 0 1 1.893-.763 2.34 2.34 0 0 1 1.876.857l-.452.445a1.7 1.7 0 0 0-1.424-.66 1.914 1.914 0 0 0-1.416.574 2.209 2.209 0 0 0 0 2.964 1.914 1.914 0 0 0 1.416.574 2.009 2.009 0 0 0 1.518-.766l.46.454a2.56 2.56 0 0 1-.853.668 2.625 2.625 0 0 1-1.159.253zM45.802 5.503h-.657V.997h-1.432V.363h3.513v.634h-1.424zM51.747.363l-1.936 4.335a1.235 1.235 0 0 1-1.705.805l.171-.608a.731.731 0 0 0 .341.094.612.612 0 0 0 .358-.094.78.78 0 0 0 .23-.326l.188-.411L47.688.363h.776l1.262 2.947L50.971.363zM52.488 5.503V.363h3.7v5.14h-.654V.997h-2.389v4.506zM57.357 5.503V.363h.657v2.2h2.558v-2.2h.665v5.14h-.665V3.182h-2.559v2.321z" class="j"/><path d="M66.591 4.84a2.643 2.643 0 0 1-3.752 0 2.759 2.759 0 0 1 0-3.8 2.635 2.635 0 0 1 3.743 0 2.776 2.776 0 0 1 0 3.8zm-3.266-.428a1.863 1.863 0 0 0 1.39.583 1.889 1.889 0 0 0 1.39-.583 2.209 2.209 0 0 0 0-2.947 1.889 1.889 0 0 0-1.39-.583 1.863 1.863 0 0 0-1.39.583 2.183 2.183 0 0 0 .001 2.942zM70.028 5.503V.363h1.85a1.531 1.531 0 0 1 1.04.394 1.3 1.3 0 0 1 .443 1 1.186 1.186 0 0 1-.188.651 1.2 1.2 0 0 1-.5.42 1.339 1.339 0 0 1 .622.445 1.2 1.2 0 0 1 .239.728 1.348 1.348 0 0 1-.46 1.045 1.556 1.556 0 0 1-1.091.42zm.657-2.938h1.194a.74.74 0 0 0 .6-.248.773.773 0 0 0 .23-.54.8.8 0 0 0-.2-.557.723.723 0 0 0-.571-.24H70.71zm0 2.3h1.33a.783.783 0 0 0 .614-.266.849.849 0 0 0-.648-1.422h-1.3z" class="i"/></g></svg>