<svg width="25px" height="25px" viewBox="0 0 25 25" version="1.1" xmlns="http://www.w3.org/2000/svg" xmlns:xlink="http://www.w3.org/1999/xlink">
    <g stroke="none" stroke-width="1" fill="none" fill-rule="evenodd">
        <g fill-rule="nonzero">
            <path d="M12.5,25 C5.59644063,25 0,19.4035594 0,12.5 C0,5.59644063 5.59644063,0 12.5,0 C19.4035594,0 25,5.59644063 25,12.5 C25,19.4035594 19.4035594,25 12.5,25 Z" fill="#29C4CA"></path>
            <path d="M4.95850454,15.2825836 L4.95850454,10.2875284 L5.93979779,10.2875284 L7.98415874,13.623244 L7.98415874,10.2875284 L8.9211575,10.2875284 L8.9211575,15.2825836 L7.90919884,15.2825836 L5.89550331,12.0252352 L5.89550331,15.2825836 L4.95850454,15.2825836 Z M9.98763246,15.2825836 L9.98763246,10.2875284 L13.691333,10.2875284 L13.691333,11.1325309 L10.9961839,11.1325309 L10.9961839,12.2398931 L13.5039333,12.2398931 L13.5039333,13.0814883 L10.9961839,13.0814883 L10.9961839,14.4409884 L13.7867365,14.4409884 L13.7867365,15.2825836 L9.98763246,15.2825836 Z M15.3506727,15.2825836 L14.1581288,10.2875284 L15.1905311,10.2875284 L15.9435373,13.7186475 L16.8566852,10.2875284 L18.0560436,10.2875284 L18.9317116,13.7765711 L19.6983469,10.2875284 L20.7137129,10.2875284 L19.5007254,15.2825836 L18.4308432,15.2825836 L17.4359208,11.5482176 L16.4444058,15.2825836 L15.3506727,15.2825836 Z" fill="#FFFFFF"></path>
        </g>
    </g>
</svg>