<svg width="350" height="291" viewBox="0 0 350 291" fill="none" xmlns="http://www.w3.org/2000/svg">
<g clip-path="url(#clip0)">
<path d="M250.043 65.7175H247.556C247.066 65.7175 246.668 66.1149 246.668 66.6051V99.9464C246.668 100.437 247.066 100.834 247.556 100.834H250.043C250.534 100.834 250.931 100.437 250.931 99.9464V66.6051C250.931 66.1149 250.534 65.7175 250.043 65.7175Z" fill="#3F3D56"/>
<path d="M233.498 0H121.12C112.769 0 106 6.76578 106 15.1118V274.588C106 282.934 112.769 289.699 121.12 289.699H233.498C241.849 289.699 248.618 282.934 248.618 274.588V15.1118C248.618 6.76578 241.849 0 233.498 0Z" fill="#3F3D56"/>
<path d="M229.118 7.5459H212.758V9.51287C212.758 10.7372 212.517 11.9496 212.048 13.0807C211.579 14.2118 210.892 15.2395 210.025 16.105C209.159 16.9705 208.13 17.6569 206.999 18.125C205.867 18.5931 204.653 18.8337 203.428 18.833H151.4C150.175 18.8337 148.962 18.5931 147.83 18.125C146.698 17.6569 145.669 16.9705 144.803 16.105C143.937 15.2395 143.249 14.2118 142.78 13.0807C142.311 11.9496 142.07 10.7372 142.07 9.51287V7.5459H126.753C123.748 7.5459 120.867 8.73863 118.743 10.8617C116.619 12.9848 115.426 15.8643 115.426 18.8668V270.853C115.426 273.855 116.619 276.735 118.743 278.858C120.867 280.981 123.748 282.173 126.753 282.173H229.118C232.122 282.173 235.003 280.981 237.127 278.858C239.252 276.735 240.445 273.855 240.445 270.853V18.8861C240.448 17.3978 240.156 15.9236 239.588 14.5479C239.02 13.1721 238.186 11.9218 237.134 10.8685C236.082 9.81526 234.833 8.97964 233.457 8.4095C232.082 7.83936 230.607 7.5459 229.118 7.5459Z" fill="white"/>
<path d="M182.317 8.65161H165.403C164.574 8.65161 163.902 9.32316 163.902 10.1516V11.1914C163.902 12.0198 164.574 12.6914 165.403 12.6914H182.317C183.146 12.6914 183.818 12.0198 183.818 11.1914V10.1516C183.818 9.32316 183.146 8.65161 182.317 8.65161Z" fill="#E6E8EC"/>
<path d="M189.127 12.9659C190.395 12.9659 191.423 11.9388 191.423 10.6718C191.423 9.40479 190.395 8.37769 189.127 8.37769C187.86 8.37769 186.832 9.40479 186.832 10.6718C186.832 11.9388 187.86 12.9659 189.127 12.9659Z" fill="#E6E8EC"/>
<path d="M178.53 175.372C193.43 175.372 205.509 163.299 205.509 148.406C205.509 133.514 193.43 121.441 178.53 121.441C163.63 121.441 151.551 133.514 151.551 148.406C151.551 163.299 163.63 175.372 178.53 175.372Z" fill="white"/>
<path fill-rule="evenodd" clip-rule="evenodd" d="M178 175C194.569 175 208 161.569 208 145C208 128.431 194.569 115 178 115C161.431 115 148 128.431 148 145C148 161.569 161.431 175 178 175Z" fill="#E30613"/>
<path fill-rule="evenodd" clip-rule="evenodd" d="M181.023 122.461C181.337 123.566 181.337 124.777 181.023 125.882C180.918 126.198 180.709 126.461 180.342 126.566C179.241 126.882 178.036 126.882 176.936 126.566C176.622 126.461 176.36 126.25 176.255 125.882C175.94 124.777 175.94 123.566 176.255 122.461C176.36 122.145 176.569 121.882 176.936 121.777C178.036 121.461 179.241 121.461 180.342 121.777C180.709 121.882 180.918 122.145 181.023 122.461ZM160.481 131.461C161.582 131.724 162.63 132.355 163.363 133.198C163.573 133.461 163.678 133.777 163.573 134.092C163.311 135.198 162.682 136.25 161.844 136.987C161.582 137.198 161.267 137.303 160.953 137.198C159.853 136.934 158.805 136.303 158.071 135.461C157.861 135.198 157.757 134.882 157.861 134.566C158.123 133.461 158.752 132.408 159.591 131.671C159.8 131.461 160.167 131.408 160.481 131.461ZM169.549 124.25C170.387 125.04 170.963 126.093 171.225 127.198C171.278 127.514 171.225 127.882 170.963 128.093C170.177 128.935 169.129 129.514 168.029 129.777C167.715 129.829 167.348 129.777 167.138 129.514C166.3 128.724 165.724 127.671 165.462 126.566C165.409 126.25 165.462 125.882 165.724 125.671C166.51 124.829 167.557 124.25 168.658 123.987C169.025 123.935 169.339 124.04 169.549 124.25ZM199.258 135.513C198.472 136.356 197.477 136.987 196.376 137.25C196.062 137.356 195.695 137.25 195.485 137.04C194.647 136.25 194.018 135.25 193.756 134.145C193.652 133.829 193.756 133.461 193.966 133.25C194.752 132.408 195.747 131.777 196.848 131.513C197.162 131.408 197.529 131.513 197.739 131.724C198.577 132.513 199.206 133.513 199.468 134.619C199.572 134.935 199.52 135.25 199.258 135.513ZM191.87 126.566C191.608 127.671 191.032 128.724 190.193 129.514C189.931 129.724 189.617 129.829 189.302 129.777C188.202 129.514 187.154 128.935 186.368 128.093C186.159 127.829 186.054 127.514 186.106 127.198C186.368 126.093 186.945 125.04 187.783 124.25C188.045 124.04 188.359 123.935 188.674 123.987C189.774 124.25 190.822 124.829 191.608 125.671C191.817 125.935 191.922 126.25 191.87 126.566Z" fill="white"/>
<path fill-rule="evenodd" clip-rule="evenodd" d="M179.923 150.934C181.862 147.987 183.224 144.619 183.696 140.934C183.696 140.776 183.801 140.671 183.906 140.619C184.01 140.566 184.168 140.566 184.272 140.671C185.635 141.724 187.154 142.513 188.831 143.04C189.041 143.092 189.198 143.303 189.145 143.566C188.307 147.776 186.578 151.671 184.115 155.04C184.063 155.145 183.906 155.198 183.801 155.25C183.644 155.25 183.539 155.25 183.434 155.145C182.124 154.145 180.971 152.934 179.923 151.671C179.819 151.461 179.766 151.198 179.923 150.934Z" fill="white"/>
<path fill-rule="evenodd" clip-rule="evenodd" d="M178.292 160.566C173.157 156.303 169.49 150.355 168.127 143.566C168.075 143.355 168.232 143.145 168.442 143.04C170.118 142.513 171.638 141.724 173 140.671C173.105 140.566 173.262 140.566 173.367 140.619C173.472 140.671 173.577 140.776 173.577 140.934C174.415 147.198 177.716 152.724 182.432 156.408C182.537 156.513 182.589 156.619 182.589 156.724C182.589 156.882 182.589 156.987 182.484 157.092C181.384 158.355 180.231 159.513 178.974 160.566C178.816 160.776 178.502 160.776 178.292 160.566Z" fill="white"/>
<path fill-rule="evenodd" clip-rule="evenodd" d="M199.778 145.777C201.245 144.935 202.031 143.25 201.769 141.619C201.769 141.514 201.665 141.408 201.56 141.356C201.455 141.303 201.298 141.303 201.193 141.408C198.259 143.303 194.748 144.092 191.29 143.619C191.08 143.566 190.871 143.724 190.818 143.987C190.294 146.566 189.456 149.04 188.356 151.356C188.303 151.461 188.303 151.619 188.356 151.724C188.408 151.829 188.513 151.935 188.618 151.987C191.395 153.198 194.434 153.935 197.578 153.987C197.787 153.987 197.997 153.882 198.102 153.671C199.097 151.198 199.726 148.566 199.778 145.777Z" fill="white"/>
<path fill-rule="evenodd" clip-rule="evenodd" d="M183.062 139.566C184.162 139.408 194.17 137.619 190.607 134.776C187.621 132.355 184.162 130.513 180.337 129.408C179.185 129.092 178.084 129.092 176.931 129.408C173.159 130.513 169.648 132.355 166.662 134.776C163.099 137.671 173.106 139.408 174.207 139.566C174.993 141.724 176.617 144.671 178.608 144.671C180.652 144.671 182.328 141.724 183.062 139.566Z" fill="white"/>
<path fill-rule="evenodd" clip-rule="evenodd" d="M159.275 153.619C158.227 151.198 157.598 148.513 157.546 145.724C156.079 144.882 155.345 143.198 155.607 141.566C155.607 141.461 155.712 141.356 155.817 141.303C155.921 141.25 156.079 141.25 156.183 141.356C159.118 143.303 162.628 144.04 166.086 143.566C166.296 143.513 166.506 143.671 166.558 143.934C167.082 146.513 167.92 148.987 169.021 151.303C169.073 151.408 169.073 151.566 169.021 151.671C168.968 151.777 168.864 151.882 168.759 151.934C165.982 153.145 162.943 153.882 159.799 153.934C159.589 153.987 159.38 153.829 159.275 153.619Z" fill="white"/>
<path fill-rule="evenodd" clip-rule="evenodd" d="M188.723 166.356C185.684 167.829 182.278 168.619 178.715 168.619C178.139 168.619 177.563 168.619 176.986 168.566C176.881 168.566 176.777 168.513 176.672 168.408C176.619 168.303 176.567 168.198 176.619 168.092C178.139 162.198 183.483 157.882 189.823 157.882C192.496 157.882 193.806 159.145 193.806 160.829C193.806 162.934 192.129 164.724 188.723 166.356Z" fill="white"/>
<path fill-rule="evenodd" clip-rule="evenodd" d="M168.654 166.355C170.436 167.198 172.374 167.882 174.418 168.25C174.68 168.303 174.889 168.145 174.942 167.882C175.413 165.987 176.252 164.198 177.352 162.619C177.509 162.408 177.509 162.092 177.3 161.934C174.837 159.408 171.379 157.829 167.554 157.829C164.881 157.829 163.572 159.092 163.572 160.776C163.519 162.934 165.196 164.724 168.654 166.355Z" fill="white"/>
<path d="M110.816 57.1128H110.443C109.952 57.1128 109.555 57.5102 109.555 58.0004V66.6174C109.555 67.1076 109.952 67.505 110.443 67.505H110.816C111.307 67.505 111.704 67.1076 111.704 66.6174V58.0004C111.704 57.5102 111.307 57.1128 110.816 57.1128Z" fill="#3F3D56"/>
<path d="M111.011 76.1418H110.365C109.874 76.1418 109.477 76.5392 109.477 77.0294V93.3412C109.477 93.8313 109.874 94.2287 110.365 94.2287H111.011C111.501 94.2287 111.899 93.8313 111.899 93.3412V77.0294C111.899 76.5392 111.501 76.1418 111.011 76.1418Z" fill="#3F3D56"/>
<path d="M110.933 100.558H110.404C109.913 100.558 109.516 100.955 109.516 101.445V117.912C109.516 118.403 109.913 118.8 110.404 118.8H110.933C111.423 118.8 111.821 118.403 111.821 117.912V101.445C111.821 100.955 111.423 100.558 110.933 100.558Z" fill="#3F3D56"/>
<path d="M80.9492 148.796C81.0108 148.856 81.09 148.894 81.175 148.905C81.2599 148.916 81.3461 148.899 81.4208 148.857C81.2615 148.859 81.1027 148.839 80.9492 148.796Z" fill="url(#paint0_linear)"/>
<path d="M98.7714 155.765L98.306 158.298L97.947 160.236L97.2939 163.781L90.9618 168.211C90.9618 168.211 90.391 167.723 89.4495 166.953C86.8544 164.818 81.4003 160.469 77.3952 158.135C76.3651 157.478 75.2505 156.965 74.082 156.609L98.7714 155.765Z" fill="#FEB9B9"/>
<path d="M94.1233 157.65C94.1233 157.65 101.506 158.916 101.939 155.765C102.371 152.613 98.1384 150.91 94.5514 150.698C90.9644 150.486 69.4355 151.965 69.4355 151.965C69.4355 151.965 65.638 157.027 79.3531 157.874L94.1233 157.65Z" fill="#3F3D56"/>
<path d="M110.272 53.6587H71.6484V99.4336H110.272V53.6587Z" fill="#2F2E41"/>
<path opacity="0.1" d="M110.272 53.8665H71.6484V99.6413H110.272V53.8665Z" fill="black"/>
<path d="M26.382 132.019C25.7461 132.179 24.9333 132.794 24.0293 133.683C20.1368 137.535 14.5616 146.574 14.5616 146.574C7.43378 138.088 15.3213 131.383 18.6834 129.079C19.5008 128.522 20.0499 128.215 20.0499 128.215L26.382 132.019Z" fill="#FEB9B9"/>
<path d="M98.3457 68.1057C98.3457 68.1057 100.246 81.3943 106.788 84.5585C113.33 87.7227 98.3457 93.6365 98.3457 93.6365L77.875 86.0368C77.875 86.0368 89.4837 82.2385 87.1609 71.0579L98.3457 68.1057Z" fill="#FEB9B9"/>
<path d="M76.3974 148.052L75.9344 150.577L75.5583 152.522L74.9052 156.067L68.5731 160.494C68.5731 160.494 68.0023 160.01 67.0608 159.24C64.4657 157.105 59.0119 152.756 55.0007 150.422C53.971 149.765 52.8563 149.251 51.6875 148.896L76.3974 148.052Z" fill="#FEB9B9"/>
<path d="M70.9194 151.166C70.9194 151.166 77.5455 151.213 77.9441 148.053C78.3427 144.892 74.3331 143.198 70.9194 142.986C67.5058 142.774 46.7648 144.351 46.7648 144.351C46.7648 144.351 43.8223 150.32 56.8685 151.166L70.9194 151.166Z" fill="#2F2E41"/>
<path d="M117.379 200.813C117.089 200.671 116.799 200.524 116.514 200.381L115.735 199.4L105.523 186.457V186.682C105.454 188.844 104.719 205.971 98.9838 207.553C92.8638 209.239 85.4808 209.663 82.1152 198.272C78.7497 186.881 72.6002 161.99 66.2852 160.512L75.6792 152.813C75.6792 152.813 81.8988 160.084 84.433 167.044C84.338 166.612 80.0429 146.553 83.5679 143.004H114.387C114.387 143.004 119.145 156.548 122.405 163.257C124.944 168.466 128.755 180.782 131.208 189.116C133.637 197.346 125.103 204.613 117.379 200.813Z" fill="#3F3D56"/>
<path opacity="0.1" d="M116.5 146.786C111.742 149.6 90.8561 148.455 84.0614 147.996L82.2101 147.862C82.0112 147.862 82.2404 147.75 82.2404 147.75L82.4308 145.835L87.4956 132.97L114.614 117.252C114.065 118.908 113.883 121.441 113.926 124.342C114.052 133.662 116.5 146.786 116.5 146.786Z" fill="black"/>
<path d="M116.499 146.151C111.741 148.965 90.8555 147.819 84.0607 147.361L82.2095 147.231L81.9023 147.205L82.2397 147.119L83.9091 146.687L87.4946 132.344L114.613 116.63C114.064 118.286 113.882 120.819 113.925 123.72C114.051 133.031 116.499 146.151 116.499 146.151Z" fill="#EFEFEF"/>
<path opacity="0.1" d="M113.908 123.711C108.393 124.981 96.2571 128.71 91.5944 137.717C88.4847 143.713 85.868 146.284 84.0427 147.361L82.1914 147.231C82.2035 147.194 82.2136 147.157 82.2217 147.119L83.8911 146.686L87.4765 132.343L114.595 116.63C114.052 118.277 113.864 120.81 113.908 123.711Z" fill="black"/>
<path opacity="0.1" d="M20.0501 128.224L26.3822 132.019C25.7463 132.18 24.9335 132.795 24.0296 133.684C23.5018 132.145 20.1905 129.996 18.6836 129.08C19.5007 128.531 20.0501 128.224 20.0501 128.224Z" fill="black"/>
<path opacity="0.1" d="M81.0652 147.478C80.9958 147.514 80.9168 147.527 80.8393 147.517C80.7618 147.506 80.6896 147.471 80.6328 147.417C80.7732 147.458 80.9189 147.479 81.0652 147.478Z" fill="black"/>
<path d="M95.3946 83.7156C95.3946 83.7156 89.6942 84.3466 85.6849 80.1277C85.6849 80.1277 68.8164 84.9822 63.1036 95.9492C57.3908 106.916 18.5547 128.435 18.5547 128.435C18.5547 128.435 25.3106 132.231 24.6747 134.129L50.2144 119.362C50.2144 119.362 59.2971 112.826 61.8188 111.347C64.3406 109.869 78.2845 100.8 81.2386 125.479C84.1927 150.158 81.2386 147.206 81.2386 147.206C81.2386 147.206 85.46 148.684 91.58 136.87C97.7 125.055 116.692 122.314 116.692 122.314L117.747 109.873C117.747 109.873 121.514 101.625 118.612 98.2014C117.733 97.1878 117.148 95.9529 116.921 94.6306C116.441 91.4707 116.921 86.2054 123.642 81.8308C133.983 75.0783 137.993 69.5972 137.993 69.5972C137.993 69.5972 138.204 65.5857 131.873 63.6877C125.541 61.7897 99.7933 51.4541 99.7933 51.4541L98.9281 55.0419L119.243 69.3724C119.243 69.3724 109.114 77.5856 101.078 77.3868C101.078 77.3868 102.57 83.5036 95.3946 83.7156Z" fill="#E30613"/>
<path opacity="0.1" d="M99.3029 73.8897C98.8038 72.1988 98.4138 70.4776 98.1353 68.7368L86.9505 71.6902C87.4436 73.8243 87.3555 76.0514 86.6953 78.1399C88.9821 78.7498 91.398 78.6718 93.6406 77.9158C95.8833 77.1598 97.8529 75.7593 99.3029 73.8897Z" fill="black"/>
<path d="M90.0126 77.9146C96.6556 77.9146 102.041 72.5322 102.041 65.8926C102.041 59.253 96.6556 53.8706 90.0126 53.8706C83.3696 53.8706 77.9844 59.253 77.9844 65.8926C77.9844 72.5322 83.3696 77.9146 90.0126 77.9146Z" fill="#FEB9B9"/>
<path opacity="0.1" d="M103.098 162.711C103.098 162.711 110.061 176.423 107.95 180.638L103.098 162.711Z" fill="black"/>
<path d="M96.4103 38.1268C99.7491 38.5074 102.92 39.938 106.207 40.7205C107.028 40.9757 107.903 41.0085 108.741 40.8154C110.017 40.422 111.055 39.0864 112.379 39.1252C113.193 39.1512 113.914 39.7046 114.584 40.236C115.66 41.0585 116.672 41.9602 117.612 42.9336C119.878 45.3932 121.284 48.7047 123.351 51.3805C125.418 54.0564 128.367 57.1942 131.303 55.9672C129.305 63.7482 123.074 68.6159 115.994 69.1003C113.17 69.2941 110.277 68.707 107.543 69.5325C106.862 69.8115 106.143 69.9863 105.41 70.0511C103.836 70.0511 102.569 68.6073 101.587 67.2024C99.2857 63.8998 97.465 60.1519 94.8742 57.1388C94.0091 56.1404 93.0102 55.1935 91.7991 55.0122C90.5881 54.8308 89.4767 55.4098 88.3998 55.9675C86.6222 56.8884 84.8058 57.8392 83.4261 59.4259C82.0464 61.0127 81.177 63.3552 81.7478 65.478C82.0549 66.628 82.756 67.6655 82.7684 68.867C82.7944 70.7863 81.099 72.187 80.7659 74.0544C80.6907 74.8388 80.6633 75.627 80.6837 76.4148C80.5367 78.9728 78.8611 81.0658 77.1161 82.6785C76.4328 83.3009 75.6813 83.9753 75.4812 84.9392C75.347 85.6004 75.4812 86.2958 75.3947 86.9667C75.1396 88.6267 73.483 89.4697 72.0168 89.6859C70.3037 89.9395 68.5539 89.7321 66.9477 89.0852C68.9979 88.1162 70.2609 85.359 69.7851 82.8905C69.132 79.4666 65.6893 77.007 65.9848 73.523C66.1466 72.454 66.4674 71.4152 66.9364 70.441C67.6866 68.5583 68.2319 66.6003 68.5628 64.6009C68.8222 63.0576 68.9479 61.4193 68.4631 59.9453C68.0307 58.605 67.1268 57.5376 66.361 56.4047C65.3231 54.8636 64.5037 53.1862 63.9261 51.4204C63.7167 50.8967 63.6369 50.3301 63.6934 49.769C63.8668 49.1062 64.2362 48.5111 64.7532 48.0613C66.6347 46.0846 68.6458 44.0324 71.1675 43.4661C72.3707 43.2664 73.5943 43.22 74.8092 43.3277C76.9221 43.394 79.037 43.3043 81.1366 43.0595C82.8665 42.8565 85.79 42.8824 87.2566 41.7627C88.6232 40.7162 89.3933 39.4023 91.0755 38.7369C92.7792 38.1057 94.6104 37.8965 96.4126 38.1272L96.4103 38.1268Z" fill="#2F2E41"/>
<path d="M319.905 288.98C329.542 288.98 337.354 287.659 337.354 286.031C337.354 284.402 329.542 283.082 319.905 283.082C310.269 283.082 302.457 284.402 302.457 286.031C302.457 287.659 310.269 288.98 319.905 288.98Z" fill="#E30613"/>
<path d="M327.121 281.208C327.917 280.558 328.496 279.682 328.783 278.697C329 277.704 328.575 276.526 327.62 276.142C326.552 275.734 325.41 276.476 324.548 277.222C323.686 277.968 322.691 278.822 321.558 278.662C322.141 278.135 322.578 277.466 322.825 276.721C323.072 275.975 323.122 275.178 322.97 274.407C322.919 274.088 322.782 273.788 322.575 273.54C321.985 272.907 320.908 273.176 320.201 273.679C317.945 275.262 317.316 278.33 317.303 281.081C317.073 280.089 317.268 279.052 317.259 278.046C317.251 277.039 316.977 275.875 316.114 275.344C315.581 275.058 314.982 274.917 314.378 274.936C313.363 274.897 312.234 275.001 311.54 275.743C310.672 276.662 310.907 278.206 311.653 279.212C312.4 280.218 313.541 280.864 314.591 281.563C315.43 282.064 316.146 282.747 316.685 283.562C316.75 283.676 316.802 283.797 316.84 283.922H323.18C324.609 283.199 325.935 282.287 327.12 281.209L327.121 281.208Z" fill="#E30613"/>
<path d="M82.6789 290.281C89.0383 290.281 94.1937 289.41 94.1937 288.335C94.1937 287.26 89.0383 286.388 82.6789 286.388C76.3194 286.388 71.1641 287.26 71.1641 288.335C71.1641 289.41 76.3194 290.281 82.6789 290.281Z" fill="#EFEFEF"/>
<path d="M87.4434 285.152C87.9681 284.723 88.3505 284.145 88.54 283.495C88.6235 283.168 88.593 282.823 88.4534 282.517C88.3138 282.21 88.0736 281.96 87.7726 281.809C87.068 281.54 86.3149 282.029 85.7453 282.522C85.1756 283.014 84.5195 283.578 83.7723 283.472C84.1569 283.124 84.4448 282.683 84.6079 282.191C84.771 281.699 84.8037 281.173 84.7029 280.664C84.6694 280.453 84.5793 280.256 84.4423 280.092C84.0545 279.674 83.3426 279.851 82.8761 280.183C81.387 281.23 80.9717 283.251 80.9631 285.069C80.8115 284.414 80.9403 283.73 80.9344 283.066C80.9286 282.402 80.7483 281.635 80.1783 281.283C79.8267 281.094 79.4316 281.001 79.0328 281.014C78.3627 280.988 77.6181 281.057 77.1598 281.546C76.587 282.153 76.7417 283.172 77.2342 283.836C77.7267 284.5 78.4798 284.927 79.1731 285.387C79.7274 285.716 80.2001 286.167 80.5564 286.704C80.5993 286.78 80.6339 286.859 80.6595 286.942H84.8433C85.7867 286.464 86.6613 285.861 87.4434 285.15V285.152Z" fill="#EFEFEF"/>
<path d="M17.5578 290.281C23.9173 290.281 29.0726 289.41 29.0726 288.335C29.0726 287.26 23.9173 286.388 17.5578 286.388C11.1983 286.388 6.04297 287.26 6.04297 288.335C6.04297 289.41 11.1983 290.281 17.5578 290.281Z" fill="#EFEFEF"/>
<path d="M22.3223 285.152C22.847 284.723 23.2294 284.145 23.4189 283.495C23.5024 283.168 23.4719 282.823 23.3323 282.517C23.1927 282.21 22.9525 281.96 22.6515 281.809C21.9469 281.54 21.1938 282.029 20.6242 282.522C20.0545 283.014 19.3984 283.578 18.6512 283.472C19.0358 283.124 19.3237 282.683 19.4868 282.191C19.6499 281.699 19.6826 281.173 19.5818 280.664C19.5483 280.453 19.4582 280.256 19.3212 280.092C18.9334 279.674 18.2215 279.851 17.755 280.183C16.2659 281.23 15.8506 283.251 15.8421 285.069C15.6904 284.414 15.8192 283.73 15.8133 283.066C15.8075 282.402 15.6272 281.635 15.0572 281.283C14.7056 281.094 14.3105 281.001 13.9117 281.014C13.2416 280.988 12.497 281.057 12.0387 281.546C11.4659 282.153 11.6206 283.172 12.1131 283.836C12.6056 284.5 13.3587 284.927 14.052 285.387C14.6063 285.716 15.079 286.167 15.4353 286.704C15.4782 286.78 15.5128 286.859 15.5384 286.942H19.7222C20.6656 286.464 21.5402 285.861 22.3223 285.15V285.152Z" fill="#EFEFEF"/>
<path d="M350 289.17H0V289.875H350V289.17Z" fill="#2F2E41"/>
<path d="M332.917 19.5822C332.917 19.5822 296.38 17.3788 300.685 42.9677C300.685 42.9677 299.817 47.4912 303.93 49.5426C303.93 49.5426 303.995 47.6474 307.679 48.2935C308.991 48.5107 310.324 48.5747 311.65 48.4841C313.439 48.3665 315.142 47.6709 316.501 46.5021C316.501 46.5021 326.772 42.2604 330.765 25.4847C330.765 25.4847 333.719 21.8244 333.602 20.8829L327.437 23.5154C327.437 23.5154 329.545 27.961 327.871 31.6546C327.871 31.6546 327.671 23.6743 326.486 23.8479C326.248 23.8828 323.284 25.3874 323.284 25.3874C323.284 25.3874 326.907 33.129 324.173 38.759C324.173 38.759 325.21 29.2175 322.151 25.9471L317.812 28.4799C317.812 28.4799 322.047 36.4777 319.174 43.0049C319.174 43.0049 319.911 32.9949 316.896 29.0958L312.965 32.1619C312.965 32.1619 316.944 40.0422 314.518 45.456C314.518 45.456 314.202 33.8065 312.114 32.9263C312.114 32.9263 308.673 35.9622 308.148 37.2024C308.148 37.2024 310.873 42.9274 309.181 45.9459C309.181 45.9459 308.144 38.1826 307.293 38.1392C307.293 38.1392 303.865 43.2828 303.509 46.8133C303.509 46.8133 303.657 41.5697 306.464 37.6536C306.464 37.6536 303.149 38.2218 301.213 40.3667C301.213 40.3667 301.747 36.7323 307.31 36.4114C307.31 36.4114 310.143 32.5081 310.898 32.274C310.898 32.274 305.37 31.8089 302.016 33.2976C302.016 33.2976 304.966 29.8671 311.914 31.4283L315.798 28.2578C315.798 28.2578 308.516 27.2645 305.427 28.3621C305.427 28.3621 308.981 25.3262 316.844 27.5381L321.07 25.0138C321.07 25.0138 314.861 23.6778 311.164 24.1464C311.164 24.1464 315.069 22.043 322.311 24.3243L325.349 22.9677C325.349 22.9677 320.801 22.0744 319.469 21.9314C318.136 21.7883 318.067 21.424 318.067 21.424C320.948 20.9439 323.906 21.2728 326.611 22.374C326.611 22.374 333.026 19.9857 332.917 19.5822Z" fill="#E30613"/>
<path d="M282.852 6.03503C282.852 6.03503 266.363 5.04166 268.289 16.6044C268.289 16.6044 267.902 18.6473 269.756 19.5752C269.756 19.5752 269.786 18.7078 271.453 19.007C272.044 19.1066 272.646 19.1357 273.244 19.0938C274.054 19.0403 274.824 18.7234 275.436 18.1915C275.436 18.1915 280.079 16.2745 281.884 8.69345C281.884 8.69345 283.216 7.04119 283.164 6.61602L280.378 7.80434C280.378 7.80434 281.328 9.81239 280.582 11.4821C280.582 11.4821 280.491 7.87759 279.957 7.96053C279.848 7.96053 278.507 8.65818 278.507 8.65818C278.507 8.65818 280.148 12.158 278.911 14.6998C278.911 14.6998 279.38 10.3887 277.996 8.90972L276.034 10.0725C276.034 10.0725 277.948 13.6851 276.65 16.6346C276.65 16.6346 276.985 12.1111 275.622 10.3504L273.847 11.7383C273.847 11.7383 275.644 15.299 274.55 17.7458C274.55 17.7458 274.403 12.4805 273.461 12.0817C273.461 12.0817 271.907 13.4522 271.669 14.0161C271.669 14.0161 272.901 16.6183 272.137 17.9671C272.137 17.9671 271.669 14.4583 271.269 14.4401C271.269 14.4401 269.72 16.7656 269.56 18.3434C269.637 16.8715 270.098 15.4453 270.896 14.206C270.002 14.3753 269.177 14.8019 268.523 15.4335C268.523 15.4335 268.766 13.7898 271.278 13.6467C271.278 13.6467 272.58 11.8817 272.901 11.7732C272.901 11.7732 270.402 11.565 268.887 12.2383C268.887 12.2383 270.219 10.6899 273.357 11.3926L275.093 9.96123C275.093 9.96123 271.8 9.52326 270.404 10.0062C270.404 10.0062 272.01 8.6357 275.564 9.63333L277.473 8.49268C277.473 8.49268 274.666 7.88999 272.995 8.1051C272.995 8.1051 274.761 7.15514 278.033 8.18262L279.4 7.57101C279.4 7.57101 277.345 7.16754 276.74 7.10243C276.135 7.03731 276.106 6.87259 276.106 6.87259C277.409 6.656 278.746 6.80618 279.968 7.30629C279.968 7.30629 282.903 6.21564 282.852 6.03503Z" fill="#3F3D56"/>
<path d="M28.567 182.554C28.567 182.554 12.0777 181.56 14.0042 193.123C14.0042 193.123 13.6164 195.166 15.4708 196.094C15.4708 196.094 15.5011 195.227 17.1674 195.526C17.7591 195.625 18.3606 195.654 18.9593 195.613C19.7687 195.559 20.5384 195.242 21.1506 194.71C21.1506 194.71 25.7936 192.793 27.5987 185.212C27.5987 185.212 28.9307 183.56 28.8784 183.135L26.0926 184.323C26.0926 184.323 27.043 186.331 26.2965 188.001C26.2965 188.001 26.2054 184.396 25.6718 184.479C25.5632 184.479 24.2223 185.177 24.2223 185.177C24.2223 185.177 25.8626 188.677 24.626 191.219C24.626 191.219 25.0944 186.908 23.7104 185.429L21.749 186.591C21.749 186.591 23.6627 190.204 22.3652 193.153C22.3652 193.153 22.6995 188.63 21.3368 186.869L19.5619 188.257C19.5619 188.257 21.3585 191.818 20.265 194.265C20.265 194.265 20.1176 188.999 19.1757 188.6C19.1757 188.6 17.6222 189.971 17.3834 190.535C17.3834 190.535 18.6157 193.137 17.8522 194.486C17.8522 194.486 17.3834 190.977 16.9843 190.959C16.9843 190.959 15.4351 193.284 15.2746 194.862C15.3522 193.39 15.8129 191.964 16.6113 190.725C15.7173 190.894 14.8923 191.321 14.2377 191.952C14.2377 191.952 14.4808 190.309 16.9932 190.166C16.9932 190.166 18.295 188.4 18.6161 188.292C18.6161 188.292 16.1169 188.084 14.6022 188.757C14.6022 188.757 15.9342 187.209 19.0718 187.911L20.8075 186.48C20.8075 186.48 17.5152 186.042 16.1192 186.525C16.1192 186.525 17.7246 185.154 21.2786 186.152L23.1881 185.011C23.1881 185.011 20.3805 184.409 18.71 184.624C18.71 184.624 20.4759 183.674 23.748 184.701L25.115 184.09C25.115 184.09 23.0597 183.686 22.4548 183.621C21.8498 183.556 21.8211 183.391 21.8211 183.391C23.1238 183.175 24.461 183.325 25.6831 183.825C25.6831 183.825 28.6178 182.734 28.567 182.554Z" fill="#3F3D56"/>
<path d="M154.8 83.256H151.728V80.112C150.624 79.776 149.376 79.776 148.272 80.112V83.256H145.2C144.864 84.384 144.864 85.704 145.2 86.832H148.272V89.976C149.376 90.312 150.624 90.312 151.728 89.976V86.832H154.8C155.136 85.704 155.136 84.384 154.8 83.256ZM174.065 89.472H171.953V77.184C170.801 76.824 169.505 76.824 168.353 77.184C167.201 78.84 165.497 80.664 163.673 82.152C163.865 83.16 164.513 84.072 165.257 84.552C166.193 84.096 167.105 83.496 167.801 82.872V89.472H165.641C165.281 90.6 165.281 91.896 165.641 93.024H174.065C174.401 91.896 174.401 90.6 174.065 89.472ZM181.856 82.704C181.136 82.704 180.416 82.92 179.912 83.28V80.664H184.928C185.24 79.512 185.24 78.192 184.928 77.016H176.36V84.96C176.768 85.8 177.536 86.376 178.544 86.568C178.976 86.112 179.6 85.848 180.248 85.848C181.352 85.848 181.976 86.424 181.976 87.408C181.976 88.752 180.944 89.472 179.048 89.472C178.016 89.472 177.008 89.28 176.216 88.944C175.592 89.76 175.232 91.032 175.28 92.304C176.432 92.904 177.992 93.24 179.552 93.24C183.752 93.24 186.152 91.128 186.152 87.408C186.152 84.432 184.592 82.704 181.856 82.704ZM193.419 93.288C193.923 94.128 194.931 94.704 196.203 94.848L205.875 76.176C205.275 75.288 204.267 74.736 203.115 74.616L193.419 93.288ZM191.979 86.184C194.979 86.184 196.683 84.384 196.683 81.24C196.683 78.096 194.979 76.296 191.979 76.296C188.979 76.296 187.299 78.096 187.299 81.24C187.299 84.384 188.979 86.184 191.979 86.184ZM191.979 83.376C190.875 83.376 190.419 82.776 190.419 81.24C190.419 79.728 190.923 79.056 191.979 79.056C193.107 79.056 193.563 79.704 193.563 81.24C193.563 82.752 193.083 83.376 191.979 83.376ZM207.243 93.144C210.243 93.144 211.923 91.344 211.923 88.2C211.923 85.056 210.243 83.256 207.243 83.256C204.243 83.256 202.563 85.056 202.563 88.2C202.563 91.344 204.219 93.144 207.243 93.144ZM207.243 90.336C206.115 90.336 205.659 89.736 205.659 88.2C205.659 86.688 206.163 86.016 207.243 86.016C208.371 86.016 208.827 86.664 208.827 88.2C208.827 89.712 208.347 90.336 207.243 90.336Z" fill="#E30613"/>
</g>
<defs>
<linearGradient id="paint0_linear" x1="81.1874" y1="148.909" x2="81.1874" y2="148.796" gradientUnits="userSpaceOnUse">
<stop stop-color="#808080" stop-opacity="0.251"/>
<stop offset="0.54" stop-color="#808080" stop-opacity="0.122"/>
<stop offset="1" stop-color="#808080" stop-opacity="0.102"/>
</linearGradient>
<clipPath id="clip0">
<rect width="350" height="290.281" fill="white"/>
</clipPath>
</defs>
</svg>
