<svg width="25px" height="25px" viewBox="0 0 25 25" version="1.1" xmlns="http://www.w3.org/2000/svg" xmlns:xlink="http://www.w3.org/1999/xlink">
    <g stroke="none" stroke-width="1" fill="none" fill-rule="evenodd">
        <g fill-rule="nonzero">
            <path d="M12.5,25 C5.59644063,25 0,19.4035594 0,12.5 C0,5.59644063 5.59644063,0 12.5,0 C19.4035594,0 25,5.59644063 25,12.5 C25,19.4035594 19.4035594,25 12.5,25 Z" fill="#AD5CB7"></path>
            <path d="M12.4416892,9.12855735 L12.6294832,8.93738426 L12.823606,8.75705952 L13.0118928,8.5919267 L13.1571593,8.48756854 L13.3342316,8.37468518 L13.5282699,8.27315 L13.7074824,8.19286799 L13.9613027,8.10421566 L14.3029166,8.00566537 C14.4141925,7.97752018 14.4698305,7.96344761 14.4698305,7.96344761 C14.4698305,7.96344761 14.5349417,7.95465254 14.6651641,7.9370624 C14.7615766,7.92816407 14.8097829,7.92371494 14.8097829,7.92371494 C14.8097829,7.92371494 14.9655387,7.92371494 14.9832579,7.92371494 C15.0009771,7.92371494 15.0957259,7.92371494 15.115008,7.92371494 C15.1278627,7.92371494 15.1890762,7.92371494 15.2986485,7.92371494 L15.4500396,7.9370624 L15.6453521,7.96344761 L15.8136176,7.99491557 L15.9805527,8.03710516 L16.222166,8.10421566 L16.3850813,8.17517696 L16.6047234,8.27315 L16.7564876,8.3883917 L16.8981497,8.48756854 L17.0574817,8.5919267 L17.1836351,8.69598212 L17.3352938,8.84235386 L17.4402503,8.96286837 L17.5944785,9.12855735 L17.7058553,9.29315516 L17.8456237,9.52846081 L17.9318896,9.70028852 L18.0218231,9.89551655 L18.1005282,10.1049861 L18.150715,10.3063317 L18.1808172,10.4596166 L18.2015495,10.5910569 L18.2219157,10.798689 L18.2219157,11.0771276 L18.2219157,11.2419225 L18.2219157,11.4155243 L18.2015495,11.5453454 L18.1808172,11.7267191 L18.1270542,12.0058687 L18.0662514,12.2194354 L17.998099,12.4273843 L17.9041809,12.6542 L17.8293899,12.8117651 L17.7281856,13.035096 L17.6316768,13.2148998 L17.5170969,13.3976251 L17.4281982,13.5342115 L17.2777574,13.7507068 L17.1456131,13.9287577 L16.9846267,14.122444 L16.7870193,14.3791436 L16.6304891,14.5558499 L16.4530507,14.7541755 L16.2890583,14.9277913 L16.0544918,15.1741776 L15.9069655,15.3294969 L15.7829734,15.4596137 L15.5467243,15.678939 L15.3897858,15.8322379 L15.1962615,16.0170752 L15.0422797,16.1712963 L14.865496,16.3301004 L14.6514013,16.5150221 L14.5260645,16.6388876 L14.3544621,16.7809932 L14.1702936,16.9620501 L13.9613027,17.1324346 L13.7707632,17.3068389 L13.5810544,17.4737105 L13.4249537,17.6078682 L13.2784129,17.7372247 L13.1889792,17.8417307 L13.0701824,17.9476165 L12.9912028,18.0305877 L12.8437891,18.1716303 L12.7030915,18.3310679 L12.5934394,18.4203116 L12.4860612,18.5350042 L12.4509818,18.5707101 C12.4038479,18.5469062 12.380281,18.5350042 12.380281,18.5350042 C12.380281,18.5350042 12.3255535,18.4730022 12.2160985,18.3489983 L12.0125987,18.1509403 L11.8550759,17.9922207 L11.6913792,17.8179784 L11.499481,17.6466435 L11.304957,17.4737105 L11.1324324,17.3068389 L10.8289109,17.0532578 L10.5620669,16.8225844 L10.3386585,16.6158533 L10.1744057,16.4591894 L9.96360559,16.2684246 L9.76800447,16.0737527 L9.50696828,15.8427413 L9.36899504,15.7011637 L9.22225724,15.5524336 L9.01613864,15.3627389 L8.85504666,15.1741776 L8.6804312,14.9864962 L8.50249997,14.8034048 L8.3524605,14.6372864 L8.20417393,14.4743078 L8.07673927,14.3332511 L7.93637956,14.1483575 L7.7929575,13.9636892 L7.65891949,13.7916362 L7.535047,13.6308963 L7.44788005,13.4667279 L7.31737607,13.269754 L7.17214475,13.035096 L7.05883198,12.7902796 L6.95538195,12.5289618 L6.84140744,12.2809634 L6.78311076,12.0820535 L6.73414888,11.8732738 C6.70079896,11.7239876 6.68412399,11.6453858 6.68412399,11.6374683 C6.68412399,11.6295509 6.67638255,11.5590988 6.66089965,11.4261121 L6.66089965,11.1162689 L6.66089965,10.9080947 L6.67491592,10.6681991 L6.69560591,10.5037702 L6.74403982,10.264818 L6.80108339,10.0728423 L6.90639896,9.82023985 L6.99414317,9.6322769 L7.0948406,9.41571825 L7.21025127,9.25110637 L7.35850966,9.05632889 L7.49809504,8.90135453 L7.65891949,8.73836179 L7.83339415,8.5919267 L7.98420802,8.48756854 C8.084469,8.42145063 8.13459948,8.3883917 8.13459948,8.3883917 C8.13459948,8.3883917 8.19561119,8.3499778 8.31763454,8.27315 L8.4462167,8.20905251 C8.56471078,8.15812183 8.62883405,8.13265649 8.63858656,8.13265649 C8.64833904,8.13265649 8.69981883,8.11146667 8.79302592,8.06908702 L8.93722938,8.01675306 L9.07413258,7.98461632 L9.211606,7.96344761 L9.34293365,7.9370624 L9.53086845,7.92371494 L9.71465678,7.90080738 C9.81357549,7.91607907 9.86303486,7.92371494 9.86303486,7.92371494 C9.86303486,7.92371494 9.92594495,7.92371494 10.0517651,7.92371494 L10.2154055,7.9370624 C10.3712857,7.95465254 10.4492258,7.96344761 10.4492258,7.96344761 C10.4492258,7.96344761 10.5074145,7.97752018 10.623792,8.00566537 L10.8142329,8.04820692 L10.9946351,8.10421566 L11.1764241,8.19286799 L11.4088294,8.29403711 L11.6403899,8.43476995 L11.8763221,8.58251448 L12.0226938,8.71047007 L12.1692063,8.84235386 L12.3007734,8.97213276 L12.380281,9.05632889 L12.4416892,9.12855735 Z" fill="#FFFFFF"></path>
        </g>
    </g>
</svg>