<svg width="25px" height="25px" viewBox="0 0 25 25" version="1.1" xmlns="http://www.w3.org/2000/svg" xmlns:xlink="http://www.w3.org/1999/xlink">
    <g stroke="none" stroke-width="1" fill="none" fill-rule="evenodd">
        <g fill-rule="nonzero">
            <path d="M12.5,25 C5.59644063,25 0,19.4035594 0,12.5 C0,5.59644063 5.59644063,0 12.5,0 C19.4035594,0 25,5.59644063 25,12.5 C25,19.4035594 19.4035594,25 12.5,25 Z" fill="#FE3E10"></path>
            <path d="M10.0503713,13.5835465 L9.9789735,13.5009836 L9.88627327,13.3838834 L9.80076773,13.2528514 L9.72318198,13.0973561 L9.67326269,12.9469153 L9.63350185,12.7696318 L9.60779948,12.5467232 L9.60779948,12.2888761 L9.60779948,12.0940634 L9.65298803,11.766135 L9.71008088,11.5059928 L9.82908538,11.1725593 L9.74101381,11.2086594 L9.5484891,11.2960868 L9.35062817,11.4131589 L9.03418166,11.6184609 L8.84012223,11.766135 L8.56694239,12.029093 L8.33793737,12.348799 L8.23259366,12.5467232 L8.1142474,12.7811067 L8.0662359,12.9469153 L8.02273691,13.0973561 L7.99300075,13.2898245 L7.96899498,13.5512056 L7.96899498,13.7470883 L7.95201497,13.8894192 L7.77082434,13.7792321 L7.56832416,13.6249758 L7.38621837,13.4364989 L7.23279273,13.2528514 L7.12165525,13.0413966 L7.04166892,12.8137292 L7.00692042,12.662859 L7.00692042,12.4857585 L7.02215456,12.3053281 L7.07220058,12.144201 L7.18593576,11.9635946 L7.31131476,11.8291765 L7.44337457,11.6783415 L7.58355833,11.5226983 L7.72115845,11.3474282 L7.88687561,11.1370857 L8.04023082,10.8921495 L8.19169939,10.6359216 L8.29087624,10.394801 L8.3877581,10.1495692 L8.4745449,9.8989731 L8.52864585,9.63945753 L8.56694239,9.3820891 L8.57862145,9.17339392 L8.57862145,8.92289634 L8.56694239,8.69465865 L8.55714299,8.50211277 L8.50744193,8.26677898 L8.43966967,8.05000208 L8.34708913,7.83433749 L8.29087624,7.69549836 L8.27194619,7.59055591 L8.3002955,7.47781332 L8.36880695,7.39799596 L8.43966967,7.35140649 L8.50744193,7.32410611 L8.60125444,7.32410611 L8.69647491,7.35140649 L8.82321263,7.41841845 L8.9762581,7.51029501 L9.14861378,7.61827163 L9.39551401,7.78439002 L9.63350185,7.95684426 L9.82908538,8.12511687 L10.0503713,8.34544181 L10.2338076,8.53766384 L10.4525345,8.80938642 L10.6428347,9.0903171 L10.8472567,9.46015355 L11.019908,9.82528036 L11.1214643,10.1939623 L11.1706444,10.4252764 L11.2149037,10.8281577 L11.2253649,11.2187334 L11.2149037,11.6783415 L11.1214643,12.05438 L11.019908,12.3242511 L10.7928389,12.7696318 L10.5936757,13.0413966 L10.3930903,13.2798491 L10.2192774,13.4632643 L10.0633104,13.5835465 L10.0503713,13.5835465 Z M7.9488752,15.5265834 L8.00552457,15.5069635 L8.15436375,15.4846755 C8.30734821,15.4650438 8.38384046,15.4534656 8.38384046,15.449941 C8.38384046,15.4446541 8.58225398,15.4284133 8.58225398,15.4284133 C8.58225398,15.4284133 8.66168065,15.418818 8.82053397,15.3996275 L9.04420986,15.3358187 C9.17429149,15.296032 9.2393323,15.2761387 9.2393323,15.2761387 C9.2393323,15.2761387 9.30958022,15.2584899 9.45007607,15.2231923 L9.64422347,15.1567294 L9.9637464,15.0243035 L10.2790947,14.8749821 L10.6990722,14.646396 C10.8929204,14.5250789 10.9898445,14.4644204 10.9898445,14.4644204 C10.9898445,14.4644204 11.2697087,14.293895 11.2697087,14.2868341 C11.2697087,14.2821268 11.3704073,14.2038336 11.5718045,14.0519544 L11.8225555,13.8433261 L12.0666011,13.6276826 L12.2665106,13.4440702 L12.4915487,13.2008518 L12.7261645,12.9585064 L12.9039232,12.7403497 L13.1128648,12.5021049 L13.2902082,12.2805902 L13.4561048,12.0481357 C13.5855646,11.8862247 13.6502945,11.8052693 13.6502945,11.8052693 C13.6502945,11.8052693 13.6895614,11.7669011 13.7680951,11.6901649 L13.9475364,11.5170277 C14.0794319,11.4241633 14.1453797,11.377731 14.1453797,11.377731 C14.1453797,11.377731 14.1820759,11.3532888 14.2554683,11.3044044 L14.5513796,11.1483986 L14.6699336,11.0882927 L14.9229549,10.9974827 L15.0706748,10.9508052 L15.2068071,10.9282779 L15.2869448,10.9059933 L15.4247948,10.8923326 L15.5227538,10.882864 L15.6317934,10.8778552 L15.7713964,10.8708189 L15.9231184,10.882864 C15.97981,10.8891764 16.0101269,10.8923326 16.0140692,10.8923326 C16.0180115,10.8923326 16.0547006,10.8968862 16.1241366,10.9059933 L16.2181674,10.9233922 L16.3022192,10.9508052 L16.4133743,10.9884788 L16.5102386,11.0333048 L16.6289861,11.0802638 L16.7256955,11.1377404 L16.8361431,11.1952591 L16.9527435,11.2912927 L17.0516634,11.3895755 L17.176173,11.5078161 L17.269454,11.6440752 L17.3479654,11.7510874 L17.42427,11.8896766 L17.4908736,12.0707863 L17.5304127,12.1837964 L17.5672661,12.3118048 L17.5915781,12.4625377 C17.6026752,12.5628151 17.6082237,12.6147618 17.6082237,12.6183779 C17.6082237,12.6219941 17.6119771,12.6726056 17.6194839,12.7702126 L17.6194839,13.0356345 L17.601029,13.2427739 L17.582715,13.4033027 L17.5672661,13.5098186 L17.5304127,13.6715441 L17.4908736,13.804139 L17.4393035,13.9654703 L17.4032491,14.060909 L17.3378246,14.2443031 L17.2598693,14.4104004 L17.176173,14.565593 L17.0822443,14.7462345 L16.9969358,14.8627223 L16.8928135,14.9918042 C16.8550332,15.0354347 16.8361431,15.0572499 16.8361431,15.0572499 C16.8361431,15.0572499 16.7689798,15.1269193 16.6346531,15.2662583 L16.4437863,15.449941 L16.1390399,15.7305127 L15.9777895,15.8574651 L15.7094003,16.0628938 L15.3586769,16.3143488 L15.1072219,16.4753457 C14.8661084,16.6227218 14.7455517,16.6964099 14.7455517,16.6964099 C14.7455517,16.6964099 14.6758763,16.7328831 14.5365256,16.8058296 L14.1453797,17.0057743 L13.8385566,17.1317905 L13.3470652,17.2903587 C13.2051942,17.3352046 13.1342588,17.3576276 13.1342588,17.3576276 C13.1342588,17.3576276 13.0229476,17.3888972 12.8003253,17.4514366 L12.4143677,17.5259037 C12.2760261,17.5515826 12.2048911,17.564422 12.2009629,17.564422 C12.1970347,17.564422 12.1186183,17.5756529 11.9657136,17.5981145 L11.6671658,17.6398923 L11.3585194,17.662828 L10.8984819,17.6684845 C10.6913026,17.6647135 10.5800865,17.662828 10.5648336,17.662828 C10.5495806,17.662828 10.4417577,17.6519703 10.2413648,17.6302548 C10.0837341,17.608828 10.0015818,17.5981145 9.9949081,17.5981145 C9.98489749,17.5981145 9.68143942,17.5548831 9.6711402,17.5548831 C9.66084095,17.5548831 9.48389178,17.5175685 9.46605995,17.5175685 C9.45417206,17.5175685 9.38086298,17.5020188 9.24613276,17.4709192 L9.05026058,17.4276103 C8.93305712,17.3960907 8.86966246,17.3781428 8.86007659,17.3737663 C8.84569778,17.3672017 8.67130407,17.3195528 8.66188832,17.3195528 C8.65561116,17.3195528 8.58301782,17.2959612 8.44410828,17.248778 L8.22440283,17.1716956 L8.09483864,17.1246239 C8.00941759,17.0839784 7.96670704,17.0636557 7.96670704,17.0636557 C7.96670704,17.0636557 7.90980075,17.0374957 7.79598812,16.9851758 L7.63277364,16.9036548 L7.46892909,16.8058296 L7.2343626,16.6676381 C6.99581629,16.4879447 6.87654314,16.3980979 6.87654314,16.3980979 C6.87654314,16.3980979 6.81111044,16.3275918 6.68024504,16.1865798 L6.51438711,15.9881275 L6.46248965,15.8472609 L6.43021915,15.782213 L6.43021915,15.7251343 L6.43021915,15.6629868 L6.46248965,15.6114413 C6.51960597,15.5731354 6.55404002,15.5539824 6.56579181,15.5539824 C6.5775436,15.5539824 6.64553878,15.5448494 6.76977736,15.5265834 L7.00378065,15.5265834 C7.23107266,15.5265834 7.35332601,15.5265834 7.37054072,15.5265834 C7.38775539,15.5265834 7.58053356,15.5265834 7.9488752,15.5265834 Z M17.0891151,10.4209997 C17.0891151,10.4209997 17.0917932,10.4107567 17.0971493,10.3902709 C17.1096837,10.3623815 17.1159509,10.3468681 17.1159509,10.3437307 C17.1159509,10.3390246 17.1465494,10.2925583 17.1465494,10.2925583 C17.1465494,10.2925583 17.1643496,10.2594683 17.1999499,10.1932882 L17.2436178,10.0636677 L17.2908356,9.90905234 L17.3046354,9.83856096 L17.337895,9.70372572 L17.3427208,9.39711029 L17.3265415,9.24064873 C17.3119375,9.19061799 17.3046354,9.16454781 17.3046354,9.16243821 C17.3046354,9.1603286 17.2964575,9.13497298 17.2801017,9.08637128 L17.2397072,8.99540637 L17.1646224,8.87828682 L17.1035678,8.79895695 C17.0688898,8.74097474 17.0515507,8.71198362 17.0515507,8.71198362 C17.0515507,8.71198362 17.0417202,8.69332578 17.0220592,8.65601009 L16.9908728,8.59515444 C16.9861925,8.53686949 16.9838524,8.50705825 16.9838524,8.5057207 C16.9838524,8.50438313 16.9838524,8.45453599 16.9838524,8.35617927 C16.9885327,8.30992304 16.9908728,8.28527901 16.9908728,8.2822472 C16.9908728,8.27769948 17.0093594,8.20418273 17.0093594,8.20168359 C17.0093594,8.2000175 17.0202036,8.18435334 17.0418921,8.15469112 L17.0844636,8.07886179 L17.119462,8.04018506 L17.1876408,7.96866765 C17.2157097,7.95005908 17.2297441,7.94075479 17.2297441,7.94075479 C17.2297441,7.94075479 17.2441417,7.9267532 17.2729369,7.89875 L17.3165256,7.87684386 C17.360054,7.85922909 17.3840979,7.84965672 17.3886573,7.84812673 C17.3954965,7.84583175 17.4269134,7.83825337 17.4269134,7.83825337 C17.4269134,7.83825337 17.4517692,7.83270075 17.5014808,7.82159544 C17.5464124,7.81673328 17.5696907,7.81430219 17.5713157,7.81430219 C17.5737533,7.81430219 17.6371098,7.81713749 17.6460644,7.81713749 C17.6520342,7.81713749 17.6788359,7.82076649 17.7264696,7.82802454 C17.7636281,7.83896557 17.7830656,7.8444361 17.7847822,7.8444361 C17.787357,7.8444361 17.8377954,7.86284521 17.8458842,7.86519299 C17.8539729,7.86754074 17.8775563,7.88039544 17.8911907,7.88582843 C17.904825,7.89126139 17.9413563,7.93338939 17.9433116,7.93338939 C17.9446152,7.93338939 17.9645032,7.95317829 18.0029758,7.99275611 C18.041507,8.03261785 18.0627432,8.05560695 18.0666843,8.06172336 C18.0706254,8.06783979 18.09094,8.08418388 18.127628,8.11075565 L18.2543076,8.29769429 C18.297356,8.36336869 18.3188802,8.39620588 18.3188802,8.39620588 C18.3188802,8.39620588 18.3392464,8.44420332 18.3799788,8.54019815 C18.4223948,8.64345225 18.4436028,8.69507927 18.4436028,8.69507927 C18.4436028,8.69507927 18.4537659,8.74110672 18.4740922,8.83316162 L18.4915914,8.88560822 L18.5248141,9.00078304 L18.5429997,9.15698939 L18.5661905,9.24651465 L18.5687706,9.4271034 L18.5626249,9.67759216 L18.5482038,9.8305479 L18.5102258,10.0484353 L18.4619257,10.2539837 C18.4446078,10.3260667 18.4359488,10.3621081 18.4359488,10.3621081 C18.4359488,10.3621081 18.4081762,10.4376353 18.3526309,10.5886897 L18.2487655,10.8112093 L18.2058983,10.8814807 L18.1320102,11.0404696 C18.0934579,11.1148064 18.0729668,11.1535829 18.0705369,11.1567989 C18.066892,11.1616229 18.0237538,11.244654 18.020204,11.2480489 C18.0178374,11.2503122 18.0092829,11.2572904 17.9945403,11.2689836 C17.9840135,11.261045 17.9787501,11.2564069 17.9787501,11.2550694 C17.9787501,11.253063 17.9387305,11.1931859 17.9387305,11.1915315 C17.9387305,11.1898772 17.8756608,11.11632 17.8705587,11.1123706 C17.8671573,11.1097378 17.8306289,11.0634369 17.7609735,10.9734681 L17.6584404,10.8489057 L17.5366781,10.7439334 C17.4765323,10.6933793 17.4453366,10.667237 17.4430909,10.6655064 C17.4408452,10.6637757 17.4073885,10.6381702 17.3427208,10.5886897 L17.2341352,10.5173043 C17.1374552,10.4531012 17.0891151,10.4209997 17.0891151,10.4209997 Z" fill="#FFFFFF"></path>
        </g>
    </g>
</svg>