<svg width="25px" height="25px" viewBox="0 0 25 25" version="1.1" xmlns="http://www.w3.org/2000/svg" xmlns:xlink="http://www.w3.org/1999/xlink">
    <g id="Page-1" stroke="none" stroke-width="1" fill="none" fill-rule="evenodd">
        <g fill-rule="nonzero">
            <path d="M12.4855991,25 C5.58999312,25 0,19.4035594 0,12.5 C0,5.59644063 5.58999312,0 12.4855991,0 C19.381205,0 24.9711982,5.59644063 24.9711982,12.5 C24.9711982,19.4035594 19.381205,25 12.4855991,25 Z" fill="#B0B833"></path>
            <path d="M15.2025144,17.8413611 L14.845086,17.6250629 C14.7302724,17.5459402 14.6679059,17.5063788 14.6579865,17.5063788 C14.6480672,17.5063788 14.593759,17.4697952 14.4950621,17.3966281 L14.2520043,17.2373384 L14.0990086,17.1185627 L13.9097012,16.9657002 L13.7477681,16.8284098 L13.6187857,16.7001586 L13.4424939,16.5358635 L13.3147279,16.3880063 L13.1587929,16.2066045 L13.0610875,16.0712853 L12.9453105,15.9112422 L12.8541094,15.7725439 L12.7592447,15.5868407 L12.6667427,15.4057627 L12.605581,15.2302039 C12.5745853,15.1210305 12.5590874,15.0633205 12.5590874,15.0570738 C12.5590874,15.0508272 12.5425582,14.9713008 12.5094998,14.8184947 L12.4856553,14.6150512 L12.4739476,14.3897702 C12.4817527,14.168814 12.4856553,14.0547644 12.4856553,14.0476214 C12.4856553,14.0404783 12.4936035,13.9462762 12.5094998,13.7650152 C12.5280823,13.6259743 12.5373735,13.5516104 12.5373735,13.5419236 C12.5373735,13.5322369 12.5535276,13.4616041 12.585836,13.3300253 L12.6667427,13.0596473 L12.7294514,12.891072 C12.7936789,12.7419735 12.8257927,12.6644488 12.8257927,12.6584978 C12.8257927,12.6525468 12.8565869,12.5813274 12.9181752,12.4448396 L13.0395423,12.1974043 L13.1712812,11.9595643 C13.2434218,11.8438533 13.2794921,11.7859978 13.2794921,11.7859978 C13.2794921,11.7859978 13.314517,11.7287336 13.3845668,11.6142053 L13.5122132,11.4471435 L13.7338313,11.1400107 L13.9097012,10.8993478 L14.1273674,10.6293077 L14.3388247,10.3737978 L14.5523142,10.0829691 L14.7399129,9.83912413 L14.9137576,9.60541652 L15.1069254,9.3435919 L15.2821132,9.09871208 L15.4267131,8.87464899 L15.5512515,8.68684095 L15.7122071,8.44484746 L15.8554499,8.22983051 L15.9738708,8.05098414 L16.0634968,7.9262387 L16.1190894,7.8528346 L16.1623274,7.83420727 C16.1963045,7.83420727 16.2132931,7.83420727 16.2132931,7.83420727 C16.2132931,7.83420727 16.2320256,7.84041638 16.2694905,7.8528346 L16.3123838,7.90561909 L16.4438766,8.173681 L16.5837653,8.48492509 L16.7231547,8.77024158 L16.93618,9.2379032 L17.0853364,9.54207935 L17.2466014,9.87654778 L17.3478298,10.0922546 L17.5404913,10.5036682 L17.687039,10.8225997 L17.8749049,11.1946748 L17.9874332,11.4471435 L18.1296634,11.7859978 L18.2221795,12.0288008 L18.2637368,12.1614942 L18.3073053,12.315835 L18.3544528,12.5318798 C18.3775496,12.6533681 18.389098,12.7141123 18.389098,12.7141123 C18.389098,12.7141123 18.3985767,12.787446 18.4175342,12.9341134 L18.4337282,13.1581554 L18.4337282,13.3735454 L18.4337282,13.5933846 L18.4175342,13.8108373 L18.3756042,13.9901202 L18.3221562,14.2338173 L18.2637368,14.4437656 L18.1296634,14.7074557 L18.0273311,14.9214801 L17.8608415,15.1968 L17.6744101,15.4672484 L17.4819243,15.7214137 L17.2225882,16.0480187 L17.0286469,16.2867105 L16.8497534,16.4842053 L16.6730186,16.6663815 L16.5104387,16.8523241 L16.3775396,16.9923177 L16.2508424,17.1579222 L16.1190894,17.3185918 L16.0378452,17.4508347 C15.9951956,17.4866767 15.9738708,17.5080847 15.9738708,17.5150589 C15.9738708,17.52552 15.9287132,17.545675 15.9287132,17.545675 C15.9287132,17.545675 15.8792381,17.5150589 15.8792381,17.5150589 C15.8792381,17.5150589 15.8435452,17.4716021 15.8435452,17.4612184 C15.8435452,17.4508347 15.794478,17.28007 15.794478,17.28007 C15.794478,17.28007 15.7670544,17.1808814 15.7122071,16.9825042 L15.6098607,16.655491 L15.5512515,16.3679358 L15.4721308,15.9595775 L15.4437228,15.652318 L15.4154694,15.4204196 L15.3860488,15.1335262 L15.3860488,14.7165441 L15.3983332,14.3285028 L15.4437228,13.8108373 L15.4721308,13.492659 L15.5021211,13.1349803 C15.525546,12.8856772 15.5419228,12.7560485 15.5512515,12.7460942 C15.5605802,12.7361399 15.5762586,12.65005 15.5982866,12.4878247 L15.6240437,12.315835 L15.6240437,12.2604036 L15.5982866,12.315835 L15.5512515,12.4448396 L15.4437228,12.7308178 L15.351045,12.9809986 L15.252116,13.3573116 L15.167602,13.6365668 L15.0719005,13.9444389 L15.0348716,14.1133732 L14.9858888,14.3496011 L14.9552728,14.5474831 L14.9137576,14.7586633 L14.8803641,15.0245851 L14.8598245,15.1968 L14.8334837,15.4672484 L14.8334837,15.7311568 L14.8334837,15.9595775 L14.8334837,16.2743063 L14.845086,16.5358635 L14.8803641,16.7839253 L14.904082,16.9225532 L14.9349652,17.050889 L14.9858888,17.2160007 L15.0499194,17.4292013 L15.1069254,17.545675 L15.1543121,17.6516523 L15.2025144,17.7405018 L15.2330952,17.7874432 L15.2240876,17.8222903 L15.2025144,17.8413611 Z M14.4797611,18.2207154 C14.4885128,18.2301744 14.4588227,18.2340768 14.3906905,18.2324226 L14.1729961,18.2729437 L13.7090938,18.2729437 L13.0952967,18.2729437 L12.5434629,18.2729437 C12.2953189,18.2381248 12.1650286,18.2207154 12.1525918,18.2207154 C12.1339367,18.2207154 11.8892125,18.1800253 11.8612825,18.1800253 C11.8426626,18.1800253 11.7587088,18.1600815 11.6094211,18.1201939 C11.4427698,18.0749092 11.3594442,18.0522668 11.3594442,18.0522668 C11.3594442,18.0522668 11.2692134,18.0220003 11.0887519,17.9614673 C10.9040104,17.8986206 10.8116396,17.8671972 10.8116396,17.8671972 C10.8116396,17.8671972 10.682629,17.8122773 10.4246078,17.7024375 L10.2102394,17.5939822 L9.75106236,17.3078631 C9.68564243,17.2687731 9.62118753,17.226018 9.55769764,17.1795978 C9.46246279,17.1099676 9.42338946,17.0868402 9.2953449,16.9746689 C9.16730035,16.8624976 8.94548825,16.6322442 8.81458053,16.488915 C8.68367284,16.3455858 8.55814147,16.1324049 8.55814147,16.1324049 C8.55814147,16.1324049 8.51790066,16.0491435 8.47839496,15.9649348 C8.45205783,15.9087958 8.41433278,15.8275446 8.36521976,15.7211814 L8.23451452,15.4297473 L8.14908638,15.1813758 L8.05364513,14.9043311 L7.96832949,14.5581625 L7.91603476,14.2830889 L7.86726287,14.0301486 L7.83008629,13.6375102 L7.79782486,13.3298634 C7.79219009,13.10397 7.78937272,12.9910233 7.78937272,12.9910233 C7.78937272,12.9910233 7.78037215,12.8268267 7.762371,12.4984337 L7.762371,12.2371792 L7.77395222,11.7840407 L7.77395222,11.4083542 L7.78937272,10.9848463 L7.79782486,10.7362072 L7.84691313,10.2037159 L7.86726287,9.87090888 L7.88065124,9.56079818 L7.93845884,8.78929833 L7.96832949,8.36981716 L8.01755141,7.98859031 L8.06618966,7.72842001 L8.11741561,7.57272757 L8.16822667,7.46980554 L8.23451452,7.38035773 L8.29418551,7.30494726 L8.38623047,7.23012817 L8.49420925,7.18276433 C8.57973816,7.17189484 8.62754435,7.16304582 8.63762782,7.15621719 C8.64771126,7.14938858 8.67510444,7.14938858 8.71980729,7.15621719 C8.81122877,7.16304582 8.86209139,7.16646012 8.87239519,7.16646012 C8.88785086,7.16646012 8.97972704,7.19302131 8.9969055,7.19302131 C9.00835778,7.19302131 9.03662287,7.20539028 9.08170075,7.23012817 L9.2953449,7.33478198 L9.54180599,7.50748261 L9.7259451,7.61342471 L9.99382477,7.79974738 L10.1828158,7.92080395 L10.4986446,8.10607065 L10.7944823,8.29307618 L11.0887519,8.48243299 L11.5288027,8.75551427 L11.966076,9.02576557 L12.2589674,9.21025084 L12.6174927,9.43261733 L12.9636,9.62926739 C13.0786339,9.70307745 13.1361509,9.7399825 13.1361509,9.7399825 C13.1361509,9.7399825 13.2126745,9.78362463 13.3657218,9.87090888 L13.6082733,10.0169427 L13.7665569,10.1297064 L13.9091527,10.2431248 C13.9242474,10.2701576 13.9317948,10.289902 13.9317948,10.3023578 C13.9317948,10.3210414 13.9091527,10.3478208 13.9091527,10.3601898 C13.9091527,10.3684358 13.8899421,10.3906769 13.8515209,10.4269131 L13.7381699,10.5880614 L13.5939005,10.7923004 L13.4399484,10.9848463 L13.2315499,11.252176 L13.1204069,11.4226873 C13.0630188,11.5266653 13.0312496,11.5835493 13.0250992,11.5933393 C13.0189488,11.6031293 12.9761445,11.6769441 12.8966863,11.8147836 L12.7872731,12.0068718 L12.6869096,12.1811705 L12.6018542,12.3810026 L12.5166721,12.5550548 C12.4595607,12.6887127 12.431005,12.7555416 12.431005,12.7555416 C12.431005,12.7555416 12.3968309,12.8400287 12.3284828,13.0090029 L12.238702,13.34571 L12.1984666,13.5243804 L12.1712469,13.7806225 L12.1358775,14.0506696 L12.1358775,14.29619 L12.1358775,14.5223932 L12.1149652,14.574882 C12.0958296,14.5522749 12.0862618,14.5409713 12.0862618,14.5409713 C12.0862618,14.5409713 12.0726953,14.519758 12.0455623,14.4773314 C11.9860085,14.3886063 11.9562316,14.3415733 11.9562316,14.3362325 C11.9562316,14.3308916 11.9209043,14.2736626 11.8502498,14.1645456 L11.7431148,14.0083604 L11.6456977,13.8333858 L11.5196052,13.589562 C11.4128312,13.3888054 11.3594442,13.2884271 11.3594442,13.2884271 C11.3594442,13.2884271 11.3052626,13.1678375 11.1968994,12.9266583 L11.0683529,12.6328166 L10.9279439,12.3218611 L10.8670072,12.1811705 L10.8116396,12.0272099 C10.7345347,11.9105039 10.6959822,11.8473145 10.6959822,11.8376418 C10.6959822,11.8279691 10.6884724,11.8279691 10.6734526,11.8376418 L10.6734526,11.9388321 L10.7258036,12.1283719 C10.7543992,12.2303459 10.768697,12.2813329 10.768697,12.2813329 C10.768697,12.2813329 10.788735,12.3487063 10.828811,12.4834529 L10.8833137,12.6669245 L10.9619422,12.9555144 L11.039748,13.1997818 L11.1040247,13.3719685 L11.1968994,13.6375102 L11.2780734,13.8830588 L11.380244,14.1297478 L11.4869992,14.3873274 L11.582778,14.6589303 L11.6679882,14.8311241 L11.7431148,14.9860914 L11.8502498,15.210584 L11.9815106,15.4658405 L12.1027933,15.693515 L12.2101182,15.8927768 L12.3398038,16.0778886 L12.5036565,16.3342433 L12.6305646,16.5190946 L12.7228557,16.6646146 L12.8789735,16.8469245 L13.0095732,17.0275309 L13.1204069,17.1620546 L13.2482362,17.3078631 C13.3690736,17.4366213 13.4294923,17.5010003 13.4294923,17.5010003 C13.4294923,17.5010003 13.4890859,17.5498942 13.6082733,17.6476818 L13.8062297,17.7947083 L13.9799549,17.9267118 C14.102583,18.0219651 14.1669301,18.0695918 14.1729961,18.0695918 C14.1790622,18.0695918 14.2261159,18.0962961 14.3141575,18.1497048 C14.4078007,18.1789316 14.4630018,18.2026018 14.4797611,18.2207154 Z" fill="#FFFFFF"></path>
        </g>
    </g>
</svg>