<svg width="32" height="32" viewBox="0 0 32 32" fill="none" xmlns="http://www.w3.org/2000/svg">
<g clip-path="url(#clip0)">
<path d="M20.1836 3.91508L31.3547 23.264C31.7643 23.9736 31.9999 24.7962 31.9999 25.6744C31.9999 28.3413 29.8379 30.5034 27.1709 30.5034H15.9999L12.1367 16L15.9999 1.49658C17.7887 1.49658 19.3491 2.46989 20.1836 3.91508Z" fill="#1D1D1D"/>
<path d="M11.8163 3.91508L0.645187 23.264C0.235563 23.9736 0 24.7962 0 25.6744C0 28.3413 2.162 30.5034 4.829 30.5034H16V1.49658C14.2113 1.49658 12.6508 2.46989 11.8163 3.91508Z" fill="#1D1D1D"/>
<path d="M29.681 24.2299L18.51 4.88118C18.0065 4.00874 17.082 3.45824 16.082 3.42993L25.6363 28.5721H27.17C28.7675 28.5721 30.0674 27.2722 30.0674 25.6747C30.0674 25.1674 29.9335 24.6677 29.681 24.2299Z" fill="#FF9500"/>
<path d="M27.8053 24.2298C28.0235 24.6676 28.1388 25.1672 28.1388 25.6746C28.1388 27.272 27.0178 28.572 25.6393 28.572H4.83097C3.23353 28.572 1.93359 27.272 1.93359 25.6746C1.93359 25.1672 2.06753 24.6676 2.31991 24.2298L13.4909 4.88104C14.0086 3.98479 14.9705 3.42786 16.002 3.42786C16.0297 3.42786 16.0573 3.42848 16.085 3.42979C16.9433 3.46329 17.7359 4.01248 18.1679 4.88104L27.8053 24.2298Z" fill="#FFC51F"/>
<path d="M16 22.1332V25.3525C16.8892 25.3525 17.6097 24.632 17.6097 23.7428C17.6097 22.8537 16.8892 22.1332 16 22.1332Z" fill="#1D1D1D"/>
<path d="M16.0003 22.1332C16.178 22.1332 16.3222 22.8537 16.3222 23.7429C16.3222 24.6321 16.178 25.3526 16.0003 25.3526C15.1111 25.3526 14.3906 24.6321 14.3906 23.7429C14.3906 22.8537 15.1111 22.1332 16.0003 22.1332Z" fill="#1D1D1D"/>
<path d="M16 8.29041V20.2019C16.8892 20.2019 17.6097 19.4808 17.6097 18.5922V9.90009C17.6097 9.01091 16.8892 8.29041 16 8.29041Z" fill="#1D1D1D"/>
<path d="M16.0003 8.29041C16.178 8.29041 16.3222 9.01091 16.3222 9.90009V18.5922C16.3222 19.4807 16.178 20.2019 16.0003 20.2019C15.1111 20.2019 14.3906 19.4808 14.3906 18.5922V9.90009C14.3906 9.01091 15.1111 8.29041 16.0003 8.29041Z" fill="#1D1D1D"/>
</g>
<defs>
<clipPath id="clip0">
<rect width="32" height="32" fill="white"/>
</clipPath>
</defs>
</svg>
