<svg width="575" height="680" viewBox="0 0 575 680" fill="none" xmlns="http://www.w3.org/2000/svg">
<circle cx="287.5" cy="365.5" r="287.5" fill="#3F3D56"/>
<path d="M509.07 679.731C545.481 679.731 574.999 675.317 574.999 669.872C574.999 664.427 545.481 660.013 509.07 660.013C472.658 660.013 443.141 664.427 443.141 669.872C443.141 675.317 472.658 679.731 509.07 679.731Z" fill="#E6E6E6"/>
<path d="M482.61 465.716C498.275 465.716 510.975 453.024 510.975 437.368C510.975 421.712 498.275 409.021 482.61 409.021C466.945 409.021 454.246 421.712 454.246 437.368C454.246 453.024 466.945 465.716 482.61 465.716Z" fill="#F2F2F2"/>
<path d="M251.431 285.86C252.774 285.86 253.862 284.772 253.862 283.43C253.862 282.088 252.774 281 251.431 281C250.088 281 249 282.088 249 283.43C249 284.772 250.088 285.86 251.431 285.86Z" fill="#FF6584"/>
<path d="M348.431 217.86C349.774 217.86 350.862 216.772 350.862 215.43C350.862 214.088 349.774 213 348.431 213C347.088 213 346 214.088 346 215.43C346 216.772 347.088 217.86 348.431 217.86Z" fill="#FF6584"/>
<path d="M377.431 342.86C378.774 342.86 379.862 341.772 379.862 340.43C379.862 339.088 378.774 338 377.431 338C376.088 338 375 339.088 375 340.43C375 341.772 376.088 342.86 377.431 342.86Z" fill="#FF6584"/>
<path d="M137.431 309.86C138.774 309.86 139.862 308.772 139.862 307.43C139.862 306.088 138.774 305 137.431 305C136.088 305 135 306.088 135 307.43C135 308.772 136.088 309.86 137.431 309.86Z" fill="#FF6584"/>
<path d="M474.505 545.09C475.848 545.09 476.937 544.002 476.937 542.66C476.937 541.318 475.848 540.23 474.505 540.23C473.163 540.23 472.074 541.318 472.074 542.66C472.074 544.002 473.163 545.09 474.505 545.09Z" fill="#FF6584"/>
<path d="M482.611 382.293C483.954 382.293 485.042 381.205 485.042 379.863C485.042 378.521 483.954 377.433 482.611 377.433C481.268 377.433 480.18 378.521 480.18 379.863C480.18 381.205 481.268 382.293 482.611 382.293Z" fill="#F2F2F2"/>
<path d="M516.646 499.328C517.989 499.328 519.077 498.241 519.077 496.899C519.077 495.557 517.989 494.469 516.646 494.469C515.303 494.469 514.215 495.557 514.215 496.899C514.215 498.241 515.303 499.328 516.646 499.328Z" fill="#F2F2F2"/>
<path d="M419.802 447.897C421.145 447.897 422.234 446.81 422.234 445.468C422.234 444.126 421.145 443.038 419.802 443.038C418.46 443.038 417.371 444.126 417.371 445.468C417.371 446.81 418.46 447.897 419.802 447.897Z" fill="#F2F2F2"/>
<path d="M291.353 431.699C292.696 431.699 293.784 430.611 293.784 429.269C293.784 427.927 292.696 426.839 291.353 426.839C290.01 426.839 288.922 427.927 288.922 429.269C288.922 430.611 290.01 431.699 291.353 431.699Z" fill="#F2F2F2"/>
<path d="M143.431 496.86C144.774 496.86 145.862 495.772 145.862 494.43C145.862 493.088 144.774 492 143.431 492C142.089 492 141 493.088 141 494.43C141 495.772 142.089 496.86 143.431 496.86Z" fill="#F2F2F2"/>
<path d="M264.431 376.86C265.774 376.86 266.862 375.772 266.862 374.43C266.862 373.088 265.774 372 264.431 372C263.089 372 262 373.088 262 374.43C262 375.772 263.089 376.86 264.431 376.86Z" fill="#F2F2F2"/>
<path d="M445.431 280.86C446.774 280.86 447.862 279.772 447.862 278.43C447.862 277.088 446.774 276 445.431 276C444.089 276 443 277.088 443 278.43C443 279.772 444.089 280.86 445.431 280.86Z" fill="#F2F2F2"/>
<path d="M323.431 282.86C324.774 282.86 325.862 281.772 325.862 280.43C325.862 279.088 324.774 278 323.431 278C322.089 278 321 279.088 321 280.43C321 281.772 322.089 282.86 323.431 282.86Z" fill="#F2F2F2"/>
<path d="M205.431 135.86C206.774 135.86 207.862 134.772 207.862 133.43C207.862 132.088 206.774 131 205.431 131C204.089 131 203 132.088 203 133.43C203 134.772 204.089 135.86 205.431 135.86Z" fill="#F2F2F2"/>
<path d="M337.142 612.719C382.795 612.719 419.804 575.732 419.804 530.106C419.804 484.48 382.795 447.492 337.142 447.492C291.489 447.492 254.48 484.48 254.48 530.106C254.48 575.732 291.489 612.719 337.142 612.719Z" fill="#E30613"/>
<path opacity="0.2" d="M333.496 508.642C340.21 508.642 345.652 503.203 345.652 496.493C345.652 489.784 340.21 484.344 333.496 484.344C326.782 484.344 321.34 489.784 321.34 496.493C321.34 503.203 326.782 508.642 333.496 508.642Z" fill="black"/>
<path opacity="0.2" d="M333.496 598.95C345.133 598.95 354.567 589.522 354.567 577.892C354.567 566.262 345.133 556.833 333.496 556.833C321.859 556.833 312.426 566.262 312.426 577.892C312.426 589.522 321.859 598.95 333.496 598.95Z" fill="black"/>
<path opacity="0.2" d="M272.311 551.164C275.22 551.164 277.578 548.807 277.578 545.899C277.578 542.992 275.22 540.635 272.311 540.635C269.401 540.635 267.043 542.992 267.043 545.899C267.043 548.807 269.401 551.164 272.311 551.164Z" fill="black"/>
<path opacity="0.2" d="M480.144 425.545C481.691 425.545 482.944 424.292 482.944 422.746C482.944 421.2 481.691 419.948 480.144 419.948C478.597 419.948 477.344 421.2 477.344 422.746C477.344 424.292 478.597 425.545 480.144 425.545Z" fill="black"/>
<path opacity="0.2" d="M361.417 481.025C362.964 481.025 364.218 479.772 364.218 478.227C364.218 476.681 362.964 475.428 361.417 475.428C359.871 475.428 358.617 476.681 358.617 478.227C358.617 479.772 359.871 481.025 361.417 481.025Z" fill="black"/>
<path opacity="0.2" d="M329.85 537.395C331.864 537.395 333.497 535.763 333.497 533.75C333.497 531.738 331.864 530.106 329.85 530.106C327.836 530.106 326.203 531.738 326.203 533.75C326.203 535.763 327.836 537.395 329.85 537.395Z" fill="black"/>
<path opacity="0.2" d="M473.328 447.905C474.874 447.905 476.128 446.652 476.128 445.106C476.128 443.561 474.874 442.308 473.328 442.308C471.781 442.308 470.527 443.561 470.527 445.106C470.527 446.652 471.781 447.905 473.328 447.905Z" fill="black"/>
<path opacity="0.2" d="M397.96 516.749C399.507 516.749 400.761 515.496 400.761 513.95C400.761 512.405 399.507 511.152 397.96 511.152C396.414 511.152 395.16 512.405 395.16 513.95C395.16 515.496 396.414 516.749 397.96 516.749Z" fill="black"/>
<path opacity="0.2" d="M498.42 446.509C500.654 446.509 502.465 444.699 502.465 442.467C502.465 440.234 500.654 438.424 498.42 438.424C496.186 438.424 494.375 440.234 494.375 442.467C494.375 444.699 496.186 446.509 498.42 446.509Z" fill="black"/>
<path opacity="0.2" d="M374.834 546.536C377.068 546.536 378.879 544.726 378.879 542.493C378.879 540.261 377.068 538.451 374.834 538.451C372.6 538.451 370.789 540.261 370.789 542.493C370.789 544.726 372.6 546.536 374.834 546.536Z" fill="black"/>
<path opacity="0.2" d="M286.088 501.758C288.997 501.758 291.356 499.401 291.356 496.494C291.356 493.586 288.997 491.229 286.088 491.229C283.179 491.229 280.82 493.586 280.82 496.494C280.82 499.401 283.179 501.758 286.088 501.758Z" fill="black"/>
<path d="M355.051 577.725C346.358 577.714 337.673 577.212 329.036 576.223C303.06 573.275 279.103 566.308 261.578 556.607C243.838 546.786 234.761 535.287 236.017 524.228C236.888 516.566 244.298 509.708 258.671 503.263C258.867 503.176 259.089 503.17 259.29 503.246C259.491 503.323 259.653 503.476 259.741 503.671C259.828 503.867 259.835 504.09 259.759 504.29C259.683 504.491 259.53 504.653 259.334 504.742C245.529 510.932 238.428 517.366 237.628 524.411C236.45 534.777 245.234 545.707 262.363 555.19C279.706 564.79 303.449 571.688 329.219 574.613C354.989 577.538 379.675 576.137 398.73 570.667C417.551 565.265 428.564 556.582 429.741 546.216C430.538 539.203 426.674 531.768 418.565 524.713C418.403 524.572 418.303 524.372 418.288 524.158C418.273 523.944 418.344 523.732 418.486 523.57C418.627 523.408 418.827 523.309 419.041 523.294C419.255 523.279 419.467 523.35 419.629 523.491C428.158 530.912 432.212 538.833 431.352 546.399C430.095 557.458 418.669 566.629 399.178 572.224C386.487 575.867 371.34 577.725 355.051 577.725Z" fill="white"/>
<path d="M482.188 651.377L482.762 656.543L477.594 655.969V649.655L482.188 651.377Z" fill="#FFB8B8"/>
<path d="M536.176 651.377L535.602 656.543L540.771 655.969V649.655L536.176 651.377Z" fill="#FFB8B8"/>
<path d="M481.611 540.02L479.314 599.142C479.314 599.142 471.848 643.341 473.571 644.489C475.294 645.637 473.571 651.951 473.571 651.951L483.334 653.099C483.334 653.099 483.334 648.507 485.632 646.785C487.929 645.063 509.18 564.128 509.18 564.128L531.005 642.193C531.005 642.193 530.43 646.785 532.153 646.785C533.876 646.785 534.451 653.099 534.451 653.099H544.215V646.785C544.215 646.785 547.086 646.211 545.363 641.619C543.64 637.027 537.322 540.02 537.322 540.02L481.611 540.02Z" fill="#2F2E41"/>
<path d="M478.741 651.377C478.741 651.377 475.869 649.655 474.721 650.803C473.572 651.951 464.382 663.431 464.382 663.431C464.382 663.431 451.747 671.467 463.234 673.763C474.721 676.059 483.336 665.153 483.91 664.005C484.484 662.857 483.336 653.673 482.761 654.821C482.187 655.969 480.464 655.395 479.89 654.821C479.315 654.247 478.741 651.377 478.741 651.377Z" fill="#2F2E41"/>
<path d="M539.622 651.377C539.622 651.377 542.494 649.655 543.643 650.803C544.792 651.951 553.981 663.431 553.981 663.431C553.981 663.431 566.617 671.467 555.13 673.763C543.643 676.059 535.028 665.153 534.453 664.005C533.879 662.857 535.028 653.673 535.602 654.821C536.176 655.969 537.899 655.395 538.474 654.821C539.048 654.247 539.622 651.377 539.622 651.377Z" fill="#2F2E41"/>
<path d="M516.36 455.067C522.863 455.067 528.134 449.799 528.134 443.3C528.134 436.801 522.863 431.533 516.36 431.533C509.857 431.533 504.586 436.801 504.586 443.3C504.586 449.799 509.857 455.067 516.36 455.067Z" fill="#FFB8B8"/>
<path d="M508.606 449.901L506.883 467.695L520.667 470.566L524.113 449.327L508.606 449.901Z" fill="#FFB8B8"/>
<path d="M522.965 463.677C522.965 463.677 519.519 471.139 506.884 463.103L483.336 540.02C483.336 540.02 514.925 558.962 535.027 544.612L528.134 467.121L522.965 463.677Z" fill="#575A89"/>
<path d="M509.182 455.067L498.269 453.345L497.12 460.807C497.12 460.807 482.188 462.529 480.465 468.269L482.188 510.746C482.188 510.746 477.019 519.93 481.613 525.67C481.613 525.67 474.147 541.168 479.89 544.038C479.89 544.038 493.1 537.724 501.141 539.446C501.141 539.446 505.736 538.298 505.736 534.854C505.736 531.41 509.182 455.067 509.182 455.067Z" fill="#2F2E41"/>
<path d="M522.391 456.215L528.709 457.937L529.283 465.973C529.283 465.973 544.791 475.732 545.365 481.472C545.939 487.212 533.878 514.764 533.878 514.764C533.878 514.764 538.473 522.8 536.75 527.966C536.75 527.966 544.216 542.89 539.622 546.908C539.622 546.908 531.006 549.204 529.858 545.76C528.709 542.316 518.371 502.71 522.966 483.768C522.966 483.768 518.371 459.659 522.391 456.215Z" fill="#2F2E41"/>
<path d="M528.997 474.909H528.781V468.99C528.781 468.54 528.692 468.095 528.52 467.679C528.348 467.263 528.095 466.886 527.777 466.568C527.459 466.25 527.081 465.997 526.665 465.825C526.249 465.653 525.803 465.564 525.353 465.564H512.806C512.356 465.564 511.911 465.653 511.495 465.825C511.079 465.997 510.701 466.25 510.383 466.568C510.065 466.886 509.812 467.263 509.64 467.679C509.468 468.095 509.379 468.54 509.379 468.99V501.46C509.379 501.91 509.468 502.355 509.64 502.771C509.812 503.187 510.065 503.564 510.383 503.882C510.701 504.2 511.079 504.453 511.495 504.625C511.911 504.797 512.356 504.886 512.806 504.886H525.353C525.803 504.886 526.249 504.797 526.665 504.625C527.081 504.453 527.459 504.2 527.777 503.882C528.095 503.564 528.348 503.187 528.52 502.771C528.692 502.355 528.781 501.91 528.781 501.46V479.122H528.997V474.909Z" fill="white"/>
<path d="M534.451 498.118C534.451 498.118 529.856 483.194 522.964 487.786C516.072 492.378 527.559 505.006 527.559 505.006L534.451 498.118Z" fill="#FFB8B8"/>
<path d="M502.863 487.211C502.863 487.211 510.904 477.453 514.924 482.045C518.945 486.637 508.032 496.969 508.032 496.969L502.863 487.211Z" fill="#FFB8B8"/>
<path d="M482.186 467.695C482.186 467.695 479.315 467.121 477.592 472.287C475.869 477.453 469.551 496.969 469.551 500.414C469.551 503.858 471.848 517.634 484.484 515.338C497.119 513.042 512.052 496.969 512.052 496.969L504.011 484.915L486.781 495.247L482.186 467.695Z" fill="#2F2E41"/>
<path opacity="0.1" d="M484.67 482.576L487.07 494.96L504.875 484.629L488.219 490.943L484.547 481.837L484.67 482.576Z" fill="black"/>
<path opacity="0.1" d="M535.312 494.96L537.61 496.682L538.758 488.646L535.312 494.96Z" fill="black"/>
<path opacity="0.1" d="M481.898 516.773C481.898 516.773 498.768 512.186 506.702 502.138C506.702 502.138 498.554 515.625 481.898 516.773Z" fill="black"/>
<path opacity="0.1" d="M524.402 506.441C524.402 506.441 527.955 523.816 537.091 524.312C537.091 524.312 526.125 527.679 524.402 506.441Z" fill="black"/>
<path d="M543.066 479.175C543.066 479.175 544.789 480.323 545.938 485.489C547.087 490.655 554.553 510.172 551.681 514.764C548.81 519.356 544.215 529.688 534.451 522.8L524.688 505.006L534.451 495.821L538.472 498.691L543.066 479.175Z" fill="#2F2E41"/>
<path d="M505.056 446.285C505.056 446.285 495.181 430.29 505.699 429.458C509.209 429.213 512.636 428.28 515.785 426.712C519.272 424.939 523.66 423.591 525.996 426.32C527.015 427.568 528.203 428.668 529.526 429.589C531.577 430.948 533.951 433.153 532.637 435.517L530.482 439.393L527.465 447.146C528.168 443.802 528.185 440.994 526.388 439.609C526.388 439.609 516.359 443.874 511.305 436.163C505.647 431.921 503.847 445.274 505.056 446.285Z" fill="#2F2E41"/>
<path d="M519.231 480.036C520.817 480.036 522.103 478.751 522.103 477.166C522.103 475.581 520.817 474.296 519.231 474.296C517.645 474.296 516.359 475.581 516.359 477.166C516.359 478.751 517.645 480.036 519.231 480.036Z" fill="#E30613"/>
<circle cx="170" cy="33" r="33" fill="#3F3D56"/>
</svg>
